<ttFont>
          <CharString index="0">
            rmoveto
            7 8 15 3 8 hvcurveto
            66 14 63 49 37 18 rrcurveto
            22 8 14 10 18 vvcurveto
            15 -20 20 -17 2 vhcurveto
            -5 10 rlineto
            7 1 2 0 callsubr
            9 -9 12 -3 9 vhcurveto
            -4 -7 -8 -2 -9 -63 callsubr
            -55 callgsubr
            -64 -33 -45 -30 -51 -31 33 18 30 15 31 20 -39 callsubr
            -3 2 vhcurveto
            -28 -32 -43 -1 -30 -30 -12 6 rcurveline
            -21 -11 -18 -5 -23 vvcurveto
            47 16 37 26 40 18 -37 -23 -48 -29 -34 -14 -4 -2 rcurveline
            -16 13 -22 21 -5 vhcurveto
            6 5 4 -3 3 -5 3 -5 rlinecurve
            31 18 33 21 35 7 -35 -11 -31 -16 -30 -23 rrcurveto
            -5 4 5 -6 7 hhcurveto
            -14 121 rmoveto
            -6 -3 rlineto
            endchar
          </CharString>
          <CharString index="1">
            rmoveto
            4 4 3 5 6 vvcurveto
            12 -27 57 -12 30 vhcurveto
            -6 15 -15 11 -47 76 -77 -66 rcurveline
            -7 -6 -74 -61 -30 vvcurveto
            -17 18 -12 20 5 6 2 2 6 vhcurveto
            9 -7 rlineto
            -5 -4 -2 -4 -3 vvcurveto
            -9 18 -6 6 -8 vhcurveto
            8 9 22 19 24 36 7 -11 7 -31 8 -10 -8 11 -6 31 -7 12 2 1 -64 callgsubr
            1 7 -12 9 -32 10 -9 -2 -15 rcurveline
            -19 13 4 -37 18 hhcurveto
            -64 callsubr
            1 3 hvcurveto
            -24 35 -13 64 -20 37 3 3 rcurveline
            22 -43 9 -54 28 -36 4 -4 rcurveline
            18 6 17 10 26 vvcurveto
            -3 2 -5 3 0 vvcurveto
            3 5 4 -35 callgsubr
            -26 26 -26 35 -7 38 10 -39 23 -30 30 -26 rrcurveto
            endchar
          </CharString>
          <CharString index="2">
            rmoveto
            -33 callgsubr
            vvcurveto
            2 -16 callsubr
            0 1 16 callsubr
            -29 49 60 -19 59 hhcurveto
            202 116 188 186 32 -3 33 -6 34 hvcurveto
            3 6 3 3 hhcurveto
            179 -33 -124 100 -124 hhcurveto
            140 -37 108 -104 13 -157 -19 166 -115 97 -130 25 rrcurveto
            3 -6 -10 3 -9 hhcurveto
            -34 -9 -28 -4 -15 -24 92 -5 -10 vvcurveto
            -4 -11 callgsubr
            -2 vhcurveto
            68 -18 48 -30 39 -62 -36 57 -56 33 -66 14 rrcurveto
            -2 -2 -2 -15 callsubr
            -10 36 -8 50 -27 vhcurveto
            80 -53 15 -77 -81 vvcurveto
            -164 -78 -138 -129 -132 -82 118 167 49 12 52 21 32 vhcurveto
            28 63 76 -2 21 vvcurveto
            6 -17 19 -38 -19 -21 -5 -13 -25 vhcurveto
            -16 callgsubr
            3 vhcurveto
            60 37 23 -4 10 vvcurveto
            2 vlineto
            6 -9 7 5 vvcurveto
            -45 callsubr
            vhcurveto
            -40 -3 -43 -21 -34 -28 rrcurveto
            -84 -69 -11 -103 -77 vvcurveto
            -183 102 -217 222 vhcurveto
            13 hlineto
            156 87 100 112 44 hvcurveto
            -116 -49 -104 -91 -138 hhcurveto
            -61 -60 19 32 -49 hvcurveto
            1 -55 callsubr
            473 323 rmoveto
            -51 callsubr
            -6 -118 -42 -123 -96 -64 95 67 36 127 12 103 rrcurveto
            -80 -58 rmoveto
            -9 -53 -22 -48 -34 -36 33 37 21 50 11 50 rrcurveto
            103 88 rmoveto
            12 0 11 -1 11 vhcurveto
            -18 vlineto
            -35 -4 -29 -24 vvcurveto
            3 25 2 24 23 vvcurveto
            -103 -88 rmoveto
            6 32 3 34 33 -44 callgsubr
            14 vhcurveto
            2 -17 1 -16 -18 vvcurveto
            -30 -3 -31 -7 -29 vhcurveto
            98 16 rmoveto
            -6 -40 -10 -42 -15 -41 9 23 7 23 6 24 9 49 rcurveline
            return
          </CharString>
          <CharString index="3">
            rmoveto
            -1 -8 -1 -10 -3 -6 15 -5 77 -74 43 -40 -30 30 -20 28 -26 20 rrcurveto
            -47 callsubr
            2 vvcurveto
            33 -13 9 -42 38 -20 -7 -8 rcurveline
            -10 10 24 -25 13 hhcurveto
            5 6 2 3 5 hvcurveto
            -42 36 -33 33 -23 31 33 -33 28 -27 40 -33 4 -3 rcurveline
            11 7 10 15 17 vvcurveto
            6 0 8 -18 callgsubr
            6 3 5 2 5 -22 14 -26 25 -14 32 18 -31 18 -22 29 -14 rrcurveto
            3 6 1 6 4 vvcurveto
            8 -15 -2 -4 8 vhcurveto
            41 -24 -80 105 -74 hhcurveto
            -6 -10 -6 -1 -4 hvcurveto
            -4 -4 -1 -9 -1 -6 rrcurveto
            -11 4 -15 8 -10 vhcurveto
            -4 -10 rlineto
            1 -2 -2 1 -1 hhcurveto
            -4 -3 -4 -5 -1 hvcurveto
            endchar
          </CharString>
          <CharString index="4">
            106 647 31 rmoveto
            -5 15 20 -13 16 hhcurveto
            8 4 5 8 25 -36 33 -19 14 hvcurveto
            13 12 -85 63 -102 27 -90 53 rlinecurve
            93 -53 104 -25 87 -65 5 6 rcurveline
            34 -242 99 -44 27 vhcurveto
            -1 21 21 -2 21 hhcurveto
            152 142 68 172 208 -119 72 -193 -55 -354 -34 -49 -14 37 -4 36 27 25 2 1 9 1 callsubr
            -10 -2 -69 -8 -17 vvcurveto
            5 -7 0 -8 3 -11 rrcurveto
            29 113 121 9 117 hhcurveto
            116 64 -24 -125 -122 -105 -2 -95 hvcurveto
            -54 -53 -3 -53 hhcurveto
            -2 15 14 -1 29 hhcurveto
            -10 -2 rlineto
            -4 -21 -21 0 -21 hhcurveto
            -33 -75 rlineto
            14 vlineto
            16 29 0 5 9 24 -24 -54 rcurveline
            2 16 21 201 23 vvcurveto
            13 -6 15 -15 -19 -15 -16 -15 -9 -53 callsubr
            1 5 2 6 5 vvcurveto
            19 -23 -8 -11 7 vhcurveto
            -8 -28 -17 -25 -3 -30 rrcurveto
            -11 -96 -12 -93 -97 vvcurveto
            -13 0 -12 1 -13 vhcurveto
            1 65 6 64 3 64 rrcurveto
            6 hlineto
            1 -25 rlineto
            -12 vlineto
            -46 -10 -45 -46 vvcurveto
            -21 1 -21 5 -20 vhcurveto
            -12 -3 4 -43 -1 -50 34 -32 rlinecurve
            -10 45 -6 52 46 vvcurveto
            44 0 44 6 43 vhcurveto
            -3 -45 0 -44 -45 vvcurveto
            -44 6 -108 43 17 9 15 15 2 vhcurveto
            -9 12 15 6 rlineto
            -9 26 -3 27 29 vvcurveto
            3 -28 5 -26 10 -25 rrcurveto
            10 2 4 6 10 14 -14 17 19 vvcurveto
            52 1 58 14 62 vhcurveto
            21 -40 44 -34 37 -25 -7 -9 rcurveline
            70 -44 171 -88 78 -21 -78 70 -114 32 -90 54 67 -40 203 -65 30 -60 rrcurveto
            -218 358 rmoveto
            110 90 12 119 17 -2 16 -4 16 hvcurveto
            6 hlineto
            4 -18 3 -18 -18 vvcurveto
            -112 -91 -19 -94 -37 -37 3 1 -33 vhcurveto
            29 30 1 26 hhcurveto
            -177 -22 rmoveto
            6 18 27 1 30 56 64 -4 31 hhcurveto
            14 15 0 2 14 hvcurveto
            -7 -32 -35 -1 -35 hhcurveto
            -58 -56 0 3 -53 hvcurveto
            -38 -77 rmoveto
            18 -35 37 -34 32 -22 -35 27 -25 29 -27 35 rrcurveto
            148 8 rmoveto
            1 5 6 0 5 hhcurveto
            21 23 -5 -1 21 hvcurveto
            -26 1 -29 2 -26 2 rrcurveto
            -113 66 rmoveto
            -25 -58 -2 -2 rlineto
            7 24 49 3 7 vhcurveto
            133 -109 rmoveto
            -11 6 -11 7 -10 8 rrcurveto
            3 hlineto
            -123 17 rmoveto
            2 4 3 -9 5 -11 8 -9 rlinecurve
            -9 9 -6 10 -3 6 rrcurveto
            return
          </CharString>
          <CharString index="5">
            65 204 -27 -105 callsubr
            return
          </CharString>
          <CharString index="6">
            rmoveto
            -10 10 1 -19 18 20 9 33 5 -46 callgsubr
            -2 16 callsubr
            12 39 10 46 9 43 -6 -46 -10 -43 -9 -42 rrcurveto
            -72 callgsubr
            34 23 268 118 40 -4 39 -4 39 hvcurveto
            85 -10 16 122 -41 -11 -7 9 -8 hhcurveto
            -12 callsubr
            -5 -3 hvcurveto
            -9 hlineto
            -6 12 -17 5 rlineto
            -34 9 -52 -31 -7 hvcurveto
            -28 vlineto
            6 -116 12 -112 -108 vvcurveto
            -34 -2 -29 -4 -32 vhcurveto
            6 41 3 39 44 vvcurveto
            44 -2 45 -4 47 vhcurveto
            6 hlineto
            6 -34 2 -32 -33 -65 -8 -65 -65 vvcurveto
            -14 -6 rlineto
            -3 -37 -15 -35 -32 vvcurveto
            -10 3 -8 5 -10 vhcurveto
            35 85 7 106 4 101 rrcurveto
            -12 1 -13 -13 vvcurveto
            -5 -89 -8 -93 -28 -75 rrcurveto
            116 288 rmoveto
            -3 -51 -5 -34 -5 -48 3 50 -6 29 16 54 rrcurveto
            return
          </CharString>
          <CharString index="7">
            104 700 644 rmoveto
            12 -4 -16 37 -16 hhcurveto
            -17 -4 -29 -24 -13 1 -12 1 -5 hvcurveto
            -19 hlineto
            2 -57 4 -58 -57 vvcurveto
            -34 0 -34 -6 -34 vhcurveto
            2 26 0 27 26 vvcurveto
            24 -2 174 -6 -16 -1 -27 -12 vhcurveto
            -42 callgsubr
            -1 -55 8 -55 -56 vvcurveto
            -137 -52 -179 -164 -152 -63 98 141 vhcurveto
            108 36 104 108 vvcurveto
            14 -1 42 -15 -23 -27 -90 -16 -4 vhcurveto
            -9 hlineto
            3 18 3 18 18 vvcurveto
            6 -2 14 -8 3 vhcurveto
            -24 hlineto
            -13 -115 -41 -109 -117 vvcurveto
            -218 97 -152 233 202 88 120 184 37 vhcurveto
            -178 -37 -101 -122 -191 hhcurveto
            -85 -83 21 61 -62 hvcurveto
            2 7 rlineto
            -59 62 86 -21 83 hhcurveto
            203 97 131 190 20 hvcurveto
            10 15 rlineto
            8 56 0 37 56 vvcurveto
            53 -1 67 -17 41 vhcurveto
            -1 -15 0 -16 -15 -41 2 -42 -41 vvcurveto
            -200 -39 -237 -242 -23 vhcurveto
            225 24 44 214 190 47 -2 56 52 vvcurveto
            24 2 23 5 21 vhcurveto
            -152 -520 rmoveto
            -17 -17 -43 -27 -37 -7 49 17 30 24 18 10 rrcurveto
            return
          </CharString>
          <CharString index="8">
            -269 rmoveto
            -12 -6 -30 2 -21 -22 36 -8 -20 vvcurveto
            -6 23 23 -3 24 hhcurveto
            30 42 14 16 31 hvcurveto
            -23 -33 -47 -11 -32 hhcurveto
            -22 -21 3 7 -21 hvcurveto
            -36 callgsubr
            -6 13 -17 47 127 70 92 73 48 vhcurveto
            77 130 48 121 37 136 rrcurveto
            22 101 27 109 89 vvcurveto
            53 -12 21 -11 -14 -18 -29 -44 -12 vhcurveto
            -9 hlineto
            1 5 callsubr
            22 -6 4 -7 vhcurveto
            -22 1 rlineto
            -50 -13 -57 -14 -43 vhcurveto
            -11 -82 -18 -79 -32 -106 -19 59 -38 53 -20 53 -18 39 -24 33 -21 36 rrcurveto
            53 -39 -16 107 -35 -24 -4 -52 -14 hhcurveto
            18 -4 -6 5 -6 hhcurveto
            -26 -8 rlineto
            7 -26 11 -45 -19 vvcurveto
            45 -107 63 -83 50 -86 -125 225 rcurveline
            3 3 54 -66 60 -144 42 -66 rlinecurve
            -5 -9 18 -36 5 -45 27 -9 rlinecurve
            -5 31 -10 31 -14 31 15 -31 13 -28 7 -31 6 -10 rcurveline
            -32 -75 -38 -74 -47 -57 42 48 33 60 30 60 15 36 rcurveline
            9 -2 -18 -40 -33 -60 -33 -60 -39 -51 rlinecurve
            -12 3 rlineto
            -33 -30 -15 -3 -42 hhcurveto
            1 -5 -5 1 -4 hhcurveto
            -9 -10 -2 -3 -9 hvcurveto
            -12 20 19 -5 18 hhcurveto
            96 71 146 117 52 hvcurveto
            1 hlineto
            -141 -61 -72 -125 -88 hhcurveto
            -24 -30 6 11 -11 hvcurveto
            336 177 rmoveto
            -36 -72 -39 -72 -63 -60 63 63 36 72 39 69 rrcurveto
            -36 175 rmoveto
            -6 -6 -33 82 rlineto
            -55 -45 rmoveto
            -19 38 -23 39 -20 38 22 -33 21 -34 14 -35 rrcurveto
            113 -36 rmoveto
            -2 4 -1 4 -1 4 11 39 rcurveline
            6 -3 -4 -16 -4 -16 -5 -16 rlinecurve
            -89 150 rmoveto
            30 -72 -11 23 -15 9 -4 40 rlinecurve
            82 -174 rmoveto
            -5 -8 -1 5 -4 3 -2 4 rlinecurve
            7 8 rlineto
            return
          </CharString>
          <CharString index="9">
            -39 -90 rlinecurve
            -46 -105 rlineto
            3 -18 -19 2 -17 hhcurveto
            -32 -14 -9 -15 -14 12 -17 21 -10 hvcurveto
            -9 vlineto
            1 -5 -4 1 -3 hhcurveto
            -22 11 -25 -11 -8 hvcurveto
            20 -3 17 -3 14 -9 rrcurveto
            -33 -92 -40 -110 -52 vvcurveto
            -16 5 -7 7 14 27 31 56 27 vhcurveto
            3 7 0 -3 3 hvcurveto
            -14 -32 -5 -19 -10 vvcurveto
            -22 24 16 4 -12 vhcurveto
            32 83 35 return
          </CharString>
          <CharString index="10">
            -402 71 12 -101 callsubr
            return
          </CharString>
          <CharString index="11">
            33 -24 10 vhcurveto
            -18 7 -17 5 -21 5 -8 -5 rcurveline
            -24 -22 0 4 -21 hvcurveto
            -12 1 -39 -58 rlineto
            -27 -5 -25 -34 vvcurveto
            -21 2 -37 23 -23 vhcurveto
            -43 52 43 -5 33 9 8 0 8 hhcurveto
            24 22 2 17 31 hvcurveto
            44 20 23 48 42 vvcurveto
            21 -8 19 -8 16 vhcurveto
            8 -16 7 -20 -21 vvcurveto
            -187 -16 rmoveto
            -7 7 -3 5 -2 11 rrcurveto
            1 -1 11 9 vvcurveto
            9 1 7 3 vhcurveto
            4 7 rlineto
            4 -7 75 -12 -32 vvcurveto
            0 -9 -13 -35 -6 vhcurveto
            -53 123 rmoveto
            -1 1 24 -18 5 hhcurveto
            -4 -1 -4 -2 -4 vhcurveto
            37 -10 55 -32 -30 vvcurveto
            -6 -5 -7 -13 -3 callgsubr
            hlineto
            4 6 17 5 11 vvcurveto
            32 -58 29 -35 5 vhcurveto
            10 -14 13 -17 3 vhcurveto
            -1 11 rlineto
            99 -127 rmoveto
            6 5 -12 -7 3 hvcurveto
            -1 vlineto
            endchar
          </CharString>
          <CharString index="12">
            248 -1 rmoveto
            -6 57 -3 19 rlineto
            -8 90 -20 59 80 vvcurveto
            50 5 49 19 33 vhcurveto
            -16 -26 -7 -36 -3 -39 rrcurveto
            -42 3 -32 3 -45 vhcurveto
            2 -29 -12 31 rlineto
            -6 28 -4 25 33 vvcurveto
            56 15 54 23 38 vhcurveto
            13 2 rlineto
            22 13 9 29 30 hhcurveto
            28 34 -12 -9 22 hvcurveto
            23 -18 -32 17 -34 hhcurveto
            -40 -24 -40 -43 -23 hvcurveto
            43 22 24 45 47 hhcurveto
            58 41 -56 -4 9 hvcurveto
            -4 8 9 -3 7 hhcurveto
            7 6 4 13 17 -20 39 -14 hvcurveto
            6 6 3 6 3 vhcurveto
            28 -31 -44 20 -47 hhcurveto
            -42 -18 -10 -17 -26 hvcurveto
            17 25 17 13 45 hhcurveto
            47 46 -18 -33 34 hvcurveto
            -66 callsubr
            2 5 vvcurveto
            1 -23 61 -110 -75 -41 -36 -68 -36 vhcurveto
            45 -18 -31 67 -14 -19 callgsubr
            -5 -3 -23 21 -61 3 -46 hvcurveto
            -3 -42 callsubr
            hhcurveto
            48 -9 -8 11 -7 hhcurveto
            -6 -9 -4 -4 -9 hvcurveto
            12 -38 7 -41 -41 -8 -1 -8 -8 vvcurveto
            13 -65 -1 -44 9 -56 7 -42 16 -43 2 -36 5 -94 rcurveline
            -18 vlineto
            4 -18 rlineto
            -61 callgsubr
            3 12 12 34 hhcurveto
            22 16 0 2 13 hvcurveto
            return
          </CharString>
          <CharString index="13">
            -85 473 -13 rmoveto
            -5 5 19 -12 11 hhcurveto
            9 9 6 21 5 hvcurveto
            -3 7 -4 16 0 vvcurveto
            7 4 6 0 6 hhcurveto
            -15 53 -26 42 -25 44 26 -43 29 -43 18 -53 rrcurveto
            6 7 0 17 27 -40 54 -15 26 hvcurveto
            -30 70 -55 72 -72 49 rrcurveto
            80 49 90 85 89 vvcurveto
            17 -6 8 -9 -15 -23 -20 -29 -21 vhcurveto
            -10 7 rlineto
            9 15 3 10 6 vvcurveto
            17 -24 -8 -7 10 vhcurveto
            -23 -62 -109 -133 -82 -35 rrcurveto
            146 vlineto
            68 -7 48 70 56 4 27 50 vvcurveto
            64 -6 35 -19 -15 -18 -23 -40 -11 11 callsubr
            1 9 1 7 6 vvcurveto
            20 -7 4 -8 vhcurveto
            -22 1 rlineto
            -8 -77 -13 -35 -70 -125 5 -100 -120 vvcurveto
            -57 -1 -57 -3 -58 vhcurveto
            6 82 3 81 82 vvcurveto
            45 -1 25 -1 46 vhcurveto
            3 hlineto
            5 -41 1 -20 -40 -70 -4 -69 -69 vvcurveto
            -18 0 -19 1 -18 vhcurveto
            -15 -20 rlineto
            -1 -23 -1 -18 -16 -22 1 -20 -25 vvcurveto
            -20 3 -13 7 -13 vhcurveto
            13 60 -4 80 6 73 10 215 rcurveline
            -30 1 -33 -33 vvcurveto
            -5 -72 -4 -67 -76 vvcurveto
            -41 -1 -42 -7 -38 vhcurveto
            -3 -10 rlineto
            -18 9 10 -15 14 hhcurveto
            33 -17 28 19 28 hvcurveto
            5 40 1 43 2 41 rrcurveto
            -65 vlineto
            -21 0 -21 -1 -21 vhcurveto
            -72 callgsubr
            9 6 17 39 hvcurveto
            26 -2 30 21 vvcurveto
            5 34 3 38 2 38 23 -3 21 -6 20 -9 -22 11 -22 8 -22 4 rrcurveto
            17 vlineto
            85 -21 61 -61 55 -64 rrcurveto
            -3 -3 -3 -3 -3 hvcurveto
            33 -45 21 -60 29 -32 -5 36 -14 41 -23 38 24 -38 19 -39 9 -35 rrcurveto
            -232 281 rmoveto
            48 -14 52 -33 29 -47 9 -14 rcurveline
            -40 48 -48 41 -50 19 rrcurveto
            194 -51 rmoveto
            -28 33 -33 31 -31 27 35 -26 34 -24 23 -41 rrcurveto
            -76 -70 rmoveto
            -28 41 -36 25 -33 16 32 -17 40 -36 25 -29 rrcurveto
            return
          </CharString>
          <CharString index="14">
            -337 -46 -101 -96 callgsubr
            return
          </CharString>
          <CharString index="15">
            -95 72 289 rmoveto
            7 -95 5 -94 -95 -89 callgsubr
            153 -4 154 153 -79 callgsubr
            -44 -2 -44 1 -44 rrcurveto
            -30 0 -29 -29 vvcurveto
            -119 7 -117 7 -119 vhcurveto
            -25 callgsubr
            93 -6 94 -4 93 rrcurveto
            249 -318 -90 callsubr
            return
          </CharString>
          <CharString index="16">
            -21 184 -24 rmoveto
            -14 17 -18 14 17 9 25 14 3 vhcurveto
            14 -4 27 144 -6 -48 -9 -48 -6 -48 rlinecurve
            -72 callgsubr
            27 25 253 116 hvcurveto
            9 18 50 58 34 11 -12 -10 -70 -63 -5 -14 12 -4 rcurveline
            19 1 25 34 11 3 rrcurveto
            35 52 214 161 91 vvcurveto
            14 -10 9 -14 -14 -14 -6 -9 -10 vhcurveto
            -9 6 rlineto
            2 3 5 7 4 vvcurveto
            11 -22 3 -7 6 vhcurveto
            -42 -46 -63 -76 -63 -70 -66 -73 rlinecurve
            44 45 47 42 39 49 6 -3 rcurveline
            -33 -58 -64 -33 -37 -56 -6 6 rcurveline
            -17 -11 rlineto
            50 -20 -147 249 -48 hhcurveto
            -15 -3 -20 -11 -14 3 -13 5 -13 hvcurveto
            -9 -6 -6 10 -9 13 -11 4 rlinecurve
            -11 -1 -4 -11 -11 -2 22 -35 14 -38 25 -34 rrcurveto
            69 -92 62 -98 -119 vvcurveto
            -39 -5 -39 -4 -39 vhcurveto
            10 48 3 50 49 vvcurveto
            36 -19 67 -18 32 vhcurveto
            6 3 rlineto
            28 -41 9 -48 -49 vvcurveto
            -51 -8 -51 -1 -51 11 callsubr
            -7 -42 -15 -40 -43 vvcurveto
            -11 2 -10 5 -10 vhcurveto
            8 25 8 26 6 26 rrcurveto
            -8 -42 -8 -40 -7 vvcurveto
            121 450 rmoveto
            -2 5 46 28 30 46 41 34 rlinecurve
            -28 -31 -55 -67 -32 -15 rrcurveto
            -86 -249 rmoveto
            3 32 2 33 32 vvcurveto
            22 -1 22 -2 22 vhcurveto
            5 -27 3 -27 -27 vvcurveto
            -28 -5 -27 -5 -27 vhcurveto
            66 -54 rmoveto
            7 55 7 56 5 55 -3 -56 -7 -55 -9 -55 rrcurveto
            return
          </CharString>
          <CharString index="17">
            rmoveto
            -3 -31 -29 -2 -31 -29 -29 5 -29 -2 -3 -29 callgsubr
            -9 12 -11 11 -10 10 rrcurveto
            -43 callsubr
            30 -6 31 31 vvcurveto
            22 vlineto
            9 -118 30 -29 rlineto
            -7 14 41 -2 41 hhcurveto
            35 35 1 2 16 hvcurveto
            -121 70 rmoveto
            42 1 42 -1 42 3 rrcurveto
            -6 -35 -34 -1 -35 hhcurveto
            -8 -7 1 1 -7 hvcurveto
            -113 -39 rmoveto
            3 -6 37 -38 7 -7 rrcurveto
            -5 14 52 -1 19 hhcurveto
            11 11 1 1 11 hvcurveto
            -14 -15 -1 -16 hhcurveto
            -26 -26 2 6 -22 hvcurveto
            52 92 rmoveto
            3 -11 -8 1 -20 10 -8 3 rlinecurve
            22 -4 rlineto
            return
          </CharString>
          <CharString index="18">
            -93 callsubr
            99 -78 -81 callsubr
            return
          </CharString>
          <CharString index="19">
            rmoveto
            -39 -26 -44 -38 -20 vhcurveto
            -14 -14 -19 -3 -13 hhcurveto
            -34 hlineto
            -29 -28 3 7 -31 hvcurveto
            -9 callgsubr
            2 vvcurveto
            0 -30 callsubr
            vhcurveto
            -6 39 30 -1 37 hhcurveto
            17 16 1 10 20 hvcurveto
            14 9 rlineto
            16 16 36 16 64 vvcurveto
            -3 29 -9 19 -16 16 2 14 rcurveline
            36 -28 return
          </CharString>
          <CharString index="20">
            -259 169 254 rmoveto
            0 -71 callsubr
            1 -30 callsubr
            vhcurveto
            3 11 11 2 11 25 25 -7 26 6 callgsubr
            7 hvcurveto
            7 -11 15 -1 9 -2 16 -2 rlinecurve
            6 6 5 6 5 hvcurveto
            -47 19 -51 -2 -49 5 rrcurveto
            10 11 1 11 hhcurveto
            29 53 -4 -10 33 hvcurveto
            4 -2 rlineto
            6 9 4 10 12 vvcurveto
            8 -2 7 -6 7 vhcurveto
            -9 2 rlineto
            1 -1 2 1 vvcurveto
            4 1 4 1 2 callgsubr
            7 -43 -1 -37 11 rrcurveto
            -10 39 40 -1 40 hhcurveto
            -74 callsubr
            8 -1 9 -13 vhcurveto
            -8 -11 -2 -9 hhcurveto
            13 -37 -69 6 -24 -20 -20 -5 -21 -14 -14 2 -14 hhcurveto
            -23 -22 -6 -23 -14 8 -16 14 -8 hvcurveto
            -6 -10 rlineto
            -7 -2 -6 -6 -35 15 14 21 -14 hvcurveto
            12 hlineto
            46 44 3 44 hhcurveto
            22 23 -1 -2 22 hvcurveto
            4 -32 -31 3 -32 -11 -10 -1 -11 hhcurveto
            endchar
          </CharString>
          <CharString index="21">
            rmoveto
            -66 callgsubr
            -25 4 -25 3 -26 10 27 -7 22 -3 27 -2 rrcurveto
            7 0 13 -8 vhcurveto
            -4 -5 -2 -4 -21 -35 15 -12 hhcurveto
            -48 -31 -22 -13 -15 17 -24 14 -6 hvcurveto
            3 -10 rlineto
            -4 -1 -2 -2 -7 8 -15 3 -9 hvcurveto
            1 2 1 2 13 callgsubr
            -2 -4 6 hvcurveto
            5 2 rlineto
            6 19 1 1 13 4 4 0 5 4 5 -1 return
          </CharString>
          <CharString index="22">
            129 26 25 327 78 hhcurveto
            7 1 rlineto
            15 20 -11 -21 18 hvcurveto
            28 -21 -22 7 -14 hhcurveto
            -67 -30 -192 -110 -17 hvcurveto
            3 63 rlineto
            154 30 36 90 45 hhcurveto
            15 hlineto
            28 -23 10 12 25 -46 -9 -3 rcurveline
            56 -104 -9 -137 13 -116 rrcurveto
            7 40 4 42 43 vvcurveto
            80 -36 227 -95 vhcurveto
            -73 -16 -31 -98 -17 -82 rrcurveto
            5 vlineto
            84 18 33 110 59 hhcurveto
            113 34 -217 -122 -34 -2 -33 -5 -32 hvcurveto
            -3 -9 -3 -6 -9 vvcurveto
            -26 9 -39 12 37 -10 85 10 27 vhcurveto
            4 35 2 36 36 vvcurveto
            61 -7 63 -16 62 vhcurveto
            19 -69 8 -70 -70 vvcurveto
            -30 -1 -30 -3 -30 vhcurveto
            -1 -36 callsubr
            hhcurveto
            18 2 77 7 59 -9 83 -14 54 hvcurveto
            89 -15 -54 161 -143 hhcurveto
            -49 -43 -29 -29 -26 hvcurveto
            return
          </CharString>
          <CharString index="23">
            rmoveto
            -21 45 -47 30 -41 1 -58 -38 rcurveline
            -55 callsubr
            -23 47 1 4 -61 vhcurveto
            -9 -5 10 -24 -78 hhcurveto
            -17 hlineto
            -1 11 10 0 10 hhcurveto
            41 21 12 18 hvcurveto
            10 callsubr
            -1 -2 vvcurveto
            -31 -54 -2 -42 vhcurveto
            -9 -9 0 -7 hhcurveto
            -4 11 rlineto
            1 -8 -5 4 -21 hhcurveto
            -6 -6 -2 -3 -6 hvcurveto
            -22 27 25 -4 25 hhcurveto
            return
          </CharString>
          <CharString index="24">
            -84 callsubr
            32 20 1 8 28 hvcurveto
            -7 -17 -7 -5 -23 -69 callgsubr
            47 -18 30 -3 46 -2 rrcurveto
            -54 -18 2 16 -53 -67 callsubr
            return
          </CharString>
          <CharString index="25">
            -29 84 -27 88 -28 86 96 -276 rcurveline
            -17 25 2 -16 18 hhcurveto
            8 5 6 16 return
          </CharString>
          <CharString index="26">
            rmoveto
            -17 -12 -18 -12 -18 -3 79 35 40 70 15 96 -6 -66 -27 -72 -48 -36 rrcurveto
            140 88 rmoveto
            -27 -70 -48 -66 -71 -33 70 35 46 67 30 67 rrcurveto
            return
          </CharString>
          <CharString index="27">
            rmoveto
            -2 callsubr
            8 -2 vhcurveto
            -16 4 -10 12 1 -1 rrcurveto
            return
          </CharString>
          <CharString index="28">
            vvcurveto
            -146 97 -120 148 vhcurveto
            20 1 23 -1 50 17 rrcurveto
            -138 return
          </CharString>
          <CharString index="29">
            6 97 rrcurveto
            25 -9 11 -9 -14 -16 -26 -32 -18 vhcurveto
            -3 -6 3 -3 hhcurveto
            4 12 2 9 6 vvcurveto
            11 -7 2 -8 vhcurveto
            -12 -2 2 -4 hhcurveto
            -3 -24 -12 -27 -18 -24 return
          </CharString>
          <CharString index="30">
            hhcurveto
            -2 -6 rlineto
            -61 -12 -52 -35 -26 hhcurveto
            -12 -15 3 3 -15 hvcurveto
            return
          </CharString>
          <CharString index="31">
            -35 rmoveto
            1 29 rlineto
            -3 12 11 -1 10 hhcurveto
            22 20 5 4 25 hvcurveto
            3 -8 -3 -11 91 11 90 0 79 54 rlinecurve
            -58 -51 -131 -12 -75 -12 rrcurveto
            -8 7 22 -1 8 hhcurveto
            211 123 102 213 265 -112 183 -280 -50 -54 -13 -12 -48 hvcurveto
            -16 -26 -17 -26 -18 -24 rrcurveto
            return
          </CharString>
          <CharString index="32">
            -7 -5 -6 -6 -6 -4 -14 -10 -15 -8 -14 -9 rrcurveto
            -17 -12 -16 -14 -14 vvcurveto
            -4 1 -4 3 -4 vhcurveto
            -8 7 11 -5 14 -46 callgsubr
            0 -35 callsubr
            6 -8 rlineto
            -8 -42 callsubr
            -3 vvcurveto
            -2 1 -2 2 -2 vhcurveto
            -10 7 6 -3 6 hhcurveto
            10 9 10 2 16 hvcurveto
            return
          </CharString>
          <CharString index="33">
            1 -71 callsubr
            return
          </CharString>
          <CharString index="34">
            0 10 hhcurveto
            19 22 5 11 19 hvcurveto
            6 -3 -3 3 -9 -15 -21 -6 -16 hhcurveto
            -13 -4 4 11 -6 hvcurveto
            -6 21 -3 18 21 vvcurveto
            return
          </CharString>
          <CharString index="35">
            vvcurveto
            -43 8 -43 17 -41 vhcurveto
            -15 41 -7 43 41 vvcurveto
            return
          </CharString>
          <CharString index="36">
            0 -52 callsubr
            return
          </CharString>
          <CharString index="37">
            0 0 1 return
          </CharString>
          <CharString index="38">
            vvcurveto
            -99 46 -55 90 32 30 9 10 28 vhcurveto
            3 3 6 3 3 hhcurveto
            -265 134 rmoveto
            -19 1 return
          </CharString>
          <CharString index="39">
            2 -56 callsubr
            return
          </CharString>
          <CharString index="40">
            hvcurveto
            -2 -3 -1 -15 callsubr
            -19 77 -11 58 78 106 25 125 18 -1 14 -6 13 vhcurveto
            return
          </CharString>
          <CharString index="41">
            3 1 3 return
          </CharString>
          <CharString index="42">
            -56 callgsubr
            vvcurveto
            return
          </CharString>
          <CharString index="43">
            3 2 0 return
          </CharString>
          <CharString index="44">
            -46 callsubr
            0 return
          </CharString>
          <CharString index="45">
            vvcurveto
            -34 1 -131 22 23 18 121 16 2 vhcurveto
            9 hlineto
            -9 0 16 callgsubr
            -35 2 -25 10 -7 vhcurveto
            71 85 rmoveto
            -15 -10 -19 -8 -13 -13 return
          </CharString>
          <CharString index="46">
            hvcurveto
            -11 vlineto
            return
          </CharString>
          <CharString index="47">
            rmoveto
            24 -17 15 -23 15 -22 rrcurveto
            50 -34 -49 40 -59 hhcurveto
            -61 -33 -34 -35 -25 hvcurveto
            3 vlineto
            34 24 39 35 53 hhcurveto
            33 32 -13 -18 26 hvcurveto
            return
          </CharString>
          <CharString index="48">
            7 rrcurveto
            9 0 6 -18 vhcurveto
            -36 return
          </CharString>
          <CharString index="49">
            1 -47 callgsubr
            return
          </CharString>
          <CharString index="50">
            3 -41 callgsubr
            return
          </CharString>
          <CharString index="51">
            1 3 vhcurveto
            return
          </CharString>
          <CharString index="52">
            -30 callgsubr
            vvcurveto
            return
          </CharString>
          <CharString index="53">
            -100 525 53 rmoveto
            12 23 8 1 14 vvcurveto
            10 -9 6 -26 vhcurveto
            -9 -6 -18 -6 0 vvcurveto
            -6 -33 callsubr
            return
          </CharString>
          <CharString index="54">
            vhcurveto
            -9 3 rlineto
            return
          </CharString>
          <CharString index="55">
            1 1 vvcurveto
            return
          </CharString>
          <CharString index="56">
            3 0 -68 callsubr
            return
          </CharString>
          <CharString index="57">
            -44 callsubr
            -3 vvcurveto
            return
          </CharString>
          <CharString index="58">
            -1 -2 -1 return
          </CharString>
          <CharString index="59">
            -49 callsubr
            -1 return
          </CharString>
          <CharString index="60">
            2 -64 callgsubr
            return
          </CharString>
          <CharString index="61">
            hhcurveto
            -3 -4 return
          </CharString>
          <CharString index="62">
            -23 callgsubr
            1 return
          </CharString>
          <CharString index="63">
            -3 0 -3 return
          </CharString>
          <CharString index="64">
            2 0 2 2 return
          </CharString>
          <CharString index="65">
            -6 -3 -3 return
          </CharString>
          <CharString index="66">
            4 4 7 4 5 5 6 -8 rcurveline
            15 8 21 8 15 10 6 4 2 6 2 7 return
          </CharString>
          <CharString index="67">
            -43 callsubr
            vvcurveto
            return
          </CharString>
          <CharString index="68">
            rrcurveto
            -1 0 return
          </CharString>
          <CharString index="69">
            7 -6 -2 3 -3 hhcurveto
            -1 -9 callsubr
            -2 hvcurveto
            -2 -1 0 -2 -3 -1 return
          </CharString>
          <CharString index="70">
            2 -6 -6 -52 callgsubr
            return
          </CharString>
          <CharString index="71">
            -29 callsubr
            1 return
          </CharString>
          <CharString index="72">
            1 4 hvcurveto
            return
          </CharString>
          <CharString index="73">
            -32 callgsubr
            2 vvcurveto
            return
          </CharString>
          <CharString index="74">
            6 0 6 6 vvcurveto
            return
          </CharString>
          <CharString index="75">
            0 -1 hhcurveto
            return
          </CharString>
          <CharString index="76">
            rmoveto
            24 -48 69 -39 57 -6 -60 3 -69 42 -21 48 rrcurveto
            endchar
          </CharString>
          <CharString index="77">
            0 1 -1 1 return
          </CharString>
          <CharString index="78">
            1 1 0 return
          </CharString>
          <CharString index="79">
            -12 hlineto
            78 -8 16 -8 vhcurveto
            -23 -4 rlineto
            2 -26 1 -25 -26 return
          </CharString>
          <CharString index="80">
            -9 -1 -10 return
          </CharString>
          <CharString index="81">
            6 10 6 9 12 vvcurveto
            9 -4 return
          </CharString>
          <CharString index="82">
            -49 callsubr
            -2 -2 return
          </CharString>
          <CharString index="83">
            1 -9 callgsubr
            return
          </CharString>
          <CharString index="84">
            -1 0 callsubr
            return
          </CharString>
          <CharString index="85">
            1 callgsubr
            1 return
          </CharString>
          <CharString index="86">
            10 2 9 return
          </CharString>
          <CharString index="87">
            hvcurveto
            1 -2 return
          </CharString>
          <CharString index="88">
            rmoveto
            -2 -1 -3 -1 -2 vhcurveto
            -64 callgsubr
            3 2 vvcurveto
            return
          </CharString>
          <CharString index="89">
            3 3 3 return
          </CharString>
          <CharString index="90">
            -18 -11 -17 -12 -17 -15 -3 6 1 -3 -2 3 return
          </CharString>
          <CharString index="91">
            3 -12 callgsubr
            return
          </CharString>
          <CharString index="92">
            -2 -3 vvcurveto
            return
          </CharString>
          <CharString index="93">
            -2 10 callgsubr
            return
          </CharString>
          <CharString index="94">
            -4 -3 1 return
          </CharString>
          <CharString index="95">
            -3 -3 -1 return
          </CharString>
          <CharString index="96">
            vlineto
            2 3 -4 callgsubr
            10 callsubr
            hhcurveto
            return
          </CharString>
          <CharString index="97">
            0 3 callsubr
            return
          </CharString>
          <CharString index="98">
            -1 -1 -1 return
          </CharString>
          <CharString index="99">
            8 9 1 return
          </CharString>
          <CharString index="100">
            9 hhcurveto
            9 return
          </CharString>
          <CharString index="101">
            9 3 6 return
          </CharString>
          <CharString index="102">
            vhcurveto
            -11 hlineto
            return
          </CharString>
          <CharString index="103">
            hvcurveto
            9 vlineto
            6 -1 rlineto
            7 2 7 return
          </CharString>
          <CharString index="104">
            vhcurveto
            -12 hlineto
            return
          </CharString>
          <CharString index="105">
            -10 21 -5 return
          </CharString>
          <CharString index="106">
            -1 rlineto
            -1 return
          </CharString>
          <CharString index="107">
            3 4 vvcurveto
            return
          </CharString>
          <CharString index="108">
            hvcurveto
            -12 vlineto
            return
          </CharString>
          <CharString index="109">
            1 5 hvcurveto
            return
          </CharString>
          <CharString index="110">
            1 -2 hvcurveto
            return
          </CharString>
          <CharString index="111">
            hvcurveto
            -3 0 return
          </CharString>
          <CharString index="112">
            10 1 8 6 vvcurveto
            return
          </CharString>
          <CharString index="113">
            vhcurveto
            -2 -42 callgsubr
            return
          </CharString>
          <CharString index="114">
            -2 -1 -1 -2 return
          </CharString>
          <CharString index="115">
            -44 callsubr
            hhcurveto
            return
          </CharString>
          <CharString index="116">
            vhcurveto
            3 6 rlineto
            return
          </CharString>
          <CharString index="117">
            2 -1 3 return
          </CharString>
          <CharString index="118">
            vhcurveto
            -10 hlineto
            return
          </CharString>
          <CharString index="119">
            -2 -2 -2 return
          </CharString>
          <CharString index="120">
            -5 -5 0 return
          </CharString>
          <CharString index="121">
            hhcurveto
            8 7 return
          </CharString>
          <CharString index="122">
            6 5 5 return
          </CharString>
          <CharString index="123">
            -2 2 hvcurveto
            return
          </CharString>
          <CharString index="124">
            -1 2 vhcurveto
            return
          </CharString>
        <CharString name=".notdef">
          -75 128 162 rmoveto
          2 -26 2 -24 -22 vvcurveto
          -58 vlineto
          57 -3 rlineto
          -1 13 12 0 13 hhcurveto
          70 1 67 5 66 5 53 4 rcurveline
          3 86 0 32 33 44 -1 44 44 vvcurveto
          60 0 60 3 59 vhcurveto
          -7 -135 1 -138 -3 -185 -49 -3 rcurveline
          -4 -59 -61 -7 -63 hhcurveto
          -2 5 64 4 61 8 59 3 rlinecurve
          41 2 7 199 1 152 3 155 rlinecurve
          11 4 4 50 -5 43 9 48 rlinecurve
          40 -100 -2 2 -2 hhcurveto
          -11 callgsubr
          -1 -3 hhcurveto
          -12 6 3 1 -13 hvcurveto
          -41 7 -24 0 -21 1 -22 2 rcurveline
          -26 -9 -26 -9 -14 -21 87 -2 -7 vvcurveto
          -4 -2 -3 -2 -3 vhcurveto
          39 -3 rlineto
          10 34 -3 -6 hvcurveto
          -15 2 2 2 -15 hvcurveto
          1 -13 -3 -29 callgsubr
          -40 2 rlineto
          -25 callsubr
          vvcurveto
          -6 4 -13 81 vhcurveto
          -9 -55 -3 -56 -56 -84 6 -85 -83 vvcurveto
          -26 -1 -26 -1 -25 vhcurveto
          -38 -3 -38 -2 -36 -1 -11 114 rcurveline
          -8 85 -7 80 -4 72 -4 71 -1 5 -2 27 rrcurveto
          45 -8 -5 3 -5 hhcurveto
          -2 hlineto
          -2 -1 0 2 -2 hvcurveto
          -26 -6 -58 -35 -5 hvcurveto
          -10 hlineto
          50 0 29 -13 vhcurveto
          -21 hlineto
          -6 -55 -3 -62 -52 vvcurveto
          -83 14 -77 7 -75 vhcurveto
          280 350 rmoveto
          8 1 15 58 3 hhcurveto
          -19 -136 -8 -138 -8 -131 2 112 2 113 12 114 rrcurveto
          63 -157 rmoveto
          -2 -94 1 -96 -3 -94 rrcurveto
          63 -1 67 66 vvcurveto
          134 2 119 16 112 vhcurveto
          -81 31 1 1 84 -32 -18 -88 3 -94 -2 -95 rlinecurve
          -70 336 rmoveto
          -13 -21 3 -25 hhcurveto
          -19 -17 -4 -4 -15 hvcurveto
          14 -2 20 3 51 -11 rrcurveto
          -2 14 -5 -2 12 hhcurveto
          -12 6 rlineto
          2 3 14 9 1 vvcurveto
          endchar
        </CharString>
        <CharString name=".null">
          endchar
        </CharString>
        <CharString name="A">
          -107 callgsubr
          endchar
        </CharString>
        <CharString name="AE">
          376 650 -21 rmoveto
          -82 callsubr
          6 -3 12 -3 12 hvcurveto
          -2 11 12 0 11 hhcurveto
          78 117 9 21 42 hvcurveto
          -58 -86 -9 -71 callgsubr
          77 93 17 77 -64 callsubr
          2 -83 callgsubr
          -48 -7 -72 -3 -48 -5 48 6 73 5 50 -59 callsubr
          -106 -16 -41 hhcurveto
          -23 -18 3 6 -13 hvcurveto
          -14 35 -18 42 -11 36 rrcurveto
          -1 2 -22 callgsubr
          27 1 34 -1 7 2 41 11 52 -2 42 4 -46 -3 -46 4 -42 -8 -1 4 rcurveline
          8 4 8 3 8 2 rrcurveto
          2 7 8 1 8 17 18 -4 17 14 callsubr
          1 2 8 hvcurveto
          5 1 -41 callgsubr
          2 3 -11 rcurveline
          20 5 17 -3 18 5 5 2 5 6 3 6 rrcurveto
          3 -21 -22 1 -22 hhcurveto
          -32 -33 -2 -3 -29 hvcurveto
          6 39 40 4 39 hhcurveto
          15 15 -1 -1 15 hvcurveto
          -70 callsubr
          0 vhcurveto
          4 4 9 11 vvcurveto
          3 0 3 -1 3 vhcurveto
          11 -3 -7 10 -11 hhcurveto
          -50 callgsubr
          -1 3 -1 5 4 2 -71 callsubr
          -3 -18 -18 -1 -16 -3 -4 0 -3 hhcurveto
          18 2 22 2 21 6 rrcurveto
          11 -3 -4 4 -9 -63 callsubr
          -1 -4 hvcurveto
          -5 -15 -4 -1 -4 -6 -6 1 -6 -40 -41 -12 -47 -3 8 callsubr
          -8 -38 -7 -3 -35 hvcurveto
          -26 89 -24 80 -41 86 62 8 rcurveline
          211 -2 rlineto
          30 26 -3 17 hhcurveto
          16 9 2 9 16 -41 21 -142 13 hvcurveto
          9 vlineto
          -1 13 107 -4 -76 callgsubr
          -379 -20 -76 -66 -44 -80 -98 callsubr
          87 33 85 78 -5 rcurveline
          -1 17 15 -1 14 18 15 1 16 hhcurveto
          14 15 0 -2 16 hvcurveto
          -34 6 -42 1 -44 2 rrcurveto
          -28 -14 -1 -11 hhcurveto
          -11 -8 1 3 -16 hvcurveto
          -58 callsubr
          194 hlineto
          -6 18 39 -8 26 hhcurveto
          10 9 2 3 5 hvcurveto
          25 -71 51 -123 20 -32 rrcurveto
          -363 344 rmoveto
          60 131 20 70 49 48 51 -84 -9 1 39 -103 -33 95 16 -18 -46 85 -15 27 rcurveline
          6 6 57 -108 0 -58 45 -102 rlinecurve
          1 -15 -15 0 -16 -29 -30 -1 -30 hhcurveto
          -37 -36 2 8 -32 hvcurveto
          136 344 rmoveto
          2 -32 callgsubr
          50 167 6 72 hhcurveto
          17 13 0 -1 3 hvcurveto
          -1 -2 0 -3 hhcurveto
          -35 -146 -11 -2 -113 hvcurveto
          -106 -420 rmoveto
          -2 22 19 0 18 26 23 1 26 hhcurveto
          12 13 0 -1 14 hvcurveto
          26 -3 1 -4 1 -5 2 -4 rlinecurve
          -57 17 -56 -17 -90 18 rrcurveto
          174 358 rmoveto
          44 -90 20 -91 27 -90 -8 -1 rcurveline
          -29 93 -13 91 -41 88 rrcurveto
          127 -379 rmoveto
          1 hlineto
          17 -48 17 -46 18 -48 -12 -13 rcurveline
          -17 50 -8 55 -16 50 rrcurveto
          -304 263 rmoveto
          16 45 28 42 28 27 5 -7 rcurveline
          -14 -12 -42 -62 -19 -38 rrcurveto
          -61 callgsubr
          -1 1 5 -2 hhcurveto
          92 108 rmoveto
          44 -71 19 -82 25 -79 -31 80 -15 80 -43 72 rrcurveto
          -28 -300 rmoveto
          127 11 rlineto
          1 -2 0 -2 0 vvcurveto
          251 28 rmoveto
          21 21 3 23 hhcurveto
          -2 -18 -16 -3 -14 hhcurveto
          -6 -6 1 1 -5 hvcurveto
          endchar
        </CharString>
        <CharString name="Aacute">
          -107 callgsubr
          -122 140 -107 callsubr
        </CharString>
        <CharString name="Acircumflex">
          -107 callgsubr
          111 215 -106 callsubr
        </CharString>
        <CharString name="Adieresis">
          -107 callgsubr
          168 220 rmoveto
          14 -8 6 -12 3 vhcurveto
          -1 7 6 0 8 hhcurveto
          9 0 11 -27 callgsubr
          -4 -2 -4 -19 -44 20 -9 -12 -2 -5 -11 -7 -7 1 -6 hhcurveto
          -14 -11 -20 callgsubr
          4 -17 8 -8 -61 callsubr
          -1 -1 1 -1 -19 callgsubr
          -8 -8 -32 6 19 13 -17 hvcurveto
          6 hlineto
          25 13 2 24 hhcurveto
          8 9 0 -1 8 hvcurveto
          2 -13 -12 3 -13 hhcurveto
          -7 -6 0 -1 -6 hvcurveto
          8 11 2 6 vhcurveto
          13 14 -7 13 -46 callgsubr
          -53 callgsubr
          4 -10 8 -2 15 -1 8 -3 rlinecurve
          -77 callgsubr
          -20 callsubr
          3 4 -74 callsubr
          -25 18 -27 -2 -26 5 rrcurveto
          6 6 1 6 hhcurveto
          9 37 -6 -8 14 hvcurveto
          3 -2 rlineto
          3 -21 callsubr
          12 vvcurveto
          8 -1 9 -3 7 vhcurveto
          -260 10 rmoveto
          5 1 6 5 vvcurveto
          -15 8 -37 0 -18 11 19 -8 35 -2 17 -4 rrcurveto
          3 -4 callgsubr
          vvcurveto
          8 -2 3 -3 vhcurveto
          -3 -4 -1 -3 -16 -53 17 -5 hhcurveto
          -13 -40 -8 -19 -16 7 -24 9 -9 hvcurveto
          -49 callgsubr
          -4 0 -1 -3 -29 -21 callsubr
          -13 hvcurveto
          4 hlineto
          3 17 36 6 15 hhcurveto
          5 4 -1 -1 4 hvcurveto
          3 -7 -28 2 -7 hhcurveto
          -6 -5 -1 -2 -5 9 callgsubr
          -1 -1 callgsubr
          -57 callsubr
          7 28 -4 6 hhcurveto
          3 -43 callsubr
          hvcurveto
          3 -12 4 -1 1 -1 4 -3 rlinecurve
          2 1 5 6 2 hvcurveto
          -9 18 -37 1 -17 2 rrcurveto
          3 24 2 4 hhcurveto
          11 18 -9 -5 4 -20 callsubr
          2 9 rlineto
          2 10 3 12 12 vvcurveto
          4 0 3 -1 4 vhcurveto
          184 27 rmoveto
          12 -5 9 -4 11 -2 -10 2 -12 2 -10 7 rrcurveto
          29 -102 rmoveto
          -5 hlineto
          endchar
        </CharString>
        <CharString name="Agrave">
          -107 callgsubr
          -116 311 -104 callsubr
        </CharString>
        <CharString name="Aring">
          -107 callgsubr
          220 247 -88 callsubr
          -46 29 -36 hhcurveto
          -26 hlineto
          70 -19 77 -53 -59 callgsubr
          26 23 40 vvcurveto
          86 -82 -96 callsubr
        </CharString>
        <CharString name="Atilde">
          -107 callgsubr
          147 324 -106 callgsubr
        </CharString>
        <CharString name="B">
          13 150 64 rmoveto
          -10 -2 -51 -2 -13 vvcurveto
          -22 49 -22 26 4 2 0 -56 callsubr
          2 -7 -5 -12 rlineto
          -9 56 57 -6 57 hhcurveto
          39 39 3 7 39 hvcurveto
          -8 -41 -42 -6 -42 hhcurveto
          -56 -56 7 9 -56 hvcurveto
          -1 -5 rlineto
          -25 117 -3 21 129 228 9 177 91 -56 73 -140 19 vhcurveto
          82 22 37 79 60 vvcurveto
          150 -118 66 -137 -46 -270 -40 -46 -13 23 -3 27 33 39 5 2 10 vhcurveto
          3 -12 rlineto
          -13 -2 -65 -15 -14 vvcurveto
          -3 7 -14 2 -4 vhcurveto
          -1 -3 66 17 rlineto
          -4 -31 -4 -31 -31 vvcurveto
          -104 11 -101 7 -101 vhcurveto
          70 -5 68 -1 70 vhcurveto
          6 hlineto
          7 -28 2 -28 -28 -26 -1 -25 -25 vvcurveto
          -23 1 -22 4 -22 vhcurveto
          -13 -8 rlineto
          -31 vlineto
          100 474 rmoveto
          24 24 3 24 hhcurveto
          62 72 -16 -76 -78 -94 -54 -69 hvcurveto
          -2 hlineto
          5 -111 30 -6 148 -9 51 -42 rlinecurve
          -35 35 -80 17 -40 3 rrcurveto
          1 5 10 5 3 hhcurveto
          56 103 -30 -72 -32 -25 -18 -26 -13 hvcurveto
          -3 12 rlineto
          -22 -60 -64 -2 -63 hhcurveto
          -21 -22 4 26 hvcurveto
          70 8 71 70 vvcurveto
          37 -12 203 -9 24 vhcurveto
          14 -526 rmoveto
          1 8 rlineto
          -3 31 31 -2 31 hhcurveto
          66 140 11 90 13 -5 13 -7 11 hvcurveto
          9 -13 6 -15 -16 vvcurveto
          -87 -175 -14 -63 -22 -21 2 2 -22 vhcurveto
          -90 16 rmoveto
          -7 2 rlineto
          5 36 1 36 37 36 -1 37 36 vvcurveto
          2 -26 2 -26 -26 vvcurveto
          -47 0 -48 -2 -47 vhcurveto
          189 286 rmoveto
          -17 2 29 12 27 18 21 23 rlinecurve
          -3 3 17 callsubr
          -18 -21 -23 -16 -24 -14 rrcurveto
          52 -93 rmoveto
          1 hlineto
          40 49 -24 -28 32 hvcurveto
          -32 27 -50 19 -40 6 rrcurveto
          185 -203 rmoveto
          29 33 6 37 42 vvcurveto
          1 -7 0 16 callgsubr
          -31 -13 -38 -23 -21 vhcurveto
          -422 498 rmoveto
          2 1 3 2 10 callsubr
          2 vvcurveto
          16 2 -7 -16 rlineto
          64 -293 rmoveto
          -1 -26 -4 -25 -1 -24 rrcurveto
          25 1 25 5 25 vhcurveto
          348 -206 rmoveto
          -24 -28 -32 -14 -34 -12 33 13 32 15 25 26 rrcurveto
          -356 22 rmoveto
          10 1 10 1 10 vhcurveto
          -30 vlineto
          297 78 rmoveto
          12 -6 11 -10 8 vhcurveto
          9 -9 6 -12 1 -13 rrcurveto
          -301 -92 rmoveto
          4 -7 -4 hlineto
          327 226 rmoveto
          14 -8 10 -11 9 -13 -10 12 -11 10 -12 10 rrcurveto
          -67 -181 rmoveto
          8 3 8 5 6 6 rrcurveto
          16 30 rmoveto
          -2 -3 -3 -5 -3 vvcurveto
          -42 callgsubr
          1 vhcurveto
          7 18 rmoveto
          1 vlineto
          -2 -4 rlineto
          -24 callsubr
          vvcurveto
          endchar
        </CharString>
        <CharString name="C">
          -88 callgsubr
          -382 201 -31 callgsubr
        </CharString>
        <CharString name="CR">
          -325 endchar
        </CharString>
        <CharString name="Ccedilla">
          -88 callgsubr
          -82 -206 -83 callsubr
          -300 407 -31 callgsubr
        </CharString>
        <CharString name="D">
          20 187 -76 callsubr
          -87 22 -92 -90 -90 -4 -91 -91 -62 callsubr
          rrcurveto
          6 108 12 105 109 vvcurveto
          82 -6 82 -7 82 vhcurveto
          -82 callgsubr
          10 -1 8 -1 9 vhcurveto
          1 -7 0 -7 -8 vvcurveto
          -15 0 -14 -2 -15 vhcurveto
          2 13 1 13 13 vvcurveto
          -428 432 rmoveto
          1 1 rlineto
          -30 callgsubr
          hvcurveto
          endchar
        </CharString>
        <CharString name="E">
          -104 callgsubr
          endchar
        </CharString>
        <CharString name="Eacute">
          -104 callgsubr
          29 778 -107 callsubr
        </CharString>
        <CharString name="Ecircumflex">
          -104 callgsubr
          232 843 -106 callsubr
        </CharString>
        <CharString name="Edieresis">
          -104 callgsubr
          299 868 rmoveto
          14 -8 6 -12 3 vhcurveto
          -1 7 6 0 8 hhcurveto
          9 0 11 -27 callgsubr
          -4 -2 -4 -19 -44 20 -9 -12 -2 -5 -11 -7 -7 1 -6 hhcurveto
          -14 -11 -20 callgsubr
          4 -17 8 -8 -61 callsubr
          -1 -1 1 -1 -19 callgsubr
          -8 -8 -32 6 19 13 -17 hvcurveto
          6 hlineto
          25 13 2 24 hhcurveto
          8 9 0 -1 8 hvcurveto
          2 -13 -12 3 -13 hhcurveto
          -7 -6 0 -1 -6 hvcurveto
          8 11 2 6 vhcurveto
          13 14 -7 13 -46 callgsubr
          -53 callgsubr
          4 -10 8 -2 15 -1 8 -3 rlinecurve
          -77 callgsubr
          -20 callsubr
          3 4 -74 callsubr
          -25 18 -27 -2 -26 5 rrcurveto
          6 6 1 6 hhcurveto
          9 37 -6 -8 14 hvcurveto
          3 -2 rlineto
          3 -21 callsubr
          12 vvcurveto
          8 -1 9 -3 7 vhcurveto
          -260 10 rmoveto
          5 1 6 5 vvcurveto
          -15 8 -37 0 -18 11 19 -8 35 -2 17 -4 rrcurveto
          3 -4 callgsubr
          vvcurveto
          8 -2 3 -3 vhcurveto
          -3 -4 -1 -3 -16 -53 17 -5 hhcurveto
          -13 -40 -8 -19 -16 7 -24 9 -9 hvcurveto
          -49 callgsubr
          -4 0 -1 -3 -29 -21 callsubr
          -13 hvcurveto
          4 hlineto
          3 17 36 6 15 hhcurveto
          5 4 -1 -1 4 hvcurveto
          3 -7 -28 2 -7 hhcurveto
          -6 -5 -1 -2 -5 9 callgsubr
          -1 -1 callgsubr
          -57 callsubr
          7 28 -4 6 hhcurveto
          3 -43 callsubr
          hvcurveto
          3 -12 4 -1 1 -1 4 -3 rlinecurve
          2 1 5 6 2 hvcurveto
          -9 18 -37 1 -17 2 rrcurveto
          3 24 2 4 hhcurveto
          11 18 -9 -5 4 -20 callsubr
          2 9 rlineto
          2 10 3 12 12 vvcurveto
          4 0 3 -1 4 vhcurveto
          184 27 rmoveto
          12 -5 9 -4 11 -2 -10 2 -12 2 -10 7 rrcurveto
          29 -102 rmoveto
          -5 hlineto
          endchar
        </CharString>
        <CharString name="Egrave">
          -104 callgsubr
          -5 949 -104 callsubr
        </CharString>
        <CharString name="Eth">
          31 198 -76 callsubr
          -81 19 -86 3 -84 vhcurveto
          -38 hlineto
          -19 -26 -4 -25 -15 9 -15 13 -8 hvcurveto
          -6 -10 rlineto
          -5 -1 -4 -6 -5 vvcurveto
          -34 15 13 21 -14 vhcurveto
          39 hlineto
          -1 -55 -2 -56 -55 -62 callsubr
          4 78 8 77 4 78 rrcurveto
          1 23 23 0 22 hhcurveto
          14 15 -1 -1 14 hvcurveto
          3 -36 -38 1 -37 hhcurveto
          9 vlineto
          -2 31 31 -4 30 hhcurveto
          14 13 1 2 13 hvcurveto
          7 -11 13 -1 14 -2 13 -2 rlinecurve
          6 3 6 3 5 5 -51 20 -78 -4 -55 6 69 1 rcurveline
          23 78 -5 -11 18 hvcurveto
          6 9 4 11 11 vvcurveto
          8 -3 8 -5 6 vhcurveto
          -9 2 1 16 -37 6 -77 -10 -37 17 rlinecurve
          -6 25 45 -1 37 17 15 0 12 hhcurveto
          17 -8 3 -9 vhcurveto
          -9 -9 -2 -7 -36 -50 19 -44 hhcurveto
          -20 hlineto
          -2 70 -5 70 -6 70 rrcurveto
          -82 callgsubr
          7 -1 6 6 vvcurveto
          -14 vlineto
          -14 0 -14 -2 -14 vhcurveto
          2 12 1 13 12 vvcurveto
          -2 27 rmoveto
          -2 1 -2 -2 2 -22 callgsubr
          -426 405 rmoveto
          1 1 rlineto
          -30 callgsubr
          hvcurveto
          214 -450 rmoveto
          -6 hlineto
          endchar
        </CharString>
        <CharString name="Euro">
          -7 192 218 rmoveto
          18 -7 13 -113 118 -41 6 -15 rcurveline
          -15 37 39 -7 40 hhcurveto
          44 44 10 19 40 hvcurveto
          14 36 rlineto
          -1 -40 callsubr
          6 2 6 1 6 vhcurveto
          -16 -22 rlineto
          -29 vlineto
          -9 -42 -42 -9 -43 hhcurveto
          -23 -23 2 5 -22 hvcurveto
          -4 19 19 0 20 hhcurveto
          44 44 11 11 42 hvcurveto
          40 26 9 30 vvcurveto
          20 -7 6 -19 10 vhcurveto
          -23 -2 -51 -4 -12 hvcurveto
          -12 8 -10 -16 8 2 -20 -21 5 13 -17 -3 3 4 14 3 7 10 6 12 rlinecurve
          -7 4 rlineto
          -10 -23 -26 -8 -26 hhcurveto
          -52 -50 41 44 -25 hvcurveto
          26 hlineto
          24 26 -5 24 hhcurveto
          17 38 5 19 18 -14 17 -16 6 hvcurveto
          1 11 8 -1 rlineto
          12 1 12 12 15 -119 5 -61 1 hvcurveto
          1 43 150 -6 rlineto
          -47 7 -103 -2 12 vvcurveto
          2 vlineto
          -1 43 41 -10 42 hhcurveto
          9 9 1 1 9 hvcurveto
          14 -13 rlineto
          -1 25 9 -4 25 hhcurveto
          10 9 5 6 8 hvcurveto
          -75 20 -78 0 -76 8 58 -2 128 -2 50 -17 rrcurveto
          8 8 8 11 12 vvcurveto
          -26 14 1 16 -66 7 -67 2 -64 16 rlinecurve
          65 -13 67 -4 66 -2 rrcurveto
          17 -11 3 -15 vhcurveto
          -9 -9 -1 -7 hhcurveto
          -56 -57 10 11 -55 hvcurveto
          55 31 24 30 65 hhcurveto
          24 58 -15 -25 19 hvcurveto
          13 6 18 10 17 -8 16 -13 11 hvcurveto
          6 9 10 -8 26 -31 10 -2 rlinecurve
          3 4 9 9 7 2 1 -1 1 hhcurveto
          70 -33 -78 32 -74 hhcurveto
          -131 -66 -86 -110 -49 hvcurveto
          -27 -27 3 -27 hhcurveto
          -19 -44 -1 -27 -19 20 -13 15 -6 -61 callsubr
          -9 1 rlineto
          -8 -7 -4 -9 -33 34 18 21 -10 hvcurveto
          37 1 rlineto
          16 4 -20 -14 hvcurveto
          -7 vlineto
          -13 -13 0 -3 -13 hvcurveto
          11 vlineto
          -66 3 rlineto
          -9 -9 -7 -6 -5 hvcurveto
          43 -9 44 -2 43 -5 rrcurveto
          -45 -46 1 8 -45 hvcurveto
          -6 -9 -6 -10 -11 vvcurveto
          -10 5 -9 8 -6 vhcurveto
          12 1 1 -16 38 -4 41 1 40 -7 rlinecurve
          4 -29 -29 1 -28 hhcurveto
          -11 -11 -2 -3 -11 hvcurveto
          -11 11 -3 12 vhcurveto
          10 11 2 5 hhcurveto
          31 31 -6 -3 31 hvcurveto
          28 -66 32 -55 61 -37 -55 36 -43 57 -19 65 rrcurveto
          22 -2 rmoveto
          34 -53 33 -59 56 -33 -58 31 -40 54 -25 60 rrcurveto
          134 98 rmoveto
          -6 vlineto
          -58 3 -1 8 rlineto
          -61 219 rmoveto
          -6 -1 -27 -53 -8 hhcurveto
          32 61 rlineto
          -53 -182 rmoveto
          5 -2 3 -20 -9 vvcurveto
          -5 2 -3 21 8 vvcurveto
          186 -218 rmoveto
          -26 14 -19 24 -12 26 15 -25 17 -23 25 -16 rrcurveto
          endchar
        </CharString>
        <CharString name="F">
          -159 121 753 rmoveto
          -7 -4 -6 -7 vvcurveto
          -14 6 -14 13 -7 vhcurveto
          9 3 1 -3 -18 -6 -10 -26 -3 -17 rlinecurve
          -13 hlineto
          9 0 21 -14 vhcurveto
          -25 -2 rlineto
          -27 -3 -22 -25 vvcurveto
          -8 0 -9 3 -7 vhcurveto
          10 -134 20 -133 3 -134 rrcurveto
          83 -5 83 -10 82 vhcurveto
          6 3 21 -88 -15 -91 16 -88 rlinecurve
          -13 hlineto
          -31 -3 -32 -31 vvcurveto
          -12 5 -12 8 -10 vhcurveto
          8 45 2 45 46 vvcurveto
          54 -3 55 -1 55 vhcurveto
          5 -36 5 -36 -36 -58 -8 -60 -57 vvcurveto
          -19 4 -28 27 11 9 9 9 5 vhcurveto
          18 vlineto
          15 -3 rlineto
          2 30 0 29 30 vvcurveto
          59 vlineto
          39 0 39 4 40 vhcurveto
          -266 vlineto
          17 3 17 19 hvcurveto
          15 -2 16 9 61 6 63 61 vvcurveto
          23 -1 22 -2 22 vhcurveto
          1 5 6 1 5 50 49 -15 58 hhcurveto
          41 56 4 27 16 -9 17 -13 10 -4 callsubr
          6 25 -23 12 -22 hvcurveto
          -55 -55 -6 -55 hhcurveto
          -1 12 13 -1 13 hhcurveto
          20 20 1 1 20 hvcurveto
          -7 vlineto
          -3 -10 -11 -1 -10 -24 -19 6 -21 hhcurveto
          -10 -10 -2 -3 -11 hvcurveto
          10 -40 vlineto
          4 -16 169 -3 14 vhcurveto
          19 5 rlineto
          -15 87 93 -9 83 hhcurveto
          18 28 2 24 16 -11 16 -13 9 -4 callsubr
          8 hvcurveto
          23 vlineto
          -19 -13 12 -20 hhcurveto
          -71 -74 11 2 -72 hvcurveto
          -3 46 46 -7 46 hhcurveto
          -2 -6 rlineto
          -2 -9 -8 0 -8 -34 -32 7 -32 hhcurveto
          -10 -11 0 -2 -10 hvcurveto
          -4 10 -25 1 rlineto
          -2 -1 -29 callgsubr
          -19 -22 -6 -17 -11 hvcurveto
          1 24 23 1 24 hhcurveto
          39 39 -2 -6 38 hvcurveto
          3 -33 -33 4 -33 -30 -31 -7 -30 hhcurveto
          80 -294 rmoveto
          38 -5 40 4 38 -5 -40 -1 rcurveline
          -9 hlineto
          -22 -22 3 -23 hhcurveto
          -32 233 rmoveto
          1 9 28 0 10 hhcurveto
          -9 -1 -27 -2 -8 -2 rrcurveto
          68 -298 rmoveto
          3 hlineto
          14 13 -3 -3 14 hvcurveto
          -15 3 -14 0 -15 3 rrcurveto
          endchar
        </CharString>
        <CharString name="G">
          66 602 -35 rmoveto
          10 9 6 9 5 hvcurveto
          15 vlineto
          2 -62 callgsubr
          4 -41 callgsubr
          hhcurveto
          9 69 -5 -72 rlineto
          21 2 18 17 hvcurveto
          80 20 79 80 vvcurveto
          121 -63 64 -121 -23 -81 -2 -33 -22 25 -12 18 -5 vhcurveto
          -12 vlineto
          -12 1 rlineto
          -14 -3 -11 -11 hvcurveto
          -5 1 -6 -4 vvcurveto
          27 1 rlineto
          2 1 0 2 32 33 -8 32 hhcurveto
          14 9 -106 -19 -22 -1 -22 -2 -22 hvcurveto
          4 27 2 28 28 vvcurveto
          34 -3 36 -13 31 vhcurveto
          6 3 rlineto
          16 -16 1 -31 -24 -5 0 -5 -4 -42 -6 -41 -42 vvcurveto
          -20 -8 -4 2 -12 -3 -10 12 rcurveline
          -3 -15 -16 -1 -15 hhcurveto
          -32 -32 5 9 -30 hvcurveto
          -7 28 28 -4 29 hhcurveto
          19 20 4 3 19 hvcurveto
          11 -1 -18 2 -19 -13 -13 -1 -5 hhcurveto
          -139 -158 121 146 143 132 81 144 hvcurveto
          40 40 -18 40 hhcurveto
          12 16 1 16 22 -52 27 -18 6 hvcurveto
          3 13 rlineto
          -6 15 17 -7 17 hhcurveto
          21 -12 19 9 12 hvcurveto
          18 -55 -56 20 -59 hhcurveto
          -186 -196 -142 -198 -113 73 -130 97 -58 hvcurveto
          -98 64 -68 127 117 vvcurveto
          59 21 58 32 49 vhcurveto
          6 -3 rlineto
          -33 -49 -17 -60 -59 vvcurveto
          -139 94 -134 127 -54 vhcurveto
          5 -13 rlineto
          -28 64 62 -21 71 hhcurveto
          28 26 9 12 25 hvcurveto
          -49 callsubr
          -4 -2 vvcurveto
          -12 5 -12 7 -10 vhcurveto
          12 57 4 3 rlineto
          -3 -21 -7 -21 -22 vvcurveto
          -13 20 -10 11 vhcurveto
          -45 79 rmoveto
          -12 -9 -13 -1 -13 -39 callgsubr
          -203 -214 114 217 -30 hvcurveto
          -195 28 201 -130 188 hhcurveto
          24 23 6 1 24 hvcurveto
          -376 214 rmoveto
          17 -32 60 -43 24 -19 rrcurveto
          -21 11 -80 55 26 0 -71 callsubr
          404 -152 rmoveto
          6 47 1 48 48 vvcurveto
          4 -18 1 -18 -18 vvcurveto
          -30 -7 -29 -3 -30 vhcurveto
          85 118 rmoveto
          -3 -39 -5 -39 -6 -38 5 39 -7 37 16 40 rrcurveto
          endchar
        </CharString>
        <CharString name="H">
          16 554 -45 rmoveto
          20 6 7 20 3 19 9 -2 rcurveline
          -2 27 -1 27 26 vvcurveto
          1 -27 3 -27 5 -26 rrcurveto
          11 3 15 18 hvcurveto
          24 -5 29 9 128 22 129 129 vvcurveto
          125 vlineto
          11 1 13 13 vvcurveto
          36 -6 36 -45 -6 -17 -29 -7 -7 vhcurveto
          6 -5 27 -10 vhcurveto
          -25 -2 1 -21 rlineto
          -76 -8 -78 -77 vvcurveto
          -70 -3 -72 -9 -69 -2 rrcurveto
          46 44 0 6 47 hvcurveto
          -6 vlineto
          -7 -25 -25 -2 -25 -15 -16 1 -15 hhcurveto
          -18 -18 -1 -3 -18 hvcurveto
          -8 12 rlineto
          -53 hlineto
          -1 19 -1 24 26 20 1 22 22 vvcurveto
          84 -3 83 -26 -21 -14 -33 -16 -5 vhcurveto
          -13 hlineto
          2 17 rlineto
          18 -22 0 -13 1 vhcurveto
          -6 -56 -5 -40 -6 -64 rrcurveto
          -133 11 -134 -133 41 0 42 42 vvcurveto
          53 0 54 -3 53 vhcurveto
          6 hlineto
          5 -31 1 -32 -31 -44 -3 -44 -43 vvcurveto
          -22 1 -22 2 -22 vhcurveto
          -8 -5 rlineto
          -33 -4 -33 -33 vvcurveto
          -13 2 -13 10 -10 vhcurveto
          5 33 rlineto
          -17 vlineto
          -37 10 -4 23 -10 vhcurveto
          15 4 9 11 15 vvcurveto
          -32 callgsubr
          -1 3 vhcurveto
          1 2 4 0 3 hhcurveto
          3 3 0 -1 3 hvcurveto
          35 2 34 2 35 vhcurveto
          -1 -104 7 -2 rlineto
          11 4 3 15 17 18 -3 19 10 73 11 73 74 vvcurveto
          -2 67 68 -4 68 36 34 10 36 hhcurveto
          -5 -157 10 157 rlineto
          8 hlineto
          -4 -46 -5 -45 -46 vvcurveto
          -19 1 -20 2 -19 vhcurveto
          -11 -5 -2 -50 rlineto
          -32 1 -36 18 -27 vhcurveto
          6 114 -3 115 10 114 rrcurveto
          -72 -7 -72 -72 -46 3 -47 -46 vvcurveto
          6 -10 15 -6 11 -3 rrcurveto
          -461 256 rmoveto
          46 -1 47 46 vvcurveto
          2 -34 2 -34 -34 vvcurveto
          -24 -1 -25 -2 -24 vhcurveto
          101 249 rmoveto
          10 -2 56 -4 2 -1 rrcurveto
          -68 hlineto
          112 -1 rmoveto
          -14 -14 0 2 -14 hvcurveto
          28 27 2 28 hhcurveto
          20 hlineto
          -2 -20 -21 -2 -20 hhcurveto
          296 -130 rmoveto
          -6 -47 -3 -48 -3 -47 rrcurveto
          48 3 47 9 47 vhcurveto
          -409 61 rmoveto
          1 3 rlineto
          20 20 -1 -2 20 hvcurveto
          endchar
        </CharString>
        <CharString name="I">
          -402 71 52 -101 callsubr
          endchar
        </CharString>
        <CharString name="IJ">
          171 79 52 -101 callsubr
          111 -344 -92 callgsubr
          endchar
        </CharString>
        <CharString name="Iacute">
          -402 71 22 -101 callsubr
          -131 446 -107 callsubr
        </CharString>
        <CharString name="Icircumflex">
          -97 callsubr
          72 500 -106 callsubr
        </CharString>
        <CharString name="Idieresis">
          -97 callsubr
          139 545 rmoveto
          14 -8 6 -12 3 vhcurveto
          -1 7 6 0 8 hhcurveto
          9 0 11 -27 callgsubr
          -4 -2 -4 -19 -44 20 -9 -12 -2 -5 -11 -7 -7 1 -6 hhcurveto
          -14 -11 -20 callgsubr
          4 -17 8 -8 -61 callsubr
          -1 -1 1 -1 -19 callgsubr
          -8 -8 -32 6 19 13 -17 hvcurveto
          6 hlineto
          25 13 2 24 hhcurveto
          8 9 0 -1 8 hvcurveto
          2 -13 -12 3 -13 hhcurveto
          -7 -6 0 -1 -6 hvcurveto
          8 11 2 6 vhcurveto
          13 14 -7 13 -46 callgsubr
          -53 callgsubr
          4 -10 8 -2 15 -1 8 -3 rlinecurve
          -77 callgsubr
          -20 callsubr
          3 4 -74 callsubr
          -25 18 -27 -2 -26 5 rrcurveto
          6 6 1 6 hhcurveto
          9 37 -6 -8 14 hvcurveto
          3 -2 rlineto
          3 -21 callsubr
          12 vvcurveto
          8 -1 9 -3 7 vhcurveto
          -260 10 rmoveto
          5 1 6 5 vvcurveto
          -15 8 -37 0 -18 11 19 -8 35 -2 17 -4 rrcurveto
          3 -4 callgsubr
          vvcurveto
          8 -2 3 -3 vhcurveto
          -3 -4 -1 -3 -16 -53 17 -5 hhcurveto
          -13 -40 -8 -19 -16 7 -24 9 -9 hvcurveto
          -49 callgsubr
          -4 0 -1 -3 -29 -21 callsubr
          -13 hvcurveto
          4 hlineto
          3 17 36 6 15 hhcurveto
          5 4 -1 -1 4 hvcurveto
          3 -7 -28 2 -7 hhcurveto
          -6 -5 -1 -2 -5 9 callgsubr
          -1 -1 callgsubr
          -57 callsubr
          7 28 -4 6 hhcurveto
          3 -43 callsubr
          hvcurveto
          3 -12 4 -1 1 -1 4 -3 rlinecurve
          2 1 5 6 2 hvcurveto
          -9 18 -37 1 -17 2 rrcurveto
          3 24 2 4 hhcurveto
          11 18 -9 -5 4 -20 callsubr
          2 9 rlineto
          2 10 3 12 12 vvcurveto
          4 0 3 -1 4 vhcurveto
          184 27 rmoveto
          12 -5 9 -4 11 -2 -10 2 -12 2 -10 7 rrcurveto
          29 -102 rmoveto
          -5 hlineto
          endchar
        </CharString>
        <CharString name="Igrave">
          -97 callsubr
          -165 626 -104 callsubr
        </CharString>
        <CharString name="Itilde">
          -97 callsubr
          128 609 -106 callgsubr
        </CharString>
        <CharString name="J">
          -212 11 5 -92 callgsubr
          endchar
        </CharString>
        <CharString name="Jcircumflex">
          -212 11 5 -92 callgsubr
          327 834 -106 callsubr
        </CharString>
        <CharString name="K">
          2 203 275 rmoveto
          1 8 18 -57 rlineto
          110 79 -25 -85 74 hvcurveto
          -9 -7 37 -56 12 -70 40 -54 rlinecurve
          -17 79 -21 67 -37 52 45 -58 28 -75 14 -77 rrcurveto
          -11 9 14 -13 15 hhcurveto
          16 1 22 11 5 -7 19 -2 6 hvcurveto
          15 3 -18 66 -22 65 -36 59 rlinecurve
          38 -58 23 -66 22 -66 rrcurveto
          8 2 4 10 7 vvcurveto
          26 -40 75 -12 27 vhcurveto
          -49 113 -89 91 -136 21 rrcurveto
          226 200 74 31 64 vvcurveto
          8 -4 4 -8 -21 -35 -26 -13 -16 vhcurveto
          -9 6 11 11 11 13 6 14 rlinecurve
          -22 23 -26 -32 -28 -19 -32 -25 rlinecurve
          -84 -67 -92 -86 -70 -81 rrcurveto
          51 vlineto
          39 -1 247 -42 -22 -11 -41 -16 -2 vhcurveto
          -13 4 hlineto
          10 -1 19 -13 vhcurveto
          -5 -8 -3 -9 hhcurveto
          1 -7 0 -8 -7 -30 -9 -27 -31 -41 7 -43 -41 vvcurveto
          -100 -4 -101 -8 -100 vhcurveto
          11 87 5 87 87 vvcurveto
          6 hlineto
          1 -14 1 -15 -15 -72 -16 -73 -72 vvcurveto
          -13 1 -13 1 -13 vhcurveto
          -13 hlineto
          -9 -110 rlineto
          -12 2 -17 7 -11 vhcurveto
          3 22 4 21 4 21 rrcurveto
          -1 -19 -1 -19 -18 vvcurveto
          -16 7 -27 23 12 9 11 9 5 vhcurveto
          18 vlineto
          9 2 9 -2 5 81 -1 -27 1 -27 -2 -27 rlinecurve
          -72 callgsubr
          13 2 20 20 hvcurveto
          15 -1 15 6 vvcurveto
          51 19 141 7 57 vhcurveto
          7 -17 3 -26 8 -15 5 1 rcurveline
          7 7 1 7 hhcurveto
          87 74 -15 -69 55 hvcurveto
          76 -59 -88 13 -92 hhcurveto
          -7 12 -6 34 -6 13 rrcurveto
          8 62 rmoveto
          1 15 67 70 3 -4 rlineto
          69 -113 rmoveto
          86 -21 80 -58 45 -77 -50 74 -74 58 -87 24 rrcurveto
          -71 -67 rmoveto
          51 -2 45 -14 37 -25 -35 21 -44 13 -54 7 rrcurveto
          -174 46 rmoveto
          -36 -4 -43 -6 -45 vhcurveto
          4 42 2 40 4 42 rrcurveto
          77 -46 rmoveto
          -8 -43 -4 -44 -6 -43 3 44 5 43 10 43 rrcurveto
          endchar
        </CharString>
        <CharString name="L">
          -92 callsubr
          endchar
        </CharString>
        <CharString name="Ldotaccent">
          -92 callsubr
          233 337 -85 callgsubr
        </CharString>
        <CharString name="Lslash">
          -53 66 347 rmoveto
          -75 callsubr
          12 7 22 15 3 -74 4 -74 5 -74 rlinecurve
          -25 callgsubr
          76 -5 78 -3 77 7 5 rcurveline
          5 -80 4 -80 -80 -89 callgsubr
          vvcurveto
          70 -1 71 -1 70 vhcurveto
          35 29 39 33 17 11 -18 -10 -37 -27 -36 -26 rrcurveto
          3 vlineto
          34 26 39 30 16 11 -41 callsubr
          -43 -11 -74 -56 -55 -40 rrcurveto
          5 vlineto
          52 39 77 57 38 14 -60 callgsubr
          -30 -14 -54 -42 -47 -33 rrcurveto
          4 vlineto
          47 33 52 40 30 16 rrcurveto
          -38 callsubr
          -110 -70 rcurveline
          125 vlineto
          -79 callgsubr
          -43 -2 -43 1 -43 rrcurveto
          -28 0 -29 -28 vvcurveto
          254 -404 -90 callsubr
          endchar
        </CharString>
        <CharString name="M">
          223 435 338 rmoveto
          69 91 194 57 22 hvcurveto
          4 9 4 -9 -50 -129 -18 -63 -114 -66 rlinecurve
          -8 -2 -26 16 -27 14 -27 15 rlinecurve
          -6 vlineto
          29 -16 29 -15 28 -17 91 27 61 148 30 81 4 10 rcurveline
          25 -51 18 -54 19 -54 -7 -20 rcurveline
          38 -130 5 -127 55 -124 -24 196 -36 204 -85 180 1 5 rcurveline
          76 -159 61 -278 17 -176 rrcurveto
          -12 6 19 -48 16 hhcurveto
          17 0 48 9 16 -5 18 -3 16 hvcurveto
          14 8 -18 124 -25 123 -34 120 rlinecurve
          38 -121 24 -124 21 -125 rrcurveto
          11 1 2 9 4 vvcurveto
          87 -33 90 -17 85 vhcurveto
          -34 166 -55 115 -73 150 -36 -7 -38 -4 -33 -10 -32 -80 -30 -113 -49 -71 -38 95 -51 77 -72 58 -33 -13 -45 -11 -23 -17 -8 -80 -13 -100 -25 -76 rrcurveto
          -27 -84 -83 -184 -78 vvcurveto
          -7 3 -10 6 -4 vhcurveto
          19 1 58 110 9 17 9 -3 rcurveline
          -8 -19 -20 -45 -21 vvcurveto
          -5 4 -6 5 -1 vhcurveto
          11 2 8 -6 25 73 44 64 26 71 rlinecurve
          31 84 19 91 13 89 22 -47 22 -59 24 -47 rrcurveto
          -6 vlineto
          9 -4 -5 6 rlineto
          37 -24 31 -17 41 vhcurveto
          7 -4 rlineto
          16 -31 26 -43 -33 vvcurveto
          2 -3 rlineto
          341 240 rmoveto
          -22 46 -11 31 8 -14 22 -45 6 -16 rlinecurve
          -104 -10 rmoveto
          -10 -28 -12 -28 -13 -28 34 90 rcurveline
          -20 92 rmoveto
          12 -32 -5 -1 -13 33 rlineto
          -384 -52 rmoveto
          -11 -59 2 23 1 7 1 27 rlinecurve
          364 41 rmoveto
          4 hlineto
          -26 -62 rlineto
          120 95 rmoveto
          -2 11 23 -38 rlineto
          -40 -80 rmoveto
          -1 -5 -4 8 2 4 rlineto
          endchar
        </CharString>
        <CharString name="N">
          -95 callgsubr
          endchar
        </CharString>
        <CharString name="Nacute">
          -95 callgsubr
          -196 688 -107 callsubr
        </CharString>
        <CharString name="Ntilde">
          -95 callgsubr
          42 812 -106 callgsubr
        </CharString>
        <CharString name="O">
          -102 callsubr
          endchar
        </CharString>
        <CharString name="OE">
          281 856 358 rmoveto
          -1 3 -1 2 -7 callgsubr
          1 -68 callsubr
          -45 7 -47 1 -44 10 45 -10 46 -1 46 -2 rrcurveto
          17 -8 3 -12 vhcurveto
          -7 -8 -1 -6 -74 -43 19 -81 hhcurveto
          -19 -8 4 16 -3 hvcurveto
          1 -17 -8 -1 -4 39 10 1 -5 54 -13 53 -24 48 rlinecurve
          32 37 0 37 hhcurveto
          37 37 0 -2 33 hvcurveto
          -50 6 -70 2 -50 4 rrcurveto
          3 12 33 1 12 31 30 -7 31 hhcurveto
          7 8 1 1 8 hvcurveto
          7 -11 rlineto
          -1 18 13 -4 18 14 callsubr
          15 callsubr
          hvcurveto
          -56 19 -59 -2 -58 6 rrcurveto
          61 57 -5 -11 60 hvcurveto
          -26 callsubr
          8 -6 6 11 callsubr
          -66 callgsubr
          -50 6 -51 0 -48 14 50 -9 50 -4 50 -2 rrcurveto
          16 -6 4 -12 vhcurveto
          -7 -9 -2 -7 -50 -57 21 -55 hhcurveto
          -25 -155 0 -16 -8 hvcurveto
          -25 12 -26 7 -28 2 22 -7 44 -14 9 -24 -30 22 -36 13 -36 9 rrcurveto
          -13 -2 -45 -7 -19 vvcurveto
          -18 69 -13 12 -3 vhcurveto
          -6 -15 rlineto
          111 -39 33 -118 -107 vvcurveto
          -85 -10 -71 -47 -69 vhcurveto
          44 65 12 89 77 vvcurveto
          106 -35 113 -112 34 vhcurveto
          -3 -6 rlineto
          -4 1 -4 4 -3 vhcurveto
          42 -27 14 4 34 -50 rrcurveto
          29 -43 5 -55 -50 vvcurveto
          -47 -3 -259 -152 -36 -29 21 23 -27 vhcurveto
          -49 42 -17 120 61 vvcurveto
          64 10 59 43 50 vhcurveto
          9 12 17 7 9 12 8 11 rcurveline
          16 -1 -28 7 -12 hhcurveto
          -22 -22 -9 -15 -16 hvcurveto
          -8 7 rlineto
          10 11 60 38 3 vvcurveto
          6 -5 7 -2 10 vhcurveto
          -129 -25 -44 -155 -114 vvcurveto
          -166 75 -228 201 49 47 18 29 39 vhcurveto
          12 -2 11 -3 11 -6 rrcurveto
          102 75 -5 -5 102 hvcurveto
          5 -62 -34 7 -62 hhcurveto
          5 vlineto
          2 11 -8 1 11 43 42 -11 43 hhcurveto
          8 8 0 1 8 hvcurveto
          7 -10 rlineto
          -2 21 14 -6 22 12 callgsubr
          4 5 5 hvcurveto
          -49 25 -97 -2 -56 7 rrcurveto
          34 152 -2 -22 22 hvcurveto
          11 8 9 15 14 vvcurveto
          10 -9 9 -10 2 vhcurveto
          2 14 -27 7 -25 3 -25 2 rlinecurve
          25 -1 26 -1 28 -5 1 7 rcurveline
          23 -219 17 -88 vhcurveto
          -20 1 23 47 15 50 6 52 rlinecurve
          7 -4 rlineto
          72 18 0 -4 66 hvcurveto
          -115 11 rlineto
          2 10 13 4 10 32 31 -9 32 14 callsubr
          1 1 8 -61 callsubr
          -1 18 19 -5 18 hhcurveto
          8 8 5 6 5 hvcurveto
          -56 19 -59 -1 -58 7 62 -2 55 -6 61 -10 rrcurveto
          -26 callsubr
          9 -6 6 vhcurveto
          -422 -318 rmoveto
          -26 -37 -43 -17 -46 hhcurveto
          -60 -55 28 37 -45 hvcurveto
          2 6 rlineto
          -35 46 55 -27 58 hhcurveto
          42 43 14 25 33 hvcurveto
          92 106 rmoveto
          26 47 14 52 8 53 6 -3 rcurveline
          -4 -26 -24 -121 -26 -2 rrcurveto
          -18 1 rmoveto
          24 49 19 52 5 54 4 -1 rcurveline
          -7 -54 -16 -52 -26 -48 rrcurveto
          4 462 rmoveto
          15 -1 13 -47 9 -47 -8 33 -12 32 -17 30 rrcurveto
          183 -494 rmoveto
          4 -1 70 -8 -1 vvcurveto
          -25 2 -25 2 -24 6 rrcurveto
          -135 222 rmoveto
          -2 1 rlineto
          4 1 24 1 4 vhcurveto
          2 -1 rlineto
          44 vmoveto
          -1 -1 rlineto
          9 vlineto
          -3 1 -21 callgsubr
          185 -126 rmoveto
          -6 hlineto
          endchar
        </CharString>
        <CharString name="Oacute">
          -102 callsubr
          -413 454 -107 callsubr
        </CharString>
        <CharString name="Ocircumflex">
          -102 callsubr
          -200 549 -106 callsubr
        </CharString>
        <CharString name="Odieresis">
          -102 callsubr
          -133 575 rmoveto
          14 -8 6 -12 3 vhcurveto
          -1 7 6 0 8 hhcurveto
          9 0 11 -27 callgsubr
          -4 -2 -4 -19 -44 20 -9 -12 -2 -5 -11 -7 -7 1 -6 hhcurveto
          -14 -11 -20 callgsubr
          4 -17 8 -8 -61 callsubr
          -1 -1 1 -1 -19 callgsubr
          -8 -8 -32 6 19 13 -17 hvcurveto
          6 hlineto
          25 13 2 24 hhcurveto
          8 9 0 -1 8 hvcurveto
          2 -13 -12 3 -13 hhcurveto
          -7 -6 0 -1 -6 hvcurveto
          8 11 2 6 vhcurveto
          13 14 -7 13 -46 callgsubr
          -53 callgsubr
          4 -10 8 -2 15 -1 8 -3 rlinecurve
          -77 callgsubr
          -20 callsubr
          3 4 -74 callsubr
          -25 18 -27 -2 -26 5 rrcurveto
          6 6 1 6 hhcurveto
          9 37 -6 -8 14 hvcurveto
          3 -2 rlineto
          3 -21 callsubr
          12 vvcurveto
          8 -1 9 -3 7 vhcurveto
          -260 10 rmoveto
          5 1 6 5 vvcurveto
          -15 8 -37 0 -18 11 19 -8 35 -2 17 -4 rrcurveto
          3 -4 callgsubr
          vvcurveto
          8 -2 3 -3 vhcurveto
          -3 -4 -1 -3 -16 -53 17 -5 hhcurveto
          -13 -40 -8 -19 -16 7 -24 9 -9 hvcurveto
          -49 callgsubr
          -4 0 -1 -3 -29 -21 callsubr
          -13 hvcurveto
          4 hlineto
          3 17 36 6 15 hhcurveto
          5 4 -1 -1 4 hvcurveto
          3 -7 -28 2 -7 hhcurveto
          -6 -5 -1 -2 -5 9 callgsubr
          -1 -1 callgsubr
          -57 callsubr
          7 28 -4 6 hhcurveto
          3 -43 callsubr
          hvcurveto
          3 -12 4 -1 1 -1 4 -3 rlinecurve
          2 1 5 6 2 hvcurveto
          -9 18 -37 1 -17 2 rrcurveto
          3 24 2 4 hhcurveto
          11 18 -9 -5 4 -20 callsubr
          2 9 rlineto
          2 10 3 12 12 vvcurveto
          4 0 3 -1 4 vhcurveto
          184 27 rmoveto
          12 -5 9 -4 11 -2 -10 2 -12 2 -10 7 rrcurveto
          29 -102 rmoveto
          -5 hlineto
          endchar
        </CharString>
        <CharString name="Ograve">
          -102 callsubr
          -427 655 -104 callsubr
        </CharString>
        <CharString name="Oslash">
          63 706 853 rmoveto
          -18 -34 -46 -13 -9 hvcurveto
          -9 5 rlineto
          6 11 13 20 13 vvcurveto
          14 -17 -7 -7 10 vhcurveto
          -28 -59 -39 -52 -35 -55 rrcurveto
          25 -34 -45 6 -42 hhcurveto
          39 -10 39 -14 34 -22 -3 -5 rcurveline
          -42 25 -48 13 -47 11 rrcurveto
          -12 -2 -49 -9 -18 vvcurveto
          -20 77 -10 13 -2 vhcurveto
          -5 -16 28 -6 25 -11 25 -13 rlinecurve
          -2 -3 -26 12 -26 11 -28 6 rlinecurve
          -25 callsubr
          vvcurveto
          -10 63 -24 9 -5 vhcurveto
          -88 -138 -90 -137 -82 -142 rrcurveto
          -38 38 -9 89 52 vvcurveto
          95 30 96 105 21 vhcurveto
          29 -11 -17 2 -30 hhcurveto
          -21 -20 -7 -11 -18 hvcurveto
          -7 9 rlineto
          67 32 12 13 13 1 -12 callgsubr
          vvcurveto
          -4 5 rlineto
          -141 -14 -68 -153 -126 vvcurveto
          -108 27 -116 78 -79 vhcurveto
          -28 -48 -36 -57 -57 vvcurveto
          -23 7 -21 10 -20 vhcurveto
          -2 14 -1 13 14 vvcurveto
          29 3 30 13 26 vhcurveto
          18 31 15 28 15 28 1 -2 rcurveline
          -30 -56 -28 -47 -65 vvcurveto
          -27 5 -63 38 12 1 17 11 vhcurveto
          3 0 3 2 vvcurveto
          -8 31 8 3 7 -1 callsubr
          9 -1 10 9 vvcurveto
          9 2 9 3 9 vhcurveto
          -1 -6 0 -5 -5 vvcurveto
          -14 2 -12 3 -15 vhcurveto
          14 -2 61 14 5 hvcurveto
          8 25 17 26 14 22 rrcurveto
          -22 44 49 -13 49 hhcurveto
          207 112 208 185 19 0 20 -2 20 hvcurveto
          1 -13 0 -14 -13 vvcurveto
          -195 -97 -213 -224 -48 -46 15 20 -43 9 callsubr
          -20 42 46 -12 46 hhcurveto
          210 103 198 185 28 -2 28 -6 27 hvcurveto
          11 13 -10 61 -21 47 -38 49 rlinecurve
          29 49 75 113 55 vvcurveto
          9 -2 7 -10 vhcurveto
          -414 -738 rmoveto
          71 143 115 115 71 143 rrcurveto
          19 -43 7 -47 -47 vvcurveto
          -125 -52 -158 -152 -27 -28 6 13 -24 vhcurveto
          115 377 rmoveto
          -2 1 -2 3 vhcurveto
          -61 -108 -75 -99 -61 -107 -3 5 rcurveline
          61 106 69 103 66 104 rrcurveto
          260 -113 rmoveto
          -138 -45 -148 -132 -65 vhcurveto
          128 68 47 151 136 vvcurveto
          80 -24 68 -40 68 vhcurveto
          2 3 rlineto
          47 -64 17 -81 -78 vvcurveto
          -66 -6 rmoveto
          -86 -24 -87 -65 -61 vhcurveto
          60 62 24 88 85 vvcurveto
          27 -3 28 -4 27 vhcurveto
          9 -26 3 -29 -28 vvcurveto
          -376 -213 rmoveto
          -2 2 35 61 36 59 39 58 rlinecurve
          -37 -59 -35 -61 -36 -60 rrcurveto
          49 -37 rmoveto
          26 44 28 42 29 41 rrcurveto
          -189 -314 rmoveto
          32 57 -28 -58 rlineto
          endchar
        </CharString>
        <CharString name="Otilde">
          65 204 -47 -105 callsubr
          -144 618 -106 callgsubr
        </CharString>
        <CharString name="P">
          13 230 201 rmoveto
          -12 18 12 -4 16 hhcurveto
          7 8 1 1 10 hvcurveto
          1 -19 rlineto
          -1 19 20 -1 19 hhcurveto
          83 82 9 70 55 hvcurveto
          -69 -52 -81 -13 -80 hhcurveto
          -23 -23 1 1 -22 hvcurveto
          -3 -7 rlineto
          -16 1 52 -1 9 hhcurveto
          182 118 92 190 225 -184 42 -185 -91 -138 -8 -120 -84 29 -71 8 -80 hvcurveto
          11 -117 -6 -119 12 -117 rrcurveto
          -13 1 7 -84 19 hhcurveto
          24 13 110 15 1 hvcurveto
          10 hlineto
          -4 0 -7 -9 vvcurveto
          -25 1 -38 13 vhcurveto
          22 1 rlineto
          65 3 66 7 65 vhcurveto
          -5 19 0 23 22 7 0 7 7 vvcurveto
          91 375 rmoveto
          123 105 -22 -146 -23 -4 -24 -8 -22 hvcurveto
          -9 3 -42 -104 -101 31 -89 -22 rlinecurve
          -3 29 30 -3 29 hhcurveto
          120 59 56 121 69 -40 85 -78 6 hvcurveto
          80 40 -98 -61 -139 -74 -45 -128 -30 -33 0 9 -29 hvcurveto
          -2 -2 -32 callsubr
          -18 -11 -5 -7 -9 hvcurveto
          -9 125 rlineto
          -5 64 -28 64 66 vvcurveto
          7 23 35 4 24 8 10 0 10 hhcurveto
          59 83 -2 -19 41 hvcurveto
          7 -4 rlineto
          39 -33 16 -42 -50 vvcurveto
          -20 -4 -19 -5 -20 vhcurveto
          7 21 4 20 22 vvcurveto
          150 -119 1 -115 vhcurveto
          -54 callgsubr
          -39 -42 -1 -14 -50 hvcurveto
          5 8 rlineto
          14 42 55 2 45 hhcurveto
          317 -151 rmoveto
          -44 -11 -44 -18 -40 vhcurveto
          17 39 9 42 43 vvcurveto
          52 -14 51 -28 44 vhcurveto
          30 -44 15 -45 -54 vvcurveto
          -168 226 rmoveto
          19 -3 19 -6 17 -9 -18 8 -19 4 -18 6 rrcurveto
          95 -48 rmoveto
          -13 13 -12 7 -15 10 10 -5 25 -14 5 -11 rrcurveto
          endchar
        </CharString>
        <CharString name="Q">
          76 626 -175 rmoveto
          -17 1 13 -21 19 hhcurveto
          9 8 8 8 2 hvcurveto
          15 -9 rlineto
          13 23 4 25 26 -44 callgsubr
          14 vhcurveto
          4 -15 2 -15 -15 vvcurveto
          -26 -5 -26 -13 -22 vhcurveto
          10 -4 rlineto
          19 2 6 46 14 vvcurveto
          113 -67 121 -77 80 vhcurveto
          68 85 56 101 13 109 -23 -114 -45 -87 -72 -91 -6 6 rcurveline
          82 93 62 121 126 vvcurveto
          45 -9 45 -20 40 vhcurveto
          9 6 rlineto
          112 -50 -151 70 -118 hhcurveto
          -25 -24 -4 -7 -24 hvcurveto
          25 1 rlineto
          179 193 -98 -202 -124 -60 -122 -79 -92 hvcurveto
          -2 1 rlineto
          70 85 69 136 112 vvcurveto
          199 -182 97 -179 -39 -72 -23 -50 -5 3 -6 5 -3 vhcurveto
          11 22 48 22 24 hhcurveto
          1 -1 1 0 -3 vvcurveto
          -2 -1 -4 -1 -5 vhcurveto
          88 -4 123 -25 54 -79 rrcurveto
          76 -55 -123 25 -87 hhcurveto
          -25 callsubr
          vvcurveto
          -10 90 -11 16 -3 vhcurveto
          105 -22 66 -49 -114 vvcurveto
          -96 -44 -102 -60 -73 vhcurveto
          13 -12 -24 34 -19 hhcurveto
          -18 -7 -19 -18 -8 2 -8 2 -6 hvcurveto
          -9 -7 -19 18 -27 -18 50 -61 rlineto
          -22 -32 -51 -15 -39 hhcurveto
          -93 -40 69 86 hvcurveto
          127 103 175 81 vvcurveto
          4 -4 5 -7 1 vhcurveto
          -26 -50 -79 -19 -10 hvcurveto
          -12 7 rlineto
          10 17 23 41 20 vvcurveto
          17 -20 -14 -4 13 vhcurveto
          -69 -119 -59 -130 -140 vvcurveto
          -136 88 -154 162 87 55 22 52 61 vhcurveto
          45 -51 51 -67 19 -66 -13 64 -44 60 -42 48 3 6 rcurveline
          56 -46 21 -70 32 -62 -8 -8 rcurveline
          1 -8 0 -2 -8 vvcurveto
          -8 -3 -8 -3 -7 vhcurveto
          7 -15 rlineto
          15 6 4 19 15 vvcurveto
          51 -36 53 -26 42 vhcurveto
          33 -43 32 -57 -56 vvcurveto
          -14 -3 -14 -13 -8 vhcurveto
          -349 189 rmoveto
          18 -1 rlineto
          71 68 35 41 56 hvcurveto
          5 -5 rlineto
          -48 -51 -95 -29 -52 hhcurveto
          -7 -6 0 1 -7 hvcurveto
          357 555 rmoveto
          1 -42 rlineto
          -2 0 -8 callgsubr
          -25 -6 -23 -5 -21 vhcurveto
          7 44 -6 37 9 35 rrcurveto
          25 -527 rmoveto
          16 -32 14 -32 11 -34 -12 33 -16 32 -13 33 rrcurveto
          endchar
        </CharString>
        <CharString name="R">
          -103 callsubr
          endchar
        </CharString>
        <CharString name="Racute">
          -103 callsubr
          83 518 -107 callsubr
        </CharString>
        <CharString name="Rcaron">
          -103 callsubr
          303 626 -97 callgsubr
        </CharString>
        <CharString name="Rcommaaccent">
          -103 callsubr
          241 -365 -94 callgsubr
        </CharString>
        <CharString name="S">
          35 10 67 rmoveto
          -22 52 -5 28 vhcurveto
          6 5 1 3 hhcurveto
          1 -2 1 -2 -4 vvcurveto
          -3 -1 -4 -1 -4 vhcurveto
          -4 61 62 -2 62 13 14 0 13 hhcurveto
          27 28 0 3 28 hvcurveto
          -5 -51 -51 0 -50 hhcurveto
          -54 -54 2 3 -54 hvcurveto
          -1 -5 rlineto
          -17 68 -1 24 vhcurveto
          5 3 0 1 hhcurveto
          91 hlineto
          140 261 8 195 hvcurveto
          269 -503 -40 121 vvcurveto
          68 99 16 50 vhcurveto
          78 75 -51 39 hhcurveto
          7 5 6 7 32 -59 34 -25 10 hvcurveto
          3 9 rlineto
          -4 12 58 -22 11 hhcurveto
          14 -12 19 4 15 hvcurveto
          42 -72 -82 26 -84 hhcurveto
          -114 -147 -51 -136 hvcurveto
          -278 513 64 -150 vvcurveto
          -46 -87 -20 -34 -8 vhcurveto
          30 5 94 22 42 vvcurveto
          113 -271 31 -83 32 vhcurveto
          6 vlineto
          84 -28 275 -34 -115 vvcurveto
          -54 -95 -23 -40 -27 callgsubr
          12 rlineto
          -8 -50 -48 -1 -49 -41 -42 1 -42 hhcurveto
          -25 -25 -4 -6 -24 hvcurveto
          -6 68 69 -6 68 hhcurveto
          64 231 3 95 58 -53 36 -48 21 hvcurveto
          48 -20 57 -32 -59 vvcurveto
          -107 -268 0 -72 -64 -64 6 8 -64 vhcurveto
          -13 -4 -44 -13 -15 vvcurveto
          614 26 rmoveto
          -22 -26 -25 -8 -27 -9 27 10 25 13 22 20 rrcurveto
          endchar
        </CharString>
        <CharString name="T">
          -2 677 632 rmoveto
          8 8 8 12 12 vvcurveto
          13 -11 7 -11 3 vhcurveto
          -18 -3 rlineto
          19 vlineto
          -3 -37 -36 -3 -37 hhcurveto
          37 3 37 3 36 6 rrcurveto
          10 -9 6 -9 vhcurveto
          -24 -23 -10 -24 -120 -121 5 -121 -48 -47 8 -48 hhcurveto
          -14 -45 0 -23 -20 28 -16 16 -6 hvcurveto
          -3 -9 rlineto
          1 -4 17 callgsubr
          hhcurveto
          -24 8 -26 -15 -4 hvcurveto
          86 -10 66 -7 78 -1 rrcurveto
          1 -5 0 -5 -4 -9 -1 -9 -9 vvcurveto
          -117 19 -159 27 -113 vhcurveto
          -35 8 13 -188 41 hhcurveto
          22 12 38 17 2 hvcurveto
          9 hlineto
          -10 2 -20 14 vhcurveto
          9 9 5 9 hhcurveto
          2 8 0 9 8 vvcurveto
          26 -6 27 -2 23 vhcurveto
          -20 143 -36 179 -12 144 6 -91 13 -129 15 -90 -3 -3 rcurveline
          -30 88 8 135 -21 90 12 3 rcurveline
          -2 17 -2 17 -1 17 56 1 55 2 56 3 -167 -1 rcurveline
          -1 9 89 -1 rlineto
          31 31 1 5 30 hvcurveto
          9 -12 43 4 44 -8 38 25 rlinecurve
          1 -21 -20 0 -20 -61 -61 -3 -61 hhcurveto
          -18 -17 1 1 -17 hvcurveto
          101 102 9 102 hhcurveto
          -342 -37 rmoveto
          -77 14 -116 7 -76 vhcurveto
          -11 77 -14 114 -5 78 rrcurveto
          182 102 rmoveto
          -2 -16 -19 -4 -16 hhcurveto
          -22 -17 5 3 -20 hvcurveto
          -2 36 38 0 36 hhcurveto
          -178 -88 rmoveto
          5 -9 -5 hlineto
          endchar
        </CharString>
        <CharString name="Thorn">
          -92 207 600 rmoveto
          1 69 rlineto
          20 0 98 -29 -21 -14 -45 -17 -3 vhcurveto
          -11 7 hlineto
          1 -65 callsubr
          10 -1 20 -12 vhcurveto
          -4 -5 -1 -7 -39 callgsubr
          -68 -12 -134 -9 vhcurveto
          4 -3 3 -7 3 -4 rrcurveto
          1 -115 1 -114 -115 -60 -26 2 -15 vvcurveto
          -12 16 -7 9 -4 vhcurveto
          9 -27 -10 hlineto
          -1 -43 -4 -42 -43 vvcurveto
          -16 4 -16 7 -14 vhcurveto
          10 66 4 67 2 67 rrcurveto
          2 hlineto
          -4 -71 -2 -71 -5 -71 rrcurveto
          -11 6 10 -16 15 hhcurveto
          12 8 12 10 4 hvcurveto
          24 vlineto
          16 -1 4 51 1 52 3 51 rlinecurve
          -17 0 -18 -17 vvcurveto
          -34 0 -34 -3 -35 vhcurveto
          5 -1 rlineto
          12 3 25 24 hvcurveto
          21 -2 20 6 vvcurveto
          20 3 21 2 20 vhcurveto
          183 16 174 9 238 vvcurveto
          208 -122 62 -174 -17 -16 0 -1 -17 vhcurveto
          51 -120 rmoveto
          117 55 -28 -126 -85 -45 -34 -78 -18 hvcurveto
          74 16 53 35 82 vvcurveto
          37 -6 37 -17 33 vhcurveto
          5 3 rlineto
          20 -31 7 -38 -36 vvcurveto
          -91 -60 -35 -79 -23 vhcurveto
          -16 9 rlineto
          -6 -33 -20 -1 -33 hhcurveto
          2 100 5 99 100 vvcurveto
          -1 4 5 -1 5 11 12 3 12 hhcurveto
          -169 -45 rmoveto
          2 -2 4 3 rlineto
          3 -41 1 -40 -39 -16 0 -16 -16 vvcurveto
          -36 -1 -66 -11 -6 vhcurveto
          2 60 1 59 60 vvcurveto
          32 0 32 -1 32 vhcurveto
          112 -278 rmoveto
          54 29 175 -43 24 153 rrcurveto
          -126 -16 -135 -13 -102 hhcurveto
          -30 -73 rmoveto
          16 11 165 3 56 27 -65 -32 -101 -7 -71 -2 rrcurveto
          -59 225 rmoveto
          -15 0 -16 -15 vvcurveto
          -31 0 -31 -3 -31 vhcurveto
          3 hlineto
          -1 -9 -3 1 1 49 1 49 2 49 rlinecurve
          70 -129 rmoveto
          -5 1 rlineto
          189 vlineto
          endchar
        </CharString>
        <CharString name="U">
          -100 callsubr
          endchar
        </CharString>
        <CharString name="Uacute">
          -100 callsubr
          -196 610 -107 callsubr
        </CharString>
        <CharString name="Ucircumflex">
          -100 callsubr
          -12 635 -106 callsubr
        </CharString>
        <CharString name="Udieresis">
          -100 callsubr
          64 701 rmoveto
          14 -8 6 -12 3 vhcurveto
          -1 7 6 0 8 hhcurveto
          9 0 11 -27 callgsubr
          -4 -2 -4 -19 -44 20 -9 -12 -2 -5 -11 -7 -7 1 -6 hhcurveto
          -14 -11 -20 callgsubr
          4 -17 8 -8 -61 callsubr
          -1 -1 1 -1 -19 callgsubr
          -8 -8 -32 6 19 13 -17 hvcurveto
          6 hlineto
          25 13 2 24 hhcurveto
          8 9 0 -1 8 hvcurveto
          2 -13 -12 3 -13 hhcurveto
          -7 -6 0 -1 -6 hvcurveto
          8 11 2 6 vhcurveto
          13 14 -7 13 -46 callgsubr
          -53 callgsubr
          4 -10 8 -2 15 -1 8 -3 rlinecurve
          -77 callgsubr
          -20 callsubr
          3 4 -74 callsubr
          -25 18 -27 -2 -26 5 rrcurveto
          6 6 1 6 hhcurveto
          9 37 -6 -8 14 hvcurveto
          3 -2 rlineto
          3 -21 callsubr
          12 vvcurveto
          8 -1 9 -3 7 vhcurveto
          -260 10 rmoveto
          5 1 6 5 vvcurveto
          -15 8 -37 0 -18 11 19 -8 35 -2 17 -4 rrcurveto
          3 -4 callgsubr
          vvcurveto
          8 -2 3 -3 vhcurveto
          -3 -4 -1 -3 -16 -53 17 -5 hhcurveto
          -13 -40 -8 -19 -16 7 -24 9 -9 hvcurveto
          -49 callgsubr
          -4 0 -1 -3 -29 -21 callsubr
          -13 hvcurveto
          4 hlineto
          3 17 36 6 15 hhcurveto
          5 4 -1 -1 4 hvcurveto
          3 -7 -28 2 -7 hhcurveto
          -6 -5 -1 -2 -5 9 callgsubr
          -1 -1 callgsubr
          -57 callsubr
          7 28 -4 6 hhcurveto
          3 -43 callsubr
          hvcurveto
          3 -12 4 -1 1 -1 4 -3 rlinecurve
          2 1 5 6 2 hvcurveto
          -9 18 -37 1 -17 2 rrcurveto
          3 24 2 4 hhcurveto
          11 18 -9 -5 4 -20 callsubr
          2 9 rlineto
          2 10 3 12 12 vvcurveto
          4 0 3 -1 4 vhcurveto
          184 27 rmoveto
          12 -5 9 -4 11 -2 -10 2 -12 2 -10 7 rrcurveto
          29 -102 rmoveto
          -5 hlineto
          endchar
        </CharString>
        <CharString name="Ugrave">
          -100 callsubr
          -270 771 -104 callsubr
        </CharString>
        <CharString name="V">
          -11 564 331 rmoveto
          -7 -14 -14 -31 -14 -32 -12 -32 rlinecurve
          23 69 19 70 15 71 rrcurveto
          9 hlineto
          25 99 36 101 103 vvcurveto
          -71 -227 -37 -239 -103 -217 103 221 30 235 69 230 rrcurveto
          1 4 5 11 3 vvcurveto
          10 -4 44 -17 -22 -19 -57 -18 -5 vhcurveto
          -9 6 -25 -88 -18 -90 -25 -88 rlinecurve
          23 90 17 91 21 91 -3 1 rcurveline
          -24 -27 -170 -27 -7 hvcurveto
          -37 -136 -33 -141 -58 -129 -18 32 -15 33 -16 32 rrcurveto
          61 -32 -169 400 -29 hhcurveto
          -14 0 -32 -6 -26 5 -26 6 -25 hvcurveto
          -9 -6 rlineto
          9 -3 -17 56 -15 hhcurveto
          -6 -8 -5 -5 -9 hvcurveto
          24 -73 20 -75 32 -69 25 -56 83 -130 55 -114 4 6 rcurveline
          19 -43 28 -62 17 -44 rrcurveto
          -4 28 25 0 28 hhcurveto
          3 vlineto
          29 53 26 54 23 56 -28 -81 rcurveline
          34 80 72 180 13 vvcurveto
          -264 -331 rmoveto
          -4 33 -15 34 -17 29 11 -30 15 -42 10 -24 rrcurveto
          197 475 rmoveto
          -23 -103 -31 -102 -43 -95 42 96 29 102 26 102 rrcurveto
          -51 -454 rmoveto
          -4 hlineto
          -24 -50 rlineto
          13 callsubr
          -6 hhcurveto
          -12 -12 0 -1 -13 hvcurveto
          18 19 0 -2 19 hvcurveto
          -110 2 rmoveto
          16 -2 -7 10 -15 13 -5 9 rlinecurve
          5 -13 4 -10 2 -7 rrcurveto
          147 88 rmoveto
          -8 -17 -5 -14 -3 -5 rrcurveto
          4 hlineto
          endchar
        </CharString>
        <CharString name="W">
          250 405 213 rmoveto
          1 6 1 5 2 6 rrcurveto
          -106 30 41 -175 125 hhcurveto
          109 64 168 86 23 hvcurveto
          15 6 rlineto
          41 129 48 162 135 vvcurveto
          -22 -91 -45 -247 -77 -167 75 167 38 250 21 91 rrcurveto
          1 5 6 18 4 vvcurveto
          11 -4 64 -17 -22 -22 -94 -19 -4 vhcurveto
          -8 8 -27 -125 -24 -127 -41 -122 rlinecurve
          37 124 29 128 20 128 -5 1 rcurveline
          -32 -19 -216 -61 -17 hvcurveto
          -14 -52 -75 -250 -59 -1 -9 1 rcurveline
          -53 67 -22 227 -53 36 -107 -3 rcurveline
          -4 -3 -61 -176 -24 -118 rrcurveto
          158 -104 -28 407 -24 hhcurveto
          -33 -4 -108 -22 hvcurveto
          -9 -3 -1 13 -3 65 -14 7 rlinecurve
          -25 -3 6 -177 48 -370 170 -95 rlinecurve
          85 15 47 47 25 96 9 65 rlinecurve
          17 -94 47 -144 114 -7 -121 25 -27 131 -35 114 rrcurveto
          193 -247 rmoveto
          -111 -46 177 95 -18 hvcurveto
          -71 23 49 -193 103 hhcurveto
          42 34 29 35 34 hvcurveto
          -44 -32 -37 -28 -41 hhcurveto
          11 -22 rmoveto
          94 55 111 83 31 hvcurveto
          -32 -82 -56 -97 -92 -15 rrcurveto
          -21 99 rmoveto
          -1 3 4 -1 3 hhcurveto
          41 42 84 49 21 hvcurveto
          -50 -21 -40 -87 -43 hhcurveto
          -26 -17 34 26 -8 hvcurveto
          8 -24 17 -26 16 -4 rrcurveto
          -191 124 rmoveto
          2 13 2 13 3 13 4 -12 rcurveline
          -2 -9 -2 -9 -1 -9 rrcurveto
          endchar
        </CharString>
        <CharString name="X">
          50 644 5 rmoveto
          -6 10 10 -7 12 hhcurveto
          19 1 17 15 hvcurveto
          -13 21 16 9 -17 34 -18 34 -23 30 rlinecurve
          24 -31 21 -33 19 -34 rrcurveto
          5 1 5 5 5 vvcurveto
          66 -212 213 -57 44 vhcurveto
          24 58 101 139 45 vvcurveto
          11 -7 7 -11 -20 -19 -15 -13 -14 vhcurveto
          -9 6 rlineto
          3 4 12 19 6 vvcurveto
          13 -19 0 -6 10 vhcurveto
          -62 -93 -22 -5 -55 -115 rrcurveto
          26 -38 -213 173 -23 hhcurveto
          -12 -5 -10 -11 -19 9 -19 11 -15 hvcurveto
          -6 -9 -8 9 -11 10 -12 5 rlinecurve
          -12 -1 -3 -14 -9 -6 24 -24 20 -27 23 -26 56 -63 84 -50 70 -46 -35 -78 -34 -78 -37 -77 38 76 44 90 36 77 8 -5 rcurveline
          -36 -79 -54 -86 -29 -82 -10 6 rcurveline
          -11 -25 -11 -29 -14 -22 rrcurveto
          -6 -20 -15 -18 -21 vvcurveto
          -5 1 17 callgsubr
          vhcurveto
          17 25 16 26 14 28 rrcurveto
          0 0 0 -1 -2 4 -8 callgsubr
          -6 -18 -68 -14 -23 hvcurveto
          5 -3 rlineto
          6 4 21 3 3 hhcurveto
          16 14 -14 -13 7 hvcurveto
          16 33 12 35 17 33 -16 -33 -8 -37 -15 -34 7 -3 rcurveline
          23 1 16 76 9 18 44 84 45 83 45 83 39 -31 39 -32 34 -36 -34 37 -37 34 -39 32 4 8 rcurveline
          50 -42 46 -48 49 -44 -10 -9 rcurveline
          32 -35 31 -69 35 -25 -37 117 -97 93 -93 75 rrcurveto
          1 vlineto
          108 -87 67 -45 65 -160 rrcurveto
          -169 334 rmoveto
          37 -36 41 -26 29 -49 -34 38 -37 36 -36 37 rrcurveto
          -139 -128 rmoveto
          -14 -25 -38 -73 -16 -33 20 45 23 44 25 42 rrcurveto
          -44 149 rmoveto
          -3 -8 -16 11 3 6 rlineto
          14 -80 rmoveto
          -48 -96 15 33 15 32 18 31 rlinecurve
          endchar
        </CharString>
        <CharString name="Y">
          -91 callsubr
          endchar
        </CharString>
        <CharString name="Yacute">
          -91 callsubr
          -6 641 -107 callsubr
        </CharString>
        <CharString name="Z">
          47 654 -79 rmoveto
          12 4 46 6 18 vvcurveto
          20 -57 8 -27 vhcurveto
          -5 -4 -1 -2 hhcurveto
          3 18 -105 6 -106 0 -104 13 rlinecurve
          106 -10 106 0 106 -3 1 5 rcurveline
          24 -172 -9 -58 5 vhcurveto
          -72 6 -73 8 -71 15 113 69 238 372 104 53 -7 40 -7 41 -8 29 rrcurveto
          -46 -61 22 -51 hhcurveto
          -126 -271 -15 -32 -25 114 -7 16 -1 hvcurveto
          -9 vlineto
          -10 -73 -2 -18 hvcurveto
          -3 4 -10 -8 -55 callsubr
          4 41 42 2 41 hhcurveto
          225 hlineto
          -133 -134 -97 -168 -145 -122 -25 -21 -21 -24 -15 -33 13 -25 9 -28 12 -26 63 -26 83 -11 68 -3 9 -12 rcurveline
          -8 87 80 -8 87 hhcurveto
          33 33 2 8 32 hvcurveto
          -124 11 -124 4 -123 15 131 -12 135 5 130 -17 rrcurveto
          -630 134 rmoveto
          42 62 59 43 50 55 70 77 62 83 66 81 12 -5 rcurveline
          -92 -123 -102 -117 -116 -101 -15 -13 -22 -20 -6 -19 -5 -12 rcurveline
          30 -59 rmoveto
          -21 53 6 6 rlineto
          -61 callgsubr
          29 117 91 25 28 vhcurveto
          -28 -37 -108 -89 -6 -31 18 -49 rcurveline
          47 -9 47 -21 49 -6 -47 5 -58 4 -38 22 rrcurveto
          102 56 rmoveto
          42 -9 39 -11 42 -5 -43 4 -43 7 -42 9 rrcurveto
          12 -98 rmoveto
          -38 8 -38 7 -36 16 -4 -4 rcurveline
          38 -10 39 -11 39 -6 rrcurveto
          endchar
        </CharString>
        <CharString name="a">
          5 401 -105 callgsubr
          endchar
        </CharString>
        <CharString name="aacute">
          -103 callgsubr
          37 469 -107 callsubr
        </CharString>
        <CharString name="acircumflex">
          -103 callgsubr
          240 524 -106 callsubr
        </CharString>
        <CharString name="acute">
          -340 90 594 -107 callsubr
        </CharString>
        <CharString name="acute.cap">
          -340 90 754 -107 callsubr
        </CharString>
        <CharString name="adieresis">
          -103 callgsubr
          262 589 rmoveto
          14 -8 6 -12 3 vhcurveto
          -1 7 6 0 8 hhcurveto
          9 0 11 -27 callgsubr
          -4 -2 -4 -19 -44 20 -9 -12 -2 -5 -11 -7 -7 1 -6 hhcurveto
          -14 -11 -20 callgsubr
          4 -17 8 -8 -61 callsubr
          -1 -1 1 -1 -19 callgsubr
          -8 -8 -32 6 19 13 -17 hvcurveto
          6 hlineto
          25 13 2 24 hhcurveto
          8 9 0 -1 8 hvcurveto
          2 -13 -12 3 -13 hhcurveto
          -7 -6 0 -1 -6 hvcurveto
          8 11 2 6 vhcurveto
          13 14 -7 13 -46 callgsubr
          -53 callgsubr
          4 -10 8 -2 15 -1 8 -3 rlinecurve
          -77 callgsubr
          -20 callsubr
          3 4 -74 callsubr
          -25 18 -27 -2 -26 5 rrcurveto
          6 6 1 6 hhcurveto
          9 37 -6 -8 14 hvcurveto
          3 -2 rlineto
          3 -21 callsubr
          12 vvcurveto
          8 -1 9 -3 7 vhcurveto
          -260 10 rmoveto
          5 1 6 5 vvcurveto
          -15 8 -37 0 -18 11 19 -8 35 -2 17 -4 rrcurveto
          3 -4 callgsubr
          vvcurveto
          8 -2 3 -3 vhcurveto
          -3 -4 -1 -3 -16 -53 17 -5 hhcurveto
          -13 -40 -8 -19 -16 7 -24 9 -9 hvcurveto
          -49 callgsubr
          -4 0 -1 -3 -29 -21 callsubr
          -13 hvcurveto
          4 hlineto
          3 17 36 6 15 hhcurveto
          5 4 -1 -1 4 hvcurveto
          3 -7 -28 2 -7 hhcurveto
          -6 -5 -1 -2 -5 9 callgsubr
          -1 -1 callgsubr
          -57 callsubr
          7 28 -4 6 hhcurveto
          3 -43 callsubr
          hvcurveto
          3 -12 4 -1 1 -1 4 -3 rlinecurve
          2 1 5 6 2 hvcurveto
          -9 18 -37 1 -17 2 rrcurveto
          3 24 2 4 hhcurveto
          11 18 -9 -5 4 -20 callsubr
          2 9 rlineto
          2 10 3 12 12 vvcurveto
          4 0 3 -1 4 vhcurveto
          184 27 rmoveto
          12 -5 9 -4 11 -2 -10 2 -12 2 -10 7 rrcurveto
          29 -102 rmoveto
          -5 hlineto
          endchar
        </CharString>
        <CharString name="ae">
          321 837 -18 -93 callgsubr
          -66 -75 callgsubr
          -126 -84 -13 -82 -82 hvcurveto
          72 -58 -58 33 -168 -90 callgsubr
          137 94 -38 -109 25 hvcurveto
          -4 -21 -1 -20 -21 -72 callsubr
          56 11 52 27 46 vhcurveto
          -21 -46 -12 -50 -52 vvcurveto
          -46 10 -46 21 -44 vhcurveto
          -17 -28 -25 -4 -49 hhcurveto
          -87 callgsubr
          -96 111 0 117 -3 hvcurveto
          59 -2 -62 -4 rlineto
          -3 -4 -1 -4 hhcurveto
          -25 -35 5 3 -21 -81 callgsubr
          28 9 11 9 12 vvcurveto
          8 -9 12 -21 2 callgsubr
          hlineto
          -3 -62 callgsubr
          3 vvcurveto
          2 1 -18 callsubr
          vhcurveto
          -34 hlineto
          -64 -104 -6 -100 -23 hvcurveto
          109 161 3 67 vhcurveto
          1 2 -65 callsubr
          5 -9 7 -37 -58 -149 -22 -139 -219 152 22 82 -19 vhcurveto
          99 31 7 32 73 hvcurveto
          -45 44 58 -29 67 -80 callgsubr
          78 25 94 56 59 hvcurveto
          5 4 rlineto
          -58 -62 -25 -94 -78 -79 callsubr
          346 rmoveto
          -19 2 -19 54 -20 4 rrcurveto
          32 18 65 5 52 24 21 -1 12 -77 callsubr
          -513 -280 rmoveto
          50 -36 46 6 44 -10 19 -5 28 -8 27 -3 rrcurveto
          -67 -95 10 46 -52 hvcurveto
          626 496 rmoveto
          4 -3 -63 -9 -30 -5 -48 -24 rlinecurve
          -17 -8 -22 -4 -21 -4 50 29 64 20 83 8 rrcurveto
          -208 -225 -70 callgsubr
          -165 94 rmoveto
          -5 -16 1 -52 -2 -17 rrcurveto
          3 0 4 3 23 -5 22 14 vvcurveto
          10 3 6 8 vhcurveto
          -41 -304 rmoveto
          -14 -13 -1 -12 -78 callgsubr
          30 hlineto
          -204 36 -80 callsubr
          382 -48 rmoveto
          -12 9 -6 10 -6 11 7 -11 8 -10 9 -9 rrcurveto
          endchar
        </CharString>
        <CharString name="agrave">
          -103 callgsubr
          3 650 -104 callsubr
        </CharString>
        <CharString name="ampersand">
          142 377 356 rmoveto
          41 48 42 58 70 vvcurveto
          8 0 8 -1 14 vhcurveto
          -28 101 -84 -17 -76 37 rrcurveto
          1 -28 -26 4 -24 hhcurveto
          -19 -18 -2 -9 -17 hvcurveto
          -31 -31 -17 -20 -52 vvcurveto
          4 -36 22 -63 13 -43 60 -60 rlinecurve
          11 -12 rlineto
          -58 -58 -93 -69 -121 vvcurveto
          -20 2 -22 8 -15 vhcurveto
          -60 23 54 -34 90 hhcurveto
          23 42 7 3 20 hvcurveto
          2 vlineto
          -5 -30 -34 -6 -23 hhcurveto
          -69 -56 17 78 -39 hvcurveto
          -7 28 -2 18 13 vvcurveto
          102 78 71 38 35 vhcurveto
          36 33 5 -6 rlineto
          -62 -53 -89 -77 -107 vvcurveto
          -14 1 -14 6 -23 vhcurveto
          -48 25 23 -45 108 hhcurveto
          24 23 3 5 30 hvcurveto
          15 24 10 7 22 hvcurveto
          9 -6 48 17 34 20 38 25 rlinecurve
          -62 58 72 -56 28 1 2 0 1 hhcurveto
          4 2 1 4 2 0 2 -5 7 hvcurveto
          -25 25 -29 47 -50 63 8 7 rcurveline
          -58 50 26 -14 7 10 -6 21 14 hhcurveto
          -26 24 -24 26 -25 27 70 40 81 66 41 54 -65 -58 -73 -44 -67 -44 -2 2 rcurveline
          2 12 9 3 2 vhcurveto
          63 42 rlineto
          61 41 72 33 61 vvcurveto
          14 -10 0 -5 -16 -5 -4 -24 -24 vhcurveto
          -10 0 5 8 hvcurveto
          -56 -51 -68 -35 -61 -49 -1 2 rcurveline
          62 50 68 38 56 52 rrcurveto
          3 -1 -1 3 -3 hhcurveto
          -11 -26 -19 -114 -155 hvcurveto
          -33 59 -56 46 -44 49 rrcurveto
          -209 -257 rmoveto
          5 -2 5 5 vvcurveto
          52 56 51 63 56 vhcurveto
          43 -38 52 -66 31 -35 rrcurveto
          -21 -34 -50 -30 -38 hhcurveto
          -4 -36 -18 -3 -17 hhcurveto
          -39 3 -10 8 9 vvcurveto
          57 470 rmoveto
          1 -1 9 -3 5 -1 52 -14 33 -11 9 -5 -4 -31 -14 -23 -25 -31 rrcurveto
          -1 -9 callsubr
          hvcurveto
          -37 37 -36 39 -1 47 rrcurveto
          -1 3 4 0 3 hhcurveto
          -1 -583 rmoveto
          -55 -97 13 116 112 103 79 42 39 hvcurveto
          1 -1 rlineto
          -62 -54 -81 -77 -90 vvcurveto
          -12 0 -14 6 -21 vhcurveto
          -78 4 115 -9 5 hhcurveto
          110 77 30 52 79 hvcurveto
          -1 1 0 -1 vvcurveto
          -52 -77 -82 -31 -89 hhcurveto
          123 555 rmoveto
          -37 -18 -30 -31 -36 vhcurveto
          -6 6 1 6 24 27 5 8 rlinecurve
          10 16 6 17 14 vvcurveto
          -33 callgsubr
          hhcurveto
          1 0 1 1 3 -5 9 -3 3 hvcurveto
          -1 2 1 -1 1 hhcurveto
          -58 callsubr
          -192 -452 rmoveto
          -2 9 0 8 8 vvcurveto
          3 51 43 45 44 38 rrcurveto
          -53 -46 -36 -47 -50 vvcurveto
          -5 1 -6 2 -6 vhcurveto
          1 -5 rlineto
          -26 48 -7 27 17 16 4 2 17 vhcurveto
          42 8 34 11 29 14 rrcurveto
          -25 -48 -49 -15 -60 hhcurveto
          -33 -42 8 28 hvcurveto
          183 456 rmoveto
          4 -6 rlineto
          -4 vlineto
          -21 10 -26 7 -28 7 rrcurveto
          -24 callsubr
          -1 2 -2 1 hvcurveto
          25 -6 25 -4 22 -10 rrcurveto
          endchar
        </CharString>
        <CharString name="aring">
          -103 callgsubr
          274 664 -88 callsubr
          -56 37 -36 hhcurveto
          -10 -8 -2 -3 -8 hvcurveto
          70 -19 87 -56 -59 callgsubr
          30 23 40 vvcurveto
          86 -86 -96 callsubr
        </CharString>
        <CharString name="asciicircum">
          -33 316 896 rmoveto
          -117 -181 rlineto
          -26 -40 -123 -129 -36 vvcurveto
          -12 10 -6 11 18 17 8 10 14 vhcurveto
          8 -8 -21 -28 19 -23 78 73 71 77 57 90 rlinecurve
          14 -28 17 -25 17 -24 -16 25 -17 25 -13 29 3 5 rcurveline
          19 -33 20 -32 26 -28 -8 -7 rcurveline
          -43 32 51 -72 59 hhcurveto
          -86 53 -58 88 -46 88 2 4 rcurveline
          53 -90 55 -94 97 -49 rrcurveto
          14 1 25 5 19 vvcurveto
          18 -21 11 -14 4 vhcurveto
          8 14 -69 44 -64 86 -30 79 rlinecurve
          31 -79 64 -85 72 -41 4 10 rcurveline
          -5 15 -46 32 -13 15 -88 102 -16 57 -9 99 rrcurveto
          -110 -254 rmoveto
          -3 7 48 68 4 -7 rlineto
          9 14 rmoveto
          -4 8 1 3 5 -8 rlineto
          endchar
        </CharString>
        <CharString name="asciitilde">
          -131 280 221 rmoveto
          5 -2 4 -2 5 -1 14 -5 rcurveline
          -7 18 20 -6 27 hhcurveto
          23 43 3 36 23 hvcurveto
          9 -7 rlineto
          31 38 12 51 18 vvcurveto
          8 -3 7 -4 7 vhcurveto
          -45 -22 -5 -101 -103 hhcurveto
          -35 -30 9 11 -27 hvcurveto
          -11 32 37 -6 31 hhcurveto
          46 30 19 96 27 hvcurveto
          3 13 -5 callgsubr
          11 rrcurveto
          10 -7 -10 15 -15 -15 -10 -22 -1 hhcurveto
          -5 -4 1 3 -4 hvcurveto
          -6 -14 -4 -12 -3 -11 2 12 2 14 4 13 rrcurveto
          1 -3 8 callgsubr
          -25 16 -54 -22 -24 hvcurveto
          -13 -23 7 12 -26 hvcurveto
          25 -51 -39 30 -107 hhcurveto
          -49 -19 -23 -19 -15 hvcurveto
          -9 -24 -4 -24 -22 vvcurveto
          -32 8 -21 18 15 14 18 24 10 vhcurveto
          11 -1 callsubr
          -4 0 -21 callgsubr
          -11 5 -3 6 vhcurveto
          8 9 2 8 hhcurveto
          12 6 24 16 14 15 -12 -6 15 vhcurveto
          42 -28 rlineto
          -25 37 45 -6 48 hhcurveto
          17 24 3 14 23 hvcurveto
          -15 -26 -28 0 -19 hhcurveto
          -26 2 -19 6 -20 4 -14 5 rcurveline
          -35 7 -32 35 -26 9 rrcurveto
          1 1 1 1 -30 callsubr
          1 vvcurveto
          25 -5 31 -28 25 -11 rrcurveto
          103 62 rmoveto
          -14 -23 7 9 -16 hvcurveto
          16 -7 17 -5 14 -2 rrcurveto
          11 8 3 6 6 hvcurveto
          -7 -4 -6 -4 -9 hhcurveto
          75 -65 rmoveto
          -2 -1 -48 callsubr
          1 -45 callsubr
          rrcurveto
          -15 -11 rmoveto
          5 3 rlineto
          6 4 rmoveto
          -2 -25 callsubr
          rrcurveto
          endchar
        </CharString>
        <CharString name="asterisk">
          49 628 608 rmoveto
          33 19 13 13 8 vvcurveto
          8 -13 3 -20 -78 -75 -41 -14 -76 vhcurveto
          -2 6 54 10 52 20 49 18 rlinecurve
          -43 -4 -53 -14 -64 -13 rrcurveto
          -12 39 -2 55 28 vvcurveto
          -7 1 -5 7 rlineto
          -122 hlineto
          1 -26 0 -19 -19 vvcurveto
          -30 -2 -26 -3 -30 vhcurveto
          -42 -3 -42 -3 -43 -2 1 -11 rcurveline
          -17 -12 -1 -9 -17 -2 1 -3 hhcurveto
          -10 -2 -6 -102 rlineto
          4 5 -3 5 hhcurveto
          7 callgsubr
          hvcurveto
          44 -6 54 0 43 -5 rrcurveto
          -1 -1 -28 callgsubr
          -33 -1 rlineto
          6 7 -1 -1 7 hvcurveto
          -5 -19 -2 -18 -20 -4 0 -4 -4 vvcurveto
          4 -145 99 106 24 26 17 32 7 24 rlinecurve
          8 -7 20 -50 21 -48 21 -49 rlinecurve
          6 1 4 1 5 -64 callsubr
          2 hhcurveto
          5 4 1 6 12 -8 25 -26 61 hvcurveto
          5 -2 5 -2 5 -1 rrcurveto
          -68 32 38 -53 21 hhcurveto
          5 2 5 3 18 -11 26 -18 64 hvcurveto
          151 27 -122 79 -16 10 -26 14 -17 8 rlinecurve
          81 16 47 20 6 vvcurveto
          2 -2 1 -2 2 vhcurveto
          -42 -13 -43 -10 -43 -8 -6 3 rcurveline
          43 8 43 10 43 13 rrcurveto
          -5 3 -4 0 callsubr
          6 26 8 37 11 vhcurveto
          -562 -34 rmoveto
          -3 -2 3 -3 -13 -71 5 76 rcurveline
          134 -152 rmoveto
          3 14 0 13 5 14 rrcurveto
          -15 callgsubr
          -1 2 hvcurveto
          -2 -6 0 -11 -3 -5 rrcurveto
          -2 -7 -1 16 callgsubr
          -27 162 rmoveto
          -4 -1 -70 callsubr
          61 3 23 3 hvcurveto
          -5 -55 -2 -12 -1 vhcurveto
          1 -3 -2 -29 callgsubr
          -126 -102 rmoveto
          41 -6 36 -5 41 -1 -40 4 -33 2 -45 6 rrcurveto
          108 9 rmoveto
          1 8 8 1 8 12 callgsubr
          0 -1 7 hvcurveto
          -1 0 -9 callsubr
          vhcurveto
          -34 2 rlineto
          46 -3 rmoveto
          -3 -2 -10 callsubr
          -64 callsubr
          2 vhcurveto
          2 1 0 1 hhcurveto
          -1 -1 -8 callgsubr
          endchar
        </CharString>
        <CharString name="at">
          381 916 660 rmoveto
          98 -80 -125 48 -126 hhcurveto
          -242 -251 -156 -280 -37 hvcurveto
          31 209 151 155 210 53 26 5 rcurveline
          33 6 35 3 35 2 rrcurveto
          176 250 -100 -300 -85 -26 -80 -45 -72 hvcurveto
          -50 -66 rlineto
          1 3 -64 callgsubr
          vvcurveto
          1 vlineto
          -2 -4 -4 -3 -3 hvcurveto
          71 83 48 104 117 vvcurveto
          201 -151 191 -263 vhcurveto
          -40 -1 -39 -2 -38 -9 -13 -3 rcurveline
          -181 -43 -196 -148 -10 -253 -11 -6 rcurveline
          -1 -9 0 -9 -8 vvcurveto
          -129 61 -174 170 -78 vhcurveto
          -36 78 85 -18 77 hhcurveto
          50 46 6 12 40 hvcurveto
          -5 -31 -30 -1 -30 hhcurveto
          -90 -94 17 38 -81 hvcurveto
          -40 91 110 -8 59 hhcurveto
          88 107 14 76 55 hvcurveto
          5 8 2 7 4 vvcurveto
          3 -1 2 -4 -8 -82 -40 -19 -103 vhcurveto
          -3 2 -2 3 3 11 callgsubr
          -18 callsubr
          vhcurveto
          -2 -20 -19 -1 -20 hhcurveto
          -100 -95 21 44 -74 hvcurveto
          -43 75 102 -18 83 hhcurveto
          17 60 0 10 9 -23 -5 -99 7 hvcurveto
          -71 5 -121 24 -60 59 -5 5 rcurveline
          -58 58 -29 82 83 vvcurveto
          198 156 191 261 166 135 -110 -173 -106 -86 -147 -44 vhcurveto
          -54 5 -23 179 -40 80 -114 -37 rcurveline
          -14 9 -16 -14 vvcurveto
          -45 -72 -41 -59 -53 -13 24 40 vhcurveto
          83 8 115 91 70 hhcurveto
          30 5 -13 -29 10 hvcurveto
          -13 4 3 -7 4 hhcurveto
          9 4 29 8 1 hvcurveto
          31 -10 50 -78 -25 -29 -7 -13 -28 vhcurveto
          -5 10 rlineto
          19 41 34 7 29 62 18 -31 10 hhcurveto
          3 1 4 5 hvcurveto
          -40 callsubr
          -1 -40 callsubr
          2 1 -64 callgsubr
          3 -1 -3 5 vhcurveto
          34 -28 -43 14 -37 hhcurveto
          -192 -103 -193 -54 -14 hvcurveto
          -2 -13 -3 -15 -14 vvcurveto
          -5 1 -6 1 -5 vhcurveto
          -130 10 118 -36 60 hhcurveto
          67 91 31 63 22 hvcurveto
          -30 48 -86 10 -13 vhcurveto
          -29 22 42 -34 52 hhcurveto
          111 61 119 7 5 hvcurveto
          48 81 30 78 93 vvcurveto
          92 -31 91 -59 72 vhcurveto
          -471 105 rmoveto
          14 3 rlineto
          12 40 46 2 38 hhcurveto
          84 88 -22 -53 72 hvcurveto
          49 -68 -85 24 -90 hhcurveto
          -45 -46 -7 -10 -43 hvcurveto
          -13 -3 -139 -42 -127 -93 -61 -137 rlinecurve
          59 135 120 110 156 32 rrcurveto
          -303 -460 rmoveto
          233 196 169 237 vhcurveto
          4 -1 rlineto
          -213 -223 -145 -259 -44 9 -55 21 -48 hvcurveto
          -20 42 -11 50 58 vvcurveto
          -70 -3 rmoveto
          24 5 66 2 vhcurveto
          0 1 -4 -6 -23 -7 -28 -26 vvcurveto
          -86 26 -97 55 -74 vhcurveto
          -51 64 -31 83 107 vvcurveto
          768 396 rmoveto
          11 -9 rlineto
          -613 -624 rmoveto
          1 -1 callsubr
          -1 0 1 -1 hvcurveto
          -149 356 -19 callsubr
          2 7 -19 callsubr
          3 9 rmoveto
          -36 callgsubr
          2 1 3 1 2 vhcurveto
          1 5 rmoveto
          -1 0 -9 callsubr
          vhcurveto
          1 -74 callsubr
          endchar
        </CharString>
        <CharString name="atilde">
          -103 callgsubr
          295 653 -106 callgsubr
        </CharString>
        <CharString name="b">
          -29 239 504 rmoveto
          -21 -7 -28 -15 -13 vvcurveto
          -9 11 -7 32 -3 vhcurveto
          15 3 30 0 0 vvcurveto
          2 -3 1 -15 callsubr
          -3 -1 -4 -2 -3 vhcurveto
          55 -5 58 -26 44 -39 -45 39 -60 25 -55 3 rrcurveto
          -1 -3 -1 -28 callgsubr
          -12 25 3 58 -23 vhcurveto
          108 -43 17 -67 -84 vvcurveto
          -43 -8 -56 -111 -19 vhcurveto
          -10 -31 -50 -5 -42 hhcurveto
          -34 -3 rlineto
          27 vlineto
          3 12 1 21 63 vvcurveto
          -3 84 -9 93 -15 78 rrcurveto
          136 -15 10 191 -35 hhcurveto
          -15 -16 -44 -73 -5 hvcurveto
          -9 hlineto
          65 -7 12 -3 callgsubr
          -7 -5 -40 callgsubr
          -9 1 -10 -11 vvcurveto
          -60 -7 -79 -2 -53 vhcurveto
          36 -189 rlineto
          -183 vlineto
          -15 -6 -24 -27 vvcurveto
          3 -12 0 -15 3 -15 rrcurveto
          -84 14 57 -3 23 hhcurveto
          5 hlineto
          15 12 3 12 hhcurveto
          12 hlineto
          38 121 5 58 99 hvcurveto
          95 57 7 97 59 vvcurveto
          21 -3 22 -4 22 vhcurveto
          4 -22 2 -22 -21 vvcurveto
          -213 -173 -48 -195 -9 vhcurveto
          -4 -14 -13 0 -12 hhcurveto
          -100 -2 82 48 hvcurveto
          6 vlineto
          -1 2 -2 1 2 0 1 3 1 vhcurveto
          -11 vlineto
          -91 48 -26 41 vhcurveto
          14 hlineto
          12 13 0 4 7 hvcurveto
          321 16 40 127 110 vvcurveto
          33 -6 32 -10 33 vhcurveto
          3 5 3 2 3 1 rrcurveto
          113 -36 -128 92 -103 hhcurveto
          -12 -24 0 -6 -12 hvcurveto
          36 36 -9 -15 33 hvcurveto
          134 -49 69 -105 -120 vvcurveto
          -197 -157 -33 -94 -9 vhcurveto
          150 26 100 50 173 vvcurveto
          163 -162 116 -155 vhcurveto
          -6 -5 0 -6 hhcurveto
          263 -286 rmoveto
          7 -1 7 8 vvcurveto
          1 -8 1 -8 -9 vvcurveto
          -57 -9 -36 -34 -24 vhcurveto
          26 21 16 38 61 vvcurveto
          endchar
        </CharString>
        <CharString name="backslash">
          -185 214 548 rmoveto
          46 -92 57 -86 47 -91 -5 -3 rcurveline
          -58 90 -43 98 -59 90 9 10 rcurveline
          -18 36 -22 65 -29 25 18 -113 78 -107 53 -99 -57 97 -75 122 -27 108 rrcurveto
          7 -9 -11 7 -12 hhcurveto
          -14 -6 -15 -12 -1 hvcurveto
          7 -21 -16 -5 30 -103 61 -89 43 -97 rlinecurve
          -47 96 -59 91 -33 102 rrcurveto
          -10 -2 -9 -8 -70 238 -355 24 -138 hvcurveto
          -22 4 -2 -104 32 hhcurveto
          22 14 33 18 4 hvcurveto
          11 hlineto
          -1 -19 rlineto
          -24 callgsubr
          -15 5 -2 7 vhcurveto
          -57 callsubr
          hhcurveto
          4 3 -1 -1 4 hvcurveto
          4 33 6 33 33 vvcurveto
          141 -158 219 -68 126 vhcurveto
          endchar
        </CharString>
        <CharString name="bar">
          -381 207 780 rmoveto
          -24 -5 -49 -17 -2 hvcurveto
          -11 -1 rlineto
          10 0 23 -15 -8 -8 -4 -2 -8 vhcurveto
          2 -8 1 -9 -8 vvcurveto
          -141 -62 -202 -8 -140 vhcurveto
          -3 -53 -1 -53 -53 vvcurveto
          5 109 9 109 21 107 rrcurveto
          6 hlineto
          -11 -95 -22 -96 -97 vvcurveto
          -13 1 -14 1 -14 11 callsubr
          -3 -41 -2 -40 -41 vvcurveto
          -13 6 -13 5 -12 vhcurveto
          3 73 8 74 5 73 rrcurveto
          -3 -78 -6 -78 -78 vvcurveto
          -12 7 11 -15 15 hhcurveto
          14 6 18 10 3 hvcurveto
          -2 21 7 2 9 -2 2 26 3 25 1 24 rlinecurve
          -76 vlineto
          4 -1 rlineto
          13 3 24 24 hvcurveto
          21 -2 20 7 vvcurveto
          74 7 73 10 73 vhcurveto
          18 128 47 194 131 vvcurveto
          21 -9 75 -28 vhcurveto
          -47 -552 rmoveto
          -8 -51 -3 -50 -3 -49 1 49 3 51 10 50 rrcurveto
          -80 -44 rmoveto
          -1 6 0 7 6 vvcurveto
          20 3 20 4 21 vhcurveto
          -4 -27 0 -26 -2 -27 rrcurveto
          endchar
        </CharString>
        <CharString name="braceleft">
          -267 50 404 rmoveto
          7 -99 rlineto
          11 hlineto
          22 4 -19 -21 hvcurveto
          8 26 rlineto
          -40 -5 -41 -40 vvcurveto
          -27 10 -27 11 -24 vhcurveto
          -10 -4 rlineto
          -79 29 79 -84 90 hhcurveto
          16 15 1 6 15 hvcurveto
          -127 4 -114 108 129 36 5 40 39 vvcurveto
          1 -5 3 -8 -3 -33 -7 -32 -33 vvcurveto
          -142 125 -92 134 vhcurveto
          14 7 22 13 18 vvcurveto
          14 -6 -10 3 -12 -9 -10 -2 -8 hhcurveto
          -5 -5 2 1 -5 hvcurveto
          3 13 -64 4 -59 42 -24 59 rlinecurve
          -57 26 60 -42 63 hhcurveto
          1 4 rlineto
          12 -6 1 -8 vhcurveto
          -6 hlineto
          -82 -38 92 70 hvcurveto
          32 5 31 32 vvcurveto
          45 -16 3 -2 11 vhcurveto
          30 13 39 25 40 77 -63 26 85 vvcurveto
          107 112 -13 2 30 vhcurveto
          24 -11 -29 6 -26 -5 -6 -1 -5 hhcurveto
          -3 10 rlineto
          11 3 48 6 14 vvcurveto
          4 -3 8 -1 5 vhcurveto
          2 5 rlineto
          -122 -87 -78 -124 -72 32 -58 29 -63 hvcurveto
          -2 -3 rlineto
          -15 -18 -23 -6 -24 hhcurveto
          -6 -6 0 1 -6 hvcurveto
          90 23 rmoveto
          5 -2 -4 -10 -4 -3 -11 4 6 2 5 3 3 6 rlinecurve
          -52 -233 rmoveto
          -32 2 -33 13 -30 vhcurveto
          -11 32 -2 35 34 vvcurveto
          15 vlineto
          -1 -7 -1 -7 -7 vvcurveto
          102 94 rmoveto
          7 0 -2 callgsubr
          vhcurveto
          1 -4 1 -5 -5 vvcurveto
          -14 -1 -15 -2 -14 vhcurveto
          1 11 1 11 12 vvcurveto
          endchar
        </CharString>
        <CharString name="braceright">
          -286 294 318 rmoveto
          38 hlineto
          -6 96 rlineto
          -87 4 -16 37 33 81 62 -9 95 vvcurveto
          103 -64 54 -107 -20 -94 -4 -26 -26 68 -6 19 -2 vhcurveto
          -49 callgsubr
          0 -2 0 -3 -14 -39 -1 -13 vhcurveto
          -4 2 -6 -9 -24 callgsubr
          46 1 rlineto
          3 -32 callgsubr
          hhcurveto
          46 29 -10 -64 hvcurveto
          -1 -7 rlineto
          -20 -21 -36 -94 -29 vvcurveto
          -56 25 -47 50 -27 vhcurveto
          -2 -8 0 -7 -8 vvcurveto
          -55 28 -44 15 -50 vhcurveto
          -14 49 -27 47 53 vvcurveto
          7 1 8 1 7 vhcurveto
          6 -3 rlineto
          -2 -7 0 -8 -8 vvcurveto
          -18 31 -115 12 -8 vhcurveto
          9 -42 rlineto
          -11 hlineto
          -55 -78 3 -37 -13 vhcurveto
          -1 12 12 -1 12 hhcurveto
          47 53 5 60 hvcurveto
          65 -47 56 67 vvcurveto
          1 15 3 -1 callsubr
          -6 0 -6 -5 -67 45 -52 -65 vvcurveto
          -59 -55 -17 -51 -17 -16 2 3 -14 vhcurveto
          -13 -5 -26 -11 -17 vvcurveto
          -18 26 -4 21 8 7 0 1 4 vhcurveto
          2 -7 -2 -10 rlineto
          32 31 1 8 31 hvcurveto
          -32 -9 -32 -3 -33 -2 -1 -4 rcurveline
          -11 5 15 -2 11 hhcurveto
          101 89 59 108 hvcurveto
          65 -45 54 61 vvcurveto
          -180 110 rmoveto
          4 -2 1 6 10 -32 50 -35 30 -15 rlinecurve
          -2 -8 -32 14 -50 39 -11 33 rlinecurve
          210 -101 rmoveto
          -42 11 42 -3 rlineto
          endchar
        </CharString>
        <CharString name="bracketleft">
          -300 280 751 rmoveto
          11 vlineto
          31 -1 rlineto
          6 20 1 12 5 -2 7 -1 5 hvcurveto
          2 6 rlineto
          -60 -59 11 -60 hhcurveto
          -33 -32 -3 -1 -33 hvcurveto
          -8 -179 3 -177 -2 -176 rrcurveto
          2 78 4 79 79 vvcurveto
          2 -2 4 3 rlineto
          3 -38 1 -37 -38 -103 -10 -103 -103 vvcurveto
          -22 1 -22 1 -22 vhcurveto
          -10 -108 hlineto
          -1 26 27 -2 26 hhcurveto
          57 71 3 26 51 hvcurveto
          -58 -58 -9 -58 hhcurveto
          -23 -22 2 1 -23 hvcurveto
          7 120 4 119 3 121 rrcurveto
          -119 -8 -121 -3 -119 vhcurveto
          52 -1 rlineto
          -15 callgsubr
          2 63 63 14 63 -15 callgsubr
          2 hhcurveto
          11 6 24 13 14 vvcurveto
          16 -23 5 -20 -8 -8 -1 -1 -5 vhcurveto
          -1 16 -43 -3 -44 -6 -43 -3 rlinecurve
          41 4 91 9 8 vvcurveto
          7 -22 5 -6 -35 -34 -10 -4 -34 vhcurveto
          10 150 1 149 149 64 0 65 64 42 191 -37 43 vvcurveto
          24 -67 14 -18 2 vhcurveto
          -138 -731 rmoveto
          9 0 8 9 27 -1 28 27 vvcurveto
          41 2 42 10 43 vhcurveto
          -5 -78 -2 -78 -4 -78 rrcurveto
          -13 -17 rmoveto
          2 -6 -21 5 rlineto
          -58 265 rmoveto
          -21 vlineto
          endchar
        </CharString>
        <CharString name="bracketright">
          -259 335 201 rmoveto
          114 13 114 114 vvcurveto
          75 -5 76 -7 75 vhcurveto
          1 -47 -47 1 -47 hhcurveto
          -25 -158 0 -30 -23 73 -13 18 -2 -61 callsubr
          -24 1 rlineto
          -54 callgsubr
          -12 -21 -1 -12 hvcurveto
          -4 2 -6 -9 -24 callgsubr
          60 59 -11 60 hhcurveto
          1 -25 1 -24 -25 -104 -9 -104 -104 vvcurveto
          -70 4 -131 23 -64 vhcurveto
          8 -40 -41 5 -41 hhcurveto
          -16 -16 -2 -3 -16 hvcurveto
          57 -11 57 -14 59 -3 1 -3 rcurveline
          -65 2 -64 13 -64 11 rrcurveto
          -12 -4 -32 -10 -16 vvcurveto
          -16 56 -14 13 -3 vhcurveto
          -5 -11 54 -8 55 -9 55 -4 rlinecurve
          -56 2 -56 8 -55 6 -2 -5 rcurveline
          -26 3 173 -4 30 hhcurveto
          31 30 6 5 30 hvcurveto
          -6 102 -25 101 103 vvcurveto
          -116 45 rmoveto
          72 4 73 3 72 vhcurveto
          5 hlineto
          -87 -4 -86 -87 vvcurveto
          -70 11 -69 13 -69 vhcurveto
          -27 7 -5 212 32 vvcurveto
          22 31 rmoveto
          -95 10 -94 16 -93 vhcurveto
          -24 7 -3 194 31 vvcurveto
          17 0 16 1 17 vhcurveto
          102 -335 rmoveto
          -6 76 -20 75 76 vvcurveto
          9 0 8 1 9 vhcurveto
          1 -85 17 -84 7 -84 rrcurveto
          -96 33 rmoveto
          29 -3 -26 -1 rlineto
          endchar
        </CharString>
        <CharString name="brokenbar">
          -421 169 713 rmoveto
          -9 -10 -3 -5 -8 hvcurveto
          -10 3 3 7 -1 10 -23 4 -8 3 rlinecurve
          -4 -11 -7 -10 -10 -7 -18 -63 -2 -167 -6 -65 6 38 5 139 4 38 rrcurveto
          -1 1 2 -1 1 hhcurveto
          -77 callgsubr
          hvcurveto
          1 -15 rlineto
          -30 -11 -130 -30 -4 1 -4 -3 vvcurveto
          -12 -9 -2 -14 0 -4 -3 -14 rlinecurve
          11 -14 17 38 1 134 7 49 rlinecurve
          -3 -45 -2 -156 -13 -24 rrcurveto
          -6 9 12 -3 11 hhcurveto
          8 8 2 5 7 hvcurveto
          8 vlineto
          16 -1 7 35 -1 138 17 32 rlinecurve
          -13 -34 -2 -136 -2 -35 6 -1 rcurveline
          11 2 6 8 hvcurveto
          5 -1 6 5 69 41 165 69 vvcurveto
          19 -18 9 -17 vhcurveto
          -535 vmoveto
          -14 -17 -7 -12 -8 hvcurveto
          -11 1 1 4 -11 8 rlineto
          -1 13 callsubr
          -5 -63 callsubr
          -55 callgsubr
          -10 -4 -9 -7 -8 vhcurveto
          -2 -17 0 -18 -17 vvcurveto
          -37 1 -78 3 -37 vhcurveto
          1 133 rlineto
          5 hlineto
          3 -10 1 -10 -10 -17 -3 -58 -17 vvcurveto
          -12 1 -11 5 -11 vhcurveto
          -11 -3 2 -20 -1 -35 25 -6 rlinecurve
          -3 38 -3 37 38 vvcurveto
          9 0 49 1 9 vhcurveto
          -47 13 -87 -47 vvcurveto
          11 -1 rlineto
          16 15 11 13 8 hvcurveto
          -3 6 15 7 rlineto
          -4 18 -2 19 19 vvcurveto
          13 2 12 5 12 vhcurveto
          -4 -17 -2 -18 -17 vvcurveto
          -13 5 -14 5 -12 vhcurveto
          6 2 5 6 4 5 -7 19 rcurveline
          12 45 0 87 46 vvcurveto
          19 0 58 -29 vhcurveto
          endchar
        </CharString>
        <CharString name="bullet">
          -280 83 215 rmoveto
          3 -10 38 8 -34 callgsubr
          12 16 5 callgsubr
          rrcurveto
          -1 -4 -4 -1 -5 -10 -11 2 -10 hhcurveto
          -7 -5 0 -3 -5 hvcurveto
          -17 callsubr
          70 74 rcurveline
          52 -36 11 7 29 23 13 5 rlinecurve
          3 1 1 5 7 -34 callsubr
          -48 55 -6 12 -10 9 -10 6 rlinecurve
          -125 -71 -4 1 116 72 -2 4 rlinecurve
          -2 4 -23 callsubr
          -44 -12 -73 -19 -42 -6 -2 6 rcurveline
          98 22 19 25 21 10 rrcurveto
          -3 6 -1 9 9 7 0 7 6 vvcurveto
          6 0 4 -2 vhcurveto
          -30 callgsubr
          hhcurveto
          -7 -4 -4 -8 -8 -2 -85 -27 -57 -4 -12 -7 -39 -34 rcurveline
          -42 callsubr
          -13 -18 vvcurveto
          -33 10 -49 13 -22 vhcurveto
          18 -32 -1 -37 13 -25 rrcurveto
          endchar
        </CharString>
        <CharString name="c">
          -54 callsubr
          -32 -11 -32 -9 -32 -6 32 7 34 11 30 -86 callgsubr
          -363 120 -31 callsubr
        </CharString>
        <CharString name="caron">
          -345 308 732 -97 callgsubr
        </CharString>
        <CharString name="caron.cap">
          -345 308 892 -97 callgsubr
        </CharString>
        <CharString name="ccedilla">
          -54 callsubr
          -31 -11 -30 -8 -30 -6 30 7 32 10 29 -86 callgsubr
          -80 -146 -83 callsubr
          -283 266 -31 callsubr
        </CharString>
        <CharString name="cedilla">
          -306 342 -92 -84 callsubr
          34 20 1 9 31 hvcurveto
          -7 -20 -7 -6 -25 -69 callgsubr
          48 -19 31 -2 48 -2 rrcurveto
          -57 -17 1 17 -55 -67 callsubr
          -119 -92 rmoveto
          -2 -42 callgsubr
          -1 hvcurveto
          1 -29 callsubr
          2 hhcurveto
          endchar
        </CharString>
        <CharString name="cent">
          -98 223 123 rmoveto
          3 -4 4 -2 4 -3 -10 1 rcurveline
          -6 -42 -19 -48 -42 vvcurveto
          1 -12 24 48 12 43 9 53 rlinecurve
          1 -1 -5 -55 -18 -53 -21 -51 rlinecurve
          -13 3 7 -28 17 hhcurveto
          11 18 35 9 4 hvcurveto
          14 -6 18 46 12 49 8 49 rlinecurve
          -4 -50 -11 -50 -19 -47 9 -3 rcurveline
          25 54 -31 121 26 15 15 -4 15 hhcurveto
          30 30 16 23 19 hvcurveto
          -15 -20 -26 -7 -25 hhcurveto
          -9 -42 0 10 -3 hvcurveto
          -1 12 13 -2 12 hhcurveto
          41 65 8 54 14 -7 22 -17 -11 -21 -32 -9 -6 hvcurveto
          -9 16 rlineto
          -5 -9 -10 0 -10 hhcurveto
          -12 -12 1 2 -12 hvcurveto
          1 3 rlineto
          -2 9 9 -1 9 hhcurveto
          12 12 2 4 11 hvcurveto
          12 -7 -7 2 -8 -6 -6 -1 -7 hhcurveto
          -19 1 12 100 22 98 11 100 rlinecurve
          22 21 -2 22 hhcurveto
          6 6 1 3 7 hvcurveto
          10 7 8 10 20 -17 15 -17 8 hvcurveto
          2 10 rlineto
          -4 14 18 -11 14 hhcurveto
          13 -5 20 4 12 hvcurveto
          -35 22 -43 -4 -40 8 rrcurveto
          6 28 7 42 29 vvcurveto
          12 -3 26 -17 -21 -17 -34 -16 -7 vhcurveto
          -11 2 rlineto
          2 8 2 8 8 vvcurveto
          19 -19 -3 -13 2 vhcurveto
          -7 -38 -8 -51 -10 -38 rrcurveto
          -29 -12 -214 -44 -187 vvcurveto
          -50 23 -50 28 -42 vhcurveto
          -30 47 -17 55 55 vvcurveto
          57 38 46 41 35 vhcurveto
          3 -5 rlineto
          -43 -43 -30 -42 -64 vvcurveto
          -93 72 -112 90 -30 vhcurveto
          -52 248 rmoveto
          75 50 19 45 15 vhcurveto
          -10 -72 -16 -98 -7 -73 rrcurveto
          -40 28 -22 58 48 vvcurveto
          100 79 rmoveto
          -3 -67 -16 -86 -11 -66 -6 4 rcurveline
          11 64 11 85 9 65 rrcurveto
          -42 -315 rmoveto
          -85 33 -49 90 -14 86 16 -86 52 -84 80 -39 rrcurveto
          33 86 rmoveto
          -3 2 4 30 4 30 5 30 rlinecurve
          -35 -102 rmoveto
          2 3 28 -23 rlineto
          -101 129 rmoveto
          6 -20 7 -19 9 -18 -13 17 -6 20 -3 20 rrcurveto
          -53 -115 rmoveto
          16 -26 26 -27 26 -16 -26 20 -23 24 -19 25 rrcurveto
          117 -70 rmoveto
          1 vlineto
          3 4 -2 -3 hvcurveto
          endchar
        </CharString>
        <CharString name="circumflex">
          -370 278 649 -106 callsubr
        </CharString>
        <CharString name="circumflex.cap">
          -370 278 809 -106 callsubr
        </CharString>
        <CharString name="colon">
          -358 267 475 rmoveto
          5 -2 7 -1 5 vhcurveto
          -5 hlineto
          1 16 -26 9 -28 -2 -26 10 rlinecurve
          26 -7 27 -2 27 -2 1 7 rcurveline
          10 -4 3 -5 vhcurveto
          -4 -5 -2 -5 -26 -25 12 -26 hhcurveto
          -43 -45 -26 -37 -23 hvcurveto
          -22 31 -13 18 vhcurveto
          7 -8 -3 -4 11 -14 12 -5 14 -10 rlinecurve
          14 70 6 14 vhcurveto
          2 -10 -11 1 -10 hhcurveto
          -9 -10 -3 -3 -9 hvcurveto
          -2 5 rlineto
          7 6 10 1 11 6 7 -1 7 hhcurveto
          5 5 1 1 5 -61 callsubr
          -2 callgsubr
          -2 7 -3 4 3 2 4 2 4 rrcurveto
          17 -18 -25 1 -23 -2 -3 -29 callgsubr
          2 6 7 1 7 hhcurveto
          14 32 -4 -10 10 hvcurveto
          1 12 6 13 1 13 rrcurveto
          -16 -443 rmoveto
          4 11 3 12 12 vvcurveto
          6 -1 7 -2 6 vhcurveto
          -4 1 1 16 -19 9 -23 2 -17 13 rlinecurve
          19 -11 20 -4 21 -4 rrcurveto
          7 -2 7 -4 6 vhcurveto
          -10 -1 rlineto
          -15 -40 25 -12 -8 -10 1 -10 hhcurveto
          -23 -22 -4 -27 -13 2 -15 8 -10 -61 callsubr
          -3 1 rlineto
          -3 -5 -1 -7 -6 vvcurveto
          -30 38 -3 35 vhcurveto
          11 11 0 9 hhcurveto
          3 -16 -18 5 -15 hhcurveto
          5 2 6 4 6 16 8 -9 17 2 2 1 3 hhcurveto
          -11 vlineto
          8 -1 7 -3 7 -3 4 3 4 4 2 4 -21 18 -24 1 -25 8 28 -3 18 -6 26 -11 rrcurveto
          endchar
        </CharString>
        <CharString name="comma">
          -378 80 -113 rmoveto
          -2 3 8 -5 4 hhcurveto
          10 77 70 11 15 hvcurveto
          43 33 27 75 53 vvcurveto
          17 -5 27 -22 -18 -14 -13 -14 -9 11 callsubr
          7 -2 5 -7 -9 -10 -3 -3 -8 vhcurveto
          -71 -54 -37 -45 -44 vhcurveto
          27 20 38 26 13 32 5 -3 rcurveline
          -4 -30 -54 -26 -18 -28 -8 8 rcurveline
          -12 -10 -31 -22 -17 vvcurveto
          1 -9 41 29 38 32 38 33 rlinecurve
          -33 -36 -41 -37 -40 -29 rrcurveto
          -17 4 18 -15 18 hhcurveto
          9 6 14 -9 28 28 32 26 35 19 rlinecurve
          -34 -21 -32 -25 -26 -31 rrcurveto
          endchar
        </CharString>
        <CharString name="commaaccent">
          -449 194 -69 -94 callgsubr
        </CharString>
        <CharString name="copyright">
          348 535 -63 rmoveto
          332 106 31 360 72 -9 76 -40 62 hvcurveto
          9 6 rlineto
          114 -77 -234 167 -140 hhcurveto
          -14 -13 0 -1 -14 hvcurveto
          93 -12 87 -41 78 -52 rrcurveto
          57 -89 -103 43 -107 hhcurveto
          -25 -62 -23 -29 -4 hvcurveto
          8 -5 rlineto
          1 35 36 0 36 hhcurveto
          12 14 -1 -7 9 hvcurveto
          -6 -9 rlineto
          6 -26 -27 4 -27 hhcurveto
          -171 -152 -161 -169 -301 183 -188 302 hvcurveto
          -362 504 rmoveto
          91 125 113 89 45 43 -21 -1 45 vhcurveto
          15 7 rlineto
          45 -41 -64 34 -62 hhcurveto
          11 vlineto
          41 38 -17 41 hhcurveto
          7 4 1 9 hvcurveto
          89 -29 165 -93 58 -72 rrcurveto
          49 -61 6 -77 -76 vvcurveto
          -173 -14 -84 -199 vhcurveto
          -90 hlineto
          -93 -99 5 68 -71 hvcurveto
          -92 87 -35 108 125 vvcurveto
          257 -266 rmoveto
          -23 51 -21 31 59 vvcurveto
          39 5 39 10 38 vhcurveto
          3 -2 3 2 rlineto
          -7 -43 -5 -43 -44 vvcurveto
          -106 52 -51 103 -13 vhcurveto
          -2 -11 rlineto
          -9 40 41 -11 41 hhcurveto
          13 12 3 6 11 hvcurveto
          -130 27 -168 -9 180 vvcurveto
          14 -184 159 21 136 -29 rrcurveto
          11 7 15 10 15 vvcurveto
          10 -9 8 -8 4 vhcurveto
          -21 2 2 16 -57 7 -109 -1 -40 46 rlinecurve
          50 -41 96 -1 62 -5 1 5 rcurveline
          22 -152 8 -39 24 vhcurveto
          -10 6 rlineto
          -1 14 -4 10 11 vvcurveto
          45 16 43 5 45 vhcurveto
          1 1 rlineto
          9 3 10 3 9 hhcurveto
          31 25 -15 -14 26 hvcurveto
          -1 2 0 1 -77 callgsubr
          1 vhcurveto
          7 -2 11 5 12 24 -9 28 7 7 rlineto
          -7 6 15 -22 10 hhcurveto
          6 12 9 2 6 hvcurveto
          62 -27 -65 46 -69 hhcurveto
          -135 -40 -123 -114 -39 11 -90 37 -21 hvcurveto
          59 -246 rmoveto
          -6 33 34 0 34 hhcurveto
          171 212 33 217 hvcurveto
          -209 -27 -182 -39 -174 hhcurveto
          -35 -34 2 2 -32 hvcurveto
          470 361 rmoveto
          -83 -2 -101 -59 -65 vhcurveto
          56 67 2 114 83 vvcurveto
          139 -8 64 -102 100 vhcurveto
          112 -82 1 -109 -127 vvcurveto
          -497 454 rmoveto
          103 -19 86 -48 81 -65 -81 60 -92 44 -97 28 rrcurveto
          -181 -760 rmoveto
          63 -38 73 -14 72 -3 -72 9 -72 16 -64 36 rrcurveto
          312 -38 rmoveto
          173 14 -9 -3 -9 -2 -9 -1 rlinecurve
          149 366 rmoveto
          -58 -1 -60 -12 -57 vhcurveto
          8 54 4 54 54 vvcurveto
          23 -1 24 -1 23 vhcurveto
          2 -6 callgsubr
          -19 vvcurveto
          -458 -151 rmoveto
          13 -24 28 -11 26 -8 -25 9 -22 17 -20 17 rrcurveto
          396 358 rmoveto
          2 -4 -8 7 -7 8 -7 7 rlinecurve
          -318 -281 rmoveto
          6 -20 -3 6 -2 7 -1 7 rlinecurve
          endchar
        </CharString>
        <CharString name="currency">
          63 683 115 rmoveto
          2 6 1 7 7 vvcurveto
          54 -12 32 -37 40 vhcurveto
          10 29 6 30 31 vvcurveto
          53 -13 55 -30 44 vhcurveto
          5 10 6 13 12 3 -8 -1 -8 -2 -3 -8 -5 6 rcurveline
          13 19 -8 4 10 vhcurveto
          5 -10 10 -2 1 4 rlineto
          9 -10 8 -9 -8 -7 -4 -2 -8 vhcurveto
          15 callsubr
          2 5 3 3 -1 4 hhcurveto
          2 2 -47 callgsubr
          11 -4 -3 24 -13 21 -3 24 rlinecurve
          -23 -21 -8 -3 -22 hvcurveto
          21 6 22 8 22 2 -2 7 -3 6 -5 5 -16 -7 rcurveline
          -8 1 rlineto
          -37 -33 -27 -33 -15 hvcurveto
          -10 8 -16 2 -12 3 3 10 rcurveline
          22 -62 -82 29 -72 hhcurveto
          -15 -15 -1 -3 -14 hvcurveto
          9 -15 -7 27 -20 hhcurveto
          -20 -21 -26 -19 hvcurveto
          -8 -7 -7 6 -10 -2 -9 -12 -8 -6 rlinecurve
          7 -8 2 -9 -10 vvcurveto
          23 -27 28 -22 28 -21 rrcurveto
          -11 -33 -9 -35 -35 vvcurveto
          -37 3 -37 10 -35 vhcurveto
          -37 -16 -31 -25 -26 -30 24 24 28 19 29 17 2 -5 rcurveline
          -21 -25 -42 -4 -12 -33 -15 1 rcurveline
          -8 -9 -11 -10 -13 vvcurveto
          7 -14 24 28 25 30 33 18 rlinecurve
          -22 -14 -37 -45 -18 -22 rrcurveto
          -12 12 16 -6 17 hhcurveto
          9 6 16 -5 rlineto
          14 11 14 18 20 hhcurveto
          -20 -4 -12 -13 -9 -17 16 -4 rcurveline
          12 19 47 30 21 hhcurveto
          -41 49 66 -19 63 hhcurveto
          48 47 12 22 43 hvcurveto
          10 -20 7 -23 3 -22 rrcurveto
          20 0 23 -12 17 vhcurveto
          5 2 19 -8 -10 -37 9 -16 rlinecurve
          -11 -7 rlineto
          -7 vlineto
          -12 3 -13 14 -2 vhcurveto
          2 12 1 11 11 vvcurveto
          18 -2 19 -2 18 vhcurveto
          5 -16 5 -30 -23 vvcurveto
          -8 -1 -7 -1 -6 vhcurveto
          10 -1 rlineto
          15 17 7 10 11 hvcurveto
          -2 5 16 5 rlineto
          16 -2 15 16 vvcurveto
          8 1 8 1 9 vhcurveto
          -20 vlineto
          -17 1 -18 4 -16 vhcurveto
          6 2 6 4 5 4 rrcurveto
          -407 325 rmoveto
          15 0 18 10 12 vhcurveto
          -6 4 2 8 9 -6 rlineto
          9 11 4 12 13 vvcurveto
          9 -12 8 -15 7 vhcurveto
          63 -10 102 -22 48 -46 rrcurveto
          26 -25 14 -34 -36 vvcurveto
          -77 -47 -26 -71 -117 -19 61 104 vhcurveto
          369 -67 rmoveto
          -31 -4 -32 -12 -29 vhcurveto
          -6 6 rlineto
          11 29 4 30 31 vvcurveto
          42 -7 61 -30 32 9 callsubr
          28 -43 13 -51 -51 vvcurveto
          -244 -219 rmoveto
          -2 6 rlineto
          49 50 10 24 43 hvcurveto
          6 -7 rlineto
          -25 -44 -52 -8 -50 hhcurveto
          -167 487 rmoveto
          -11 8 67 -2 76 -21 68 -24 rlinecurve
          -64 22 -69 12 -67 5 rrcurveto
          377 -346 rmoveto
          8 23 3 24 24 vvcurveto
          50 -14 52 -27 42 vhcurveto
          37 -20 6 -82 -37 vvcurveto
          -26 -2 -26 -11 -24 vhcurveto
          -315 269 rmoveto
          46 -10 46 -12 45 -16 -46 12 -46 11 -45 15 rrcurveto
          -152 -6 rmoveto
          3 4 11 -4 9 -6 9 -8 rlinecurve
          -3 -9 rlineto
          365 -96 rmoveto
          -3 17 -24 32 -7 6 15 -2 17 -40 2 -13 rrcurveto
          11 -55 rmoveto
          -1 -21 rlineto
          7 vlineto
          18 -3 18 -3 18 vhcurveto
          4 -13 3 -14 -13 vvcurveto
          -53 194 rmoveto
          -2 vlineto
          -17 8 -17 8 -18 6 18 -6 17 -8 17 -6 rrcurveto
          endchar
        </CharString>
        <CharString name="d">
          -17 581 751 rmoveto
          26 -9 -8 11 -13 hhcurveto
          -8 -12 -9 -16 -7 hvcurveto
          -18 3 -30 0 vhcurveto
          -4 -1 -2 -2 -3 hhcurveto
          -2 -4 3 3 -3 hvcurveto
          3 -31 1 -30 -30 vvcurveto
          -50 -3 -49 -4 -50 vhcurveto
          2 39 2 39 39 vvcurveto
          21 0 106 -12 -7 -4 -8 -32 vhcurveto
          -25 4 -50 -47 vvcurveto
          -22 -1 -21 -2 -18 vhcurveto
          -4 -44 -2 2 -9 12 -42 18 -63 9 rlinecurve
          9 vlineto
          -1 17 14 -1 11 hhcurveto
          32 7 5 7 hvcurveto
          5 -4 5 6 vvcurveto
          2 -4 callgsubr
          2 vhcurveto
          2 -46 -45 3 -48 hhcurveto
          -209 -54 -115 -100 hvcurveto
          -15 3 -12 -15 vvcurveto
          -180 40 120 -127 124 13 12 1 12 hhcurveto
          30 hlineto
          -3 9 12 0 54 hhcurveto
          11 2 37 1 24 24 12 18 rcurveline
          3 3 rlineto
          8 21 1 8 14 vvcurveto
          -2 -12 -3 -13 -7 -12 -3 -6 rcurveline
          -3 -6 -1 -2 -5 -7 rrcurveto
          -29 -29 -37 -1 -20 hhcurveto
          -20 -16 0 3 -16 hvcurveto
          -84 hlineto
          -71 7 -65 42 -44 59 rrcurveto
          1 2 2 2 2 vvcurveto
          96 -129 96 30 72 -9 rrcurveto
          64 hlineto
          21 17 0 39 39 hvcurveto
          3 vlineto
          7 20 11 65 95 vvcurveto
          9 171 9 3 rlineto
          6 84 9 84 90 vvcurveto
          -3 18 0 18 -6 15 -3 24 -5 10 -4 5 rrcurveto
          1 -24 1 -26 -28 vvcurveto
          -182 -24 -165 -8 -169 vhcurveto
          -6 -28 9 -39 -15 -29 -9 -18 rcurveline
          -21 -11 -46 -3 -7 hhcurveto
          -6 hlineto
          21 2 20 -3 35 40 rrcurveto
          -18 callsubr
          8 4 vvcurveto
          12 vlineto
          3 18 0 15 15 vvcurveto
          10 187 21 157 161 vvcurveto
          38 -1 37 -3 38 vhcurveto
          -162 -300 rmoveto
          39 22 4 6 8 hvcurveto
          -12 -113 -12 -122 -111 vvcurveto
          -9 -11 1 2 -10 hvcurveto
          -24 hlineto
          3 -6 -3 0 -6 hhcurveto
          -57 hlineto
          -85 9 -80 145 89 vvcurveto
          9 81 149 2 88 4 rrcurveto
          72 -207 rmoveto
          6 63 3 63 6 63 -4 -75 1 -88 -15 -74 rrcurveto
          18 3 15 15 vvcurveto
          87 -108 rmoveto
          -8 1 -10 -10 -6 -1 -7 -6 vvcurveto
          4 15 -1 39 1 40 rrcurveto
          -2 -17 -2 -15 -15 vvcurveto
          15 162 rmoveto
          -2 36 -4 -61 2 9 1 9 3 7 rlinecurve
          -7 -35 rmoveto
          -3 -23 -1 -28 -27 vvcurveto
          1 11 1 12 12 vvcurveto
          -102 -110 rmoveto
          1 -1 0 1 vvcurveto
          4 39 rlineto
          -3 vlineto
          -13 -2 -13 -1 -12 vhcurveto
          3 68 rmoveto
          0 2 -41 callgsubr
          vhcurveto
          -11 vlineto
          -2 -7 0 -5 -1 -5 rrcurveto
          endchar
        </CharString>
        <CharString name="degree">
          -240 225 529 rmoveto
          81 79 46 89 9 -1 8 -2 9 hvcurveto
          1 -7 0 -8 -6 vvcurveto
          -86 -72 -50 -85 -41 -41 6 25 -34 vhcurveto
          1 2 2 2 hvcurveto
          -20 34 39 -6 39 hhcurveto
          76 76 34 86 26 -8 25 -15 21 hvcurveto
          10 6 rlineto
          43 -27 -54 47 -55 hhcurveto
          -9 -7 0 -3 -9 hvcurveto
          6 vlineto
          -9 26 rlineto
          -84 -29 -60 -58 -93 vvcurveto
          -102 81 -48 94 vhcurveto
          -53 145 rmoveto
          22 12 20 14 16 vhcurveto
          6 -22 66 15 -59 vvcurveto
          -14 -17 -5 -11 -16 -54 1 26 vhcurveto
          27 151 rmoveto
          80 -15 84 -56 -90 vvcurveto
          -67 -63 -38 -60 -4 vhcurveto
          64 10 56 32 72 vvcurveto
          90 -92 53 -80 6 vhcurveto
          19 -77 rmoveto
          5 4 rlineto
          35 -9 45 -30 -40 vvcurveto
          -14 -11 -15 -14 vhcurveto
          12 3 12 12 14 vvcurveto
          43 -47 26 -37 6 vhcurveto
          endchar
        </CharString>
        <CharString name="dieresis">
          -232 414 714 rmoveto
          14 -8 6 -12 3 vhcurveto
          -1 7 6 0 8 hhcurveto
          9 0 11 -27 callgsubr
          -4 -2 -4 -19 -44 20 -9 -12 -2 -5 -11 -7 -7 1 -6 hhcurveto
          -14 -11 -20 callgsubr
          4 -17 8 -8 -61 callsubr
          -1 -1 1 -1 -19 callgsubr
          -8 -8 -32 6 19 13 -17 hvcurveto
          6 hlineto
          25 13 2 24 hhcurveto
          8 9 0 -1 8 hvcurveto
          2 -13 -12 3 -13 hhcurveto
          -7 -6 0 -1 -6 hvcurveto
          8 11 2 6 vhcurveto
          13 14 -7 13 -46 callgsubr
          -53 callgsubr
          4 -10 8 -2 15 -1 8 -3 rlinecurve
          -77 callgsubr
          -20 callsubr
          3 4 -74 callsubr
          -25 18 -27 -2 -26 5 rrcurveto
          6 6 1 6 hhcurveto
          9 37 -6 -8 14 hvcurveto
          3 -2 rlineto
          3 -21 callsubr
          12 vvcurveto
          8 -1 9 -3 7 vhcurveto
          -260 10 rmoveto
          5 1 6 5 vvcurveto
          -15 8 -37 0 -18 11 19 -8 35 -2 17 -4 rrcurveto
          3 -4 callgsubr
          vvcurveto
          8 -2 3 -3 vhcurveto
          -3 -4 -1 -3 -16 -53 17 -5 hhcurveto
          -13 -40 -8 -19 -16 7 -24 9 -9 hvcurveto
          -49 callgsubr
          -4 0 -1 -3 -29 -21 callsubr
          -13 hvcurveto
          4 hlineto
          3 17 36 6 15 hhcurveto
          5 4 -1 -1 4 hvcurveto
          3 -7 -28 2 -7 hhcurveto
          -6 -5 -1 -2 -5 9 callgsubr
          -1 -1 callgsubr
          -57 callsubr
          7 28 -4 6 hhcurveto
          3 -43 callsubr
          hvcurveto
          3 -12 4 -1 1 -1 4 -3 rlinecurve
          2 1 5 6 2 hvcurveto
          -9 18 -37 1 -17 2 rrcurveto
          3 24 2 4 hhcurveto
          11 18 -9 -5 4 -20 callsubr
          2 9 rlineto
          2 10 3 12 12 vvcurveto
          4 0 3 -1 4 vhcurveto
          184 27 rmoveto
          12 -5 9 -4 11 -2 -10 2 -12 2 -10 7 rrcurveto
          29 -102 rmoveto
          -5 hlineto
          endchar
        </CharString>
        <CharString name="dieresis.cap">
          -232 414 874 rmoveto
          14 -8 6 -12 3 vhcurveto
          -1 7 6 0 8 hhcurveto
          9 0 11 -27 callgsubr
          -4 -2 -4 -19 -44 20 -9 -12 -2 -5 -11 -7 -7 1 -6 hhcurveto
          -14 -11 -20 callgsubr
          4 -17 8 -8 -61 callsubr
          -1 -1 1 -1 -19 callgsubr
          -8 -8 -32 6 19 13 -17 hvcurveto
          6 hlineto
          25 13 2 24 hhcurveto
          8 9 0 -1 8 hvcurveto
          2 -13 -12 3 -13 hhcurveto
          -7 -6 0 -1 -6 hvcurveto
          8 11 2 6 vhcurveto
          13 14 -7 13 -46 callgsubr
          -53 callgsubr
          4 -10 8 -2 15 -1 8 -3 rlinecurve
          -77 callgsubr
          -20 callsubr
          3 4 -74 callsubr
          -25 18 -27 -2 -26 5 rrcurveto
          6 6 1 6 hhcurveto
          9 37 -6 -8 14 hvcurveto
          3 -2 rlineto
          3 -21 callsubr
          12 vvcurveto
          8 -1 9 -3 7 vhcurveto
          -260 10 rmoveto
          5 1 6 5 vvcurveto
          -15 8 -37 0 -18 11 19 -8 35 -2 17 -4 rrcurveto
          3 -4 callgsubr
          vvcurveto
          8 -2 3 -3 vhcurveto
          -3 -4 -1 -3 -16 -53 17 -5 hhcurveto
          -13 -40 -8 -19 -16 7 -24 9 -9 hvcurveto
          -49 callgsubr
          -4 0 -1 -3 -29 -21 callsubr
          -13 hvcurveto
          4 hlineto
          3 17 36 6 15 hhcurveto
          5 4 -1 -1 4 hvcurveto
          3 -7 -28 2 -7 hhcurveto
          -6 -5 -1 -2 -5 9 callgsubr
          -1 -1 callgsubr
          -57 callsubr
          7 28 -4 6 hhcurveto
          3 -43 callsubr
          hvcurveto
          3 -12 4 -1 1 -1 4 -3 rlinecurve
          2 1 5 6 2 hvcurveto
          -9 18 -37 1 -17 2 rrcurveto
          3 24 2 4 hhcurveto
          11 18 -9 -5 4 -20 callsubr
          2 9 rlineto
          2 10 3 12 12 vvcurveto
          4 0 3 -1 4 vhcurveto
          184 27 rmoveto
          12 -5 9 -4 11 -2 -10 2 -12 2 -10 7 rrcurveto
          29 -102 rmoveto
          -5 hlineto
          endchar
        </CharString>
        <CharString name="divide">
          -188 436 308 rmoveto
          -66 callgsubr
          -53 4 -54 -2 -52 13 rrcurveto
          -9 53 54 -1 53 hhcurveto
          15 -11 4 -14 vhcurveto
          -10 -12 -2 -7 -68 -67 18 -69 -33 -31 19 -33 hhcurveto
          -16 -12 -16 -15 -11 4 -12 9 -7 hvcurveto
          -4 -10 rlineto
          1 -3 -6 3 -3 hhcurveto
          -15 1 -20 -8 -7 hvcurveto
          21 -10 18 -18 23 -6 rrcurveto
          -15 55 59 -3 57 hhcurveto
          21 21 1 1 21 hvcurveto
          -44 1 -44 4 -44 1 rrcurveto
          5 vlineto
          2 12 11 1 12 33 33 -7 33 hhcurveto
          11 11 1 2 11 hvcurveto
          7 -11 rlineto
          -1 20 12 -2 20 14 callsubr
          6 6 5 hvcurveto
          -60 19 -63 -7 -62 6 66 1 rcurveline
          1 2 0 2 40 39 -12 40 hhcurveto
          -26 callsubr
          8 -6 6 vhcurveto
          -132 -190 rmoveto
          12 -6 7 -11 4 vhcurveto
          17 -2 1 8 -7 12 rlineto
          -1 -2 -4 -1 -2 -26 -24 20 -25 hhcurveto
          -22 -26 -3 -28 -13 2 -15 8 -11 -61 callsubr
          -7 -12 rlineto
          -21 6 2 10 -15 vhcurveto
          19 20 3 20 hhcurveto
          9 10 -1 -2 10 hvcurveto
          4 -13 -12 2 -13 -5 -4 -1 -5 hhcurveto
          5 9 5 5 vhcurveto
          14 5 -6 11 hhcurveto
          4 3 1 2 callsubr
          3 -12 17 -4 7 11 -17 17 -24 0 -22 5 rlinecurve
          16 1 rlineto
          -13 callgsubr
          16 14 -16 16 -77 callgsubr
          hhcurveto
          3 10 1 11 10 vvcurveto
          -2 callgsubr
          -2 8 vhcurveto
          -141 396 rmoveto
          -2 -10 rlineto
          -1 -2 -3 -7 -2 vvcurveto
          -51 57 17 32 -13 vhcurveto
          -15 8 -16 6 -16 5 rrcurveto
          1 2 4 2 3 13 9 -13 14 hhcurveto
          1 2 -47 callgsubr
          -11 vlineto
          17 -8 8 10 -14 18 -21 5 -20 9 rlinecurve
          12 -1 42 -12 4 -13 rrcurveto
          8 12 3 16 15 vvcurveto
          -1 11 -3 1 3 16 -49 27 1 1 15 -11 16 -7 18 -5 rlinecurve
          1 12 rlineto
          14 -101 26 -14 -16 -4 -15 -13 -13 2 -15 7 -11 vhcurveto
          endchar
        </CharString>
        <CharString name="dollar">
          -36 214 156 rmoveto
          -9 -7 rlineto
          -3 -5 -27 -2 -27 hhcurveto
          -26 -26 2 2 -9 hvcurveto
          -31 -12 16 -18 -18 -17 69 -15 -4 -10 rlineto
          30 30 2 3 30 hvcurveto
          -3 -12 -86 8 -5 -11 rrcurveto
          -10 7 20 -2 20 hhcurveto
          18 19 2 2 10 hvcurveto
          2 -39 -1 -43 24 -33 rrcurveto
          -4 40 -1 39 40 vvcurveto
          6 1 -12 -17 hvcurveto
          -10 0 -13 -13 vvcurveto
          -44 4 -51 44 13 0 28 9 1 vhcurveto
          -6 24 9 3 8 -1 callsubr
          5 -7 63 17 vvcurveto
          3 -29 5 -27 6 -29 rrcurveto
          11 3 12 9 hvcurveto
          32 -11 31 32 vvcurveto
          114 159 56 136 104 -100 129 -110 -7 -7 1 1 -7 hvcurveto
          7 43 6 52 10 43 34 -5 32 -5 42 -22 rrcurveto
          8 1 6 9 8 vvcurveto
          29 -40 23 -23 9 vhcurveto
          2 10 25 -8 25 -10 25 -10 rlinecurve
          13 -8 21 1 13 hvcurveto
          -40 33 -40 5 -47 16 rrcurveto
          5 21 6 21 22 vvcurveto
          11 -2 18 -15 -21 -22 -33 -17 -8 vhcurveto
          -10 3 rlineto
          4 10 4 11 11 vvcurveto
          20 -20 -12 -10 10 vhcurveto
          -15 -4 -18 -68 -18 hhcurveto
          -105 -124 -37 -126 -99 86 -62 85 -30 hvcurveto
          -8 -79 -4 -79 -4 -79 -33 -5 -34 -3 -32 -11 rrcurveto
          -1 13 13 0 13 hhcurveto
          22 22 1 2 25 hvcurveto
          268 114 rmoveto
          -41 -43 -14 -32 -12 vhcurveto
          -10 8 -25 -7 -26 -5 -25 -6 rlinecurve
          5 64 4 64 13 63 rrcurveto
          -1 14 13 -1 16 hhcurveto
          4 -14 -15 2 -14 hhcurveto
          2 9 rlineto
          -1 14 13 -1 14 hhcurveto
          43 53 -86 -39 hvcurveto
          -294 365 rmoveto
          68 13 -7 -33 -7 -43 -5 -33 rlinecurve
          -22 11 -43 28 27 vvcurveto
          8 12 11 4 11 vhcurveto
          37 -226 rmoveto
          9 -3 rlineto
          -11 -77 -9 -77 -78 vvcurveto
          -8 -1 6 79 5 78 8 79 rlinecurve
          249 -134 rmoveto
          -15 -7 -9 -5 -13 vhcurveto
          9 9 5 11 13 vvcurveto
          50 -31 36 -40 18 vhcurveto
          33 -20 36 -53 -27 vvcurveto
          26 -5 rmoveto
          -21 -10 -27 -22 -6 vhcurveto
          17 13 11 17 22 vvcurveto
          54 -47 65 -50 18 vhcurveto
          49 -15 52 -68 -52 vvcurveto
          -343 176 rmoveto
          1 5 20 -12 36 -12 22 -7 rlinecurve
          -1 -8 -22 8 -36 14 -20 12 rlinecurve
          142 -257 rmoveto
          43 7 43 8 42 vhcurveto
          -6 -42 3 -45 -12 -41 rrcurveto
          -70 -13 rmoveto
          -2 hlineto
          4 66 2 66 10 65 -7 -65 -1 -66 -6 -66 rrcurveto
          309 6 rmoveto
          -15 -15 -13 -13 -19 -9 17 10 23 25 11 16 rrcurveto
          -225 -98 rmoveto
          62 9 rlineto
          -5 -19 -11 -6 -17 hhcurveto
          -4 -5 1 1 -6 hvcurveto
          247 211 rmoveto
          3 -13 2 -13 -13 vvcurveto
          -23 -5 -23 -12 -19 vhcurveto
          11 24 4 21 23 vvcurveto
          12 -1 11 -2 13 vhcurveto
          -244 -139 rmoveto
          2 vlineto
          73 15 -24 -7 -24 -6 -25 -4 rlinecurve
          endchar
        </CharString>
        <CharString name="dotaccentcmb">
          -457 188 771 -86 callsubr
          4 hhcurveto
          1 -9 -9 -84 callgsubr
        </CharString>
        <CharString name="dotaccentcmb.cap">
          -674 -3 931 -85 callgsubr
        </CharString>
        <CharString name="dotlessi">
          -99 callgsubr
          endchar
        </CharString>
        <CharString name="dotlessj">
          -89 callsubr
          endchar
        </CharString>
        <CharString name="e">
          -102 414 -18 -93 callgsubr
          -16 -75 callgsubr
          -87 -102 -41 -73 -79 hvcurveto
          -62 -73 -29 -90 -88 -72 callsubr
          156 90 181 246 24 vhcurveto
          4 -3 -63 -9 -45 -21 -48 -24 rlinecurve
          -36 -18 -51 -30 -15 -30 -24 -33 rcurveline
          -32 -55 -21 -65 -67 vvcurveto
          -46 10 -46 22 -45 vhcurveto
          -9 -8 rlineto
          -86 43 81 -66 100 -80 callgsubr
          88 32 107 71 56 hvcurveto
          -70 -60 -30 -105 -85 -79 callsubr
          396 rmoveto
          -19 2 -19 4 -20 4 rrcurveto
          47 27 128 39 37 -77 callsubr
          -95 -59 -70 callgsubr
          -28 -227 rmoveto
          -12 11 -8 11 -6 12 7 -12 10 -11 9 -11 rrcurveto
          endchar
        </CharString>
        <CharString name="eacute">
          -102 414 -18 -93 callgsubr
          -16 -75 callgsubr
          -87 -102 -41 -73 -79 hvcurveto
          -62 -73 -29 -90 -88 -72 callsubr
          156 90 181 246 24 vhcurveto
          4 -3 -63 -9 -45 -21 -48 -24 rlinecurve
          -36 -18 -51 -30 -15 -30 -24 -33 rcurveline
          -32 -55 -21 -65 -67 vvcurveto
          -46 10 -46 22 -45 vhcurveto
          -9 -8 rlineto
          -86 43 81 -66 100 -80 callgsubr
          88 32 107 71 56 hvcurveto
          -70 -60 -30 -105 -85 -79 callsubr
          396 rmoveto
          -19 2 -19 4 -20 4 rrcurveto
          47 27 128 39 37 -77 callsubr
          -95 -59 -70 callgsubr
          -28 -227 rmoveto
          -12 11 -8 11 -6 12 7 -12 10 -11 9 -11 rrcurveto
          7 517 -107 callsubr
        </CharString>
        <CharString name="ecircumflex">
          -102 414 -38 -93 callgsubr
          -16 -75 callgsubr
          -87 -102 -41 -73 -79 hvcurveto
          -62 -73 -29 -90 -88 -72 callsubr
          156 90 181 246 24 vhcurveto
          4 -3 -63 -9 -45 -21 -48 -24 rlinecurve
          -36 -18 -51 -30 -15 -30 -24 -33 rcurveline
          -32 -55 -21 -65 -67 vvcurveto
          -46 10 -46 22 -45 vhcurveto
          -9 -8 rlineto
          -86 43 81 -66 100 -80 callgsubr
          88 32 107 71 56 hvcurveto
          -70 -60 -30 -105 -85 -79 callsubr
          396 rmoveto
          -19 2 -19 4 -20 4 rrcurveto
          47 27 128 39 37 -77 callsubr
          -95 -59 -70 callgsubr
          -28 -227 rmoveto
          -12 11 -8 11 -6 12 7 -12 10 -11 9 -11 rrcurveto
          250 622 -106 callsubr
        </CharString>
        <CharString name="edieresis">
          -102 414 -38 -93 callgsubr
          -16 -75 callgsubr
          -87 -102 -41 -73 -79 hvcurveto
          -62 -73 -29 -90 -88 -72 callsubr
          156 90 181 246 24 vhcurveto
          4 -3 -63 -9 -45 -21 -48 -24 rlinecurve
          -36 -18 -51 -30 -15 -30 -24 -33 rcurveline
          -32 -55 -21 -65 -67 vvcurveto
          -46 10 -46 22 -45 vhcurveto
          -9 -8 rlineto
          -86 43 81 -66 100 -80 callgsubr
          88 32 107 71 56 hvcurveto
          -70 -60 -30 -105 -85 -79 callsubr
          396 rmoveto
          -19 2 -19 4 -20 4 rrcurveto
          47 27 128 39 37 -77 callsubr
          -95 -59 -70 callgsubr
          -28 -227 rmoveto
          -12 11 -8 11 -6 12 7 -12 10 -11 9 -11 rrcurveto
          277 667 rmoveto
          14 -8 6 -12 3 vhcurveto
          -1 7 6 0 8 hhcurveto
          9 0 11 -27 callgsubr
          -4 -2 -4 -19 -44 20 -9 -12 -2 -5 -11 -7 -7 1 -6 hhcurveto
          -14 -11 -20 callgsubr
          4 -17 8 -8 -61 callsubr
          -1 -1 1 -1 -19 callgsubr
          -8 -8 -32 6 19 13 -17 hvcurveto
          6 hlineto
          25 13 2 24 hhcurveto
          8 9 0 -1 8 hvcurveto
          2 -13 -12 3 -13 hhcurveto
          -7 -6 0 -1 -6 hvcurveto
          8 11 2 6 vhcurveto
          13 14 -7 13 -46 callgsubr
          -53 callgsubr
          4 -10 8 -2 15 -1 8 -3 rlinecurve
          -77 callgsubr
          -20 callsubr
          3 4 -74 callsubr
          -25 18 -27 -2 -26 5 rrcurveto
          6 6 1 6 hhcurveto
          9 37 -6 -8 14 hvcurveto
          3 -2 rlineto
          3 -21 callsubr
          12 vvcurveto
          8 -1 9 -3 7 vhcurveto
          -260 10 rmoveto
          5 1 6 5 vvcurveto
          -15 8 -37 0 -18 11 19 -8 35 -2 17 -4 rrcurveto
          3 -4 callgsubr
          vvcurveto
          8 -2 3 -3 vhcurveto
          -3 -4 -1 -3 -16 -53 17 -5 hhcurveto
          -13 -40 -8 -19 -16 7 -24 9 -9 hvcurveto
          -49 callgsubr
          -4 0 -1 -3 -29 -21 callsubr
          -13 hvcurveto
          4 hlineto
          3 17 36 6 15 hhcurveto
          5 4 -1 -1 4 hvcurveto
          3 -7 -28 2 -7 hhcurveto
          -6 -5 -1 -2 -5 9 callgsubr
          -1 -1 callgsubr
          -57 callsubr
          7 28 -4 6 hhcurveto
          3 -43 callsubr
          hvcurveto
          3 -12 4 -1 1 -1 4 -3 rlinecurve
          2 1 5 6 2 hvcurveto
          -9 18 -37 1 -17 2 rrcurveto
          3 24 2 4 hhcurveto
          11 18 -9 -5 4 -20 callsubr
          2 9 rlineto
          2 10 3 12 12 vvcurveto
          4 0 3 -1 4 vhcurveto
          184 27 rmoveto
          12 -5 9 -4 11 -2 -10 2 -12 2 -10 7 rrcurveto
          29 -102 rmoveto
          -5 hlineto
          endchar
        </CharString>
        <CharString name="egrave">
          -102 414 -68 -93 callgsubr
          -16 -75 callgsubr
          -87 -102 -41 -73 -79 hvcurveto
          -62 -73 -29 -90 -88 -72 callsubr
          156 90 181 246 24 vhcurveto
          4 -3 -63 -9 -45 -21 -48 -24 rlinecurve
          -36 -18 -51 -30 -15 -30 -24 -33 rcurveline
          -32 -55 -21 -65 -67 vvcurveto
          -46 10 -46 22 -45 vhcurveto
          -9 -8 rlineto
          -86 43 81 -66 100 -80 callgsubr
          88 32 107 71 56 hvcurveto
          -70 -60 -30 -105 -85 -79 callsubr
          396 rmoveto
          -19 2 -19 4 -20 4 rrcurveto
          47 27 128 39 37 -77 callsubr
          -95 -59 -70 callgsubr
          -28 -227 rmoveto
          -12 11 -8 11 -6 12 7 -12 10 -11 9 -11 rrcurveto
          -27 748 -104 callsubr
        </CharString>
        <CharString name="eight">
          -58 406 622 rmoveto
          -9 -1 -25 -4 -13 vvcurveto
          -15 58 -20 16 -6 vhcurveto
          4 -10 rlineto
          20 -8 34 -20 -23 vvcurveto
          -19 -17 -16 -12 -11 vhcurveto
          9 11 16 16 17 vvcurveto
          22 -28 12 -18 7 vhcurveto
          -4 -5 rlineto
          6 -17 25 -2 -19 vvcurveto
          -40 -100 -57 -29 -13 vhcurveto
          -22 17 -65 68 25 vvcurveto
          35 67 23 24 8 vhcurveto
          12 -11 -19 7 -16 hhcurveto
          -25 -63 -38 -39 -1 hvcurveto
          -9 -1 rlineto
          -43 callsubr
          64 85 19 14 vvcurveto
          -1 6 -10 7 -4 6 rrcurveto
          -62 -22 -66 -47 -70 vvcurveto
          -58 37 -51 36 -38 vhcurveto
          -91 -43 -116 -88 -113 vvcurveto
          -130 153 -74 119 102 198 85 138 92 -74 68 -66 50 vhcurveto
          63 37 82 57 81 vvcurveto
          73 -59 45 -66 4 vhcurveto
          54 -19 54 -41 -64 vvcurveto
          -79 -86 -46 -61 -35 vhcurveto
          -2 2 rlineto
          58 33 84 51 74 vvcurveto
          73 -83 51 -68 -5 -6 0 -1 -5 vhcurveto
          64 -498 rmoveto
          -54 -118 -44 -41 -6 vhcurveto
          -1 -10 -10 -1 -10 hhcurveto
          -59 -66 23 74 63 63 30 52 26 hvcurveto
          -52 -24 -66 -34 -62 vvcurveto
          -75 68 -25 59 49 50 16 28 40 vhcurveto
          -1 -5 rlineto
          -30 -38 -53 -18 -50 hhcurveto
          -62 -70 28 78 86 110 47 64 34 hvcurveto
          39 -36 112 -40 -78 vvcurveto
          -225 198 rmoveto
          -98 -43 -85 -57 -7 -95 6 104 86 51 94 46 rrcurveto
          60 -44 rmoveto
          -67 -38 -103 -40 -92 vvcurveto
          -36 16 -37 29 -21 vhcurveto
          -29 21 -18 36 37 vvcurveto
          93 99 45 73 32 vhcurveto
          64 94 rmoveto
          63 35 -15 -13 -24 -16 -18 -10 rlinecurve
          endchar
        </CharString>
        <CharString name="emdash">
          246 851 340 rmoveto
          -21 16 hlineto
          -103 7 -104 -1 -103 13 104 -9 104 -3 104 -2 rrcurveto
          17 -20 3 -23 vhcurveto
          -17 -18 -2 -8 hhcurveto
          -111 1 -111 18 -111 1 -141 1 rcurveline
          -20 hlineto
          -54 -148 -3 -30 -21 40 -13 16 -4 hvcurveto
          -11 -11 vlineto
          -9 -17 -26 callgsubr
          29 28 -11 29 115 116 3 115 hhcurveto
          58 57 -1 -2 58 hvcurveto
          4 -72 -71 2 -72 hhcurveto
          -32 -32 0 -1 -32 hvcurveto
          6 vlineto
          3 26 27 1 26 62 61 -6 61 hhcurveto
          17 18 1 1 17 -61 callsubr
          -1 38 39 -4 38 hhcurveto
          14 14 4 7 13 hvcurveto
          -118 20 -121 -3 -119 5 90 1 rcurveline
          3 -32 callgsubr
          90 91 -16 90 hhcurveto
          11 6 14 11 14 vvcurveto
          11 -11 9 -9 4 vhcurveto
          endchar
        </CharString>
        <CharString name="endash">
          -170 50 365 rmoveto
          -17 13 -14 14 -7 vhcurveto
          -11 vlineto
          -9 -9 -1 -11 -33 83 -5 76 hvcurveto
          50 48 1 18 hhcurveto
          -130 13 rlineto
          3 12 12 1 12 33 33 -8 32 12 callgsubr
          0 1 7 hvcurveto
          4 -11 rlineto
          -2 19 15 -6 19 hhcurveto
          8 15 callsubr
          5 hvcurveto
          -56 22 -60 0 -59 6 rrcurveto
          44 99 -4 -17 38 hvcurveto
          8 9 6 12 12 vvcurveto
          8 -4 7 -5 6 vhcurveto
          -10 1 1 16 -51 9 -53 1 -50 16 rlinecurve
          51 -11 52 -3 52 -7 rrcurveto
          14 0 2 -14 vhcurveto
          -67 -62 29 -67 -11 -24 1 -28 hhcurveto
          -52 -63 -5 -27 hvcurveto
          endchar
        </CharString>
        <CharString name="equal">
          -41 575 437 rmoveto
          4 16 -63 24 -68 1 -65 14 rlinecurve
          66 -11 68 -4 64 -19 rrcurveto
          -64 callgsubr
          4 2 vvcurveto
          21 -191 23 -36 5 vhcurveto
          -29 3 -16 0 -41 1 rrcurveto
          -62 -135 -3 -33 -20 22 -13 16 -5 -61 callsubr
          -8 -15 0 -12 -34 36 10 21 -9 hvcurveto
          4 58 58 0 58 hhcurveto
          48 48 -2 -5 47 hvcurveto
          9 -61 -62 2 -62 hhcurveto
          -1 5 rlineto
          3 15 15 1 15 51 51 -11 51 hhcurveto
          7 -11 rlineto
          -3 23 14 -11 24 14 callsubr
          3 4 6 hvcurveto
          -61 37 -85 -2 -69 6 rrcurveto
          66 96 -7 -29 60 hvcurveto
          12 8 12 13 15 vvcurveto
          10 -9 9 -10 vhcurveto
          -41 -184 rmoveto
          11 vlineto
          8 -1 rlineto
          8 7 4 9 hvcurveto
          5 -1 5 5 vvcurveto
          -51 callsubr
          -19 -19 4 7 -18 hvcurveto
          -74 -75 -3 -74 hhcurveto
          -37 -37 1 2 -37 hvcurveto
          -5 41 41 -2 42 hhcurveto
          25 25 1 1 26 hvcurveto
          -6 vlineto
          -3 -17 -17 -1 -17 -40 -40 5 -39 hhcurveto
          -11 -11 0 -1 -11 hvcurveto
          -8 11 rlineto
          1 -25 -16 4 -25 hhcurveto
          -10 -9 -5 -6 -8 hvcurveto
          75 -19 79 2 77 -5 -61 -1 rcurveline
          -39 callgsubr
          -57 -57 13 3 -57 hvcurveto
          -8 -8 -8 -11 -12 vvcurveto
          -9 5 -9 8 -5 vhcurveto
          14 hlineto
          -3 1 -3 -3 -3 10 callgsubr
          67 -7 67 0 66 -12 -67 9 -67 3 -67 2 -1 -5 rcurveline
          -12 12 -3 14 vhcurveto
          11 13 2 6 88 86 -21 88 hhcurveto
          38 149 1 31 19 -20 14 -16 6 hvcurveto
          endchar
        </CharString>
        <CharString name="eth">
          -75 533 726 rmoveto
          -10 -12 -4 -6 -11 hvcurveto
          -9 6 rlineto
          5 5 2 5 3 vvcurveto
          11 -19 3 -7 8 vhcurveto
          -22 -35 -71 -38 -18 -7 rrcurveto
          57 -63 -124 60 -38 hhcurveto
          -12 -6 -4 -6 -19 56 -32 39 -33 hvcurveto
          -5 -9 rlineto
          19 -29 -35 12 -10 hhcurveto
          -17 11 -22 -4 -11 hvcurveto
          21 -10 56 -27 29 -22 -12 -4 rcurveline
          -11 10 -30 -7 -40 -11 -13 -30 rlinecurve
          41 9 42 18 36 5 2 -2 rcurveline
          -42 -4 -36 -22 -46 -13 rrcurveto
          -3 -6 0 -7 -5 vvcurveto
          -14 7 -15 18 -3 vhcurveto
          4 2 7 3 0 vvcurveto
          3 -4 2 -6 2 -5 rrcurveto
          16 44 52 19 53 hhcurveto
          -54 -6 -46 -12 -48 -22 rrcurveto
          -7 2 5 -6 8 hhcurveto
          10 15 13 1 15 hvcurveto
          33 2 42 24 39 3 rrcurveto
          50 -60 31 -95 -87 -24 callgsubr
          -90 -11 -50 -100 -81 -15 -23 10 -8 hhcurveto
          -7 3 rlineto
          -10 16 20 -5 20 hhcurveto
          74 55 89 88 13 hvcurveto
          5 hlineto
          -93 -5 -65 -91 -76 hhcurveto
          -17 -21 5 8 -16 hvcurveto
          -5 2 -29 14 -25 40 -2 42 rlinecurve
          11 hlineto
          2 20 7 41 19 10 5 4 rcurveline
          27 14 57 4 38 13 rrcurveto
          -11 -10 1 -11 hhcurveto
          -80 -64 -36 -76 -44 26 -44 34 -17 hvcurveto
          7 -3 rlineto
          -7 20 17 -5 20 hhcurveto
          31 27 12 21 25 hvcurveto
          -22 -25 -28 -14 -33 hhcurveto
          -20 -18 6 7 -21 hvcurveto
          -3 2 rlineto
          -34 -27 76 30 35 8 39 21 21 hvcurveto
          12 5 rlineto
          5 26 13 4 23 hvcurveto
          3 20 21 1 22 12 13 -1 13 hhcurveto
          23 8 23 11 14 vvcurveto
          -1 8 -10 8 -26 6 rrcurveto
          -13 -27 -1 0 hvcurveto
          -3 -62 callgsubr
          3 11 callgsubr
          3 2 3 vhcurveto
          -19 -24 -1 -3 -24 hvcurveto
          7 33 36 7 2 hhcurveto
          5 -7 7 -29 -29 -60 -9 -30 -51 vhcurveto
          -13 -10 rlineto
          -44 -39 -26 -62 -67 vvcurveto
          -72 42 -75 70 -35 vhcurveto
          9 -5 rlineto
          -10 31 27 -11 38 hhcurveto
          242 21 308 33 hvcurveto
          -5 78 -36 93 -44 71 rrcurveto
          34 34 81 33 57 vvcurveto
          13 -17 9 -10 vhcurveto
          -360 -685 rmoveto
          11 -5 rlineto
          -13 25 35 -6 31 hhcurveto
          19 hlineto
          -1 -11 -10 0 -10 hhcurveto
          -136 7 -51 99 -5 78 5 -64 37 -67 60 -28 rrcurveto
          6 117 rmoveto
          -16 8 11 -13 11 hhcurveto
          -12 7 -10 10 -8 12 rrcurveto
          0 vmoveto
          -9 14 -6 18 -1 12 rrcurveto
          -17 6 -16 10 -11 vhcurveto
          endchar
        </CharString>
        <CharString name="exclam">
          -363 121 692 rmoveto
          -5 -6 -1 -6 hhcurveto
          -3 -2 0 -55 callgsubr
          -17 -5 -18 -8 -15 vhcurveto
          -6 -93 -7 -90 -92 vvcurveto
          1 49 7 47 1 50 rrcurveto
          6 hlineto
          1 -10 1 -10 -10 -43 -10 -43 -43 vvcurveto
          -14 1 -15 3 -14 vhcurveto
          -11 -1 1 -32 -5 -53 29 -22 rlinecurve
          -4 41 0 40 41 vvcurveto
          39 3 38 3 39 vhcurveto
          -1 -46 -3 -47 -46 vvcurveto
          -42 1 -70 34 15 9 9 13 5 vhcurveto
          -4 13 16 4 rlineto
          -5 19 -2 19 20 vvcurveto
          1 -20 6 -19 5 -18 rrcurveto
          8 1 7 5 9 14 -8 13 14 122 26 119 122 vvcurveto
          18 -2 36 -25 -19 -13 -19 -15 -7 vhcurveto
          -11 1 1 10 rlineto
          4 -5 8 -5 vhcurveto
          139 -583 rmoveto
          -9 5 -8 -1 rlineto
          -13 -11 9 -13 hhcurveto
          -34 hlineto
          -30 -62 -48 -31 -23 41 -3 16 hvcurveto
          9 -42 callsubr
          11 -6 11 -5 10 -7 rlinecurve
          3 2 9 -2 rlineto
          10 11 5 7 14 -2 -3 1 -1 hhcurveto
          -5 -5 -1 -3 -6 hvcurveto
          -3 4 1 5 4 3 5 1 rlinecurve
          17 -3 9 3 rlineto
          -11 vlineto
          13 -6 3 3 -57 callsubr
          rlinecurve
          16 -11 -20 2 -17 hhcurveto
          1 4 6 3 4 hhcurveto
          11 17 -10 -6 9 hvcurveto
          5 14 6 16 15 vvcurveto
          -1 9 rlineto
          -5 hlineto
          3 17 -23 9 -26 1 -24 6 rlinecurve
          25 -3 25 -3 24 -5 1 10 rcurveline
          -99 236 rmoveto
          22 3 22 4 20 vhcurveto
          -3 -21 -3 -21 -1 -22 rrcurveto
          60 -332 rmoveto
          -1 1 0 1 -1 -1 1 0 vhcurveto
          endchar
        </CharString>
        <CharString name="exclamdown">
          -422 178 269 rmoveto
          -19 -14 -17 -16 -7 hvcurveto
          -11 1 1 11 rlineto
          17 -24 -8 -10 4 vhcurveto
          -1 -18 -5 -18 -9 -16 -6 -109 -11 -108 -5 -109 7 66 7 65 3 66 rrcurveto
          5 hlineto
          1 -10 1 -9 -10 -49 -15 -48 -48 vvcurveto
          -9 1 -8 1 -9 vhcurveto
          -11 -106 hlineto
          28 72 -5 85 11 76 -9 -84 -2 -84 -11 -83 -12 -10 rcurveline
          -57 vlineto
          41 29 85 35 56 vvcurveto
          -9 -11 -10 -10 -10 -9 -71 -11 rcurveline
          67 15 10 9 16 15 5 13 rlinecurve
          -2 11 -5 10 -10 7 rrcurveto
          25 100 14 166 104 vvcurveto
          18 0 33 -25 vhcurveto
          16 259 rmoveto
          -3 -1 -3 12 -7 6 -8 2 rlinecurve
          5 5 1 2 callsubr
          -1 6 -3 7 -4 5 rrcurveto
          -1 -3 -4 -2 -3 -17 -16 6 -17 hhcurveto
          -16 -54 -35 -16 hvcurveto
          3 -11 rlineto
          -8 37 -18 8 -2 vhcurveto
          8 -8 -2 -1 8 -9 9 -9 10 -6 rlinecurve
          -1 hlineto
          4 -1 15 callgsubr
          -2 5 7 18 7 12 2 rrcurveto
          -3 -1 1 -2 hhcurveto
          -7 -8 -1 -4 -5 hvcurveto
          -2 5 10 7 rlineto
          24 hlineto
          2 -8 5 -1 6 0 5 -2 rlinecurve
          2 4 1 5 1 4 rrcurveto
          11 -15 -18 0 -18 hhcurveto
          13 4 8 -1 26 -2 4 -6 rlinecurve
          10 vlineto
          15 -2 17 -7 13 vhcurveto
          -30 -552 rmoveto
          -13 -82 3 28 2 27 8 27 rlinecurve
          -63 -140 rmoveto
          4 -1 -5 -6 -4 2 rlineto
          48 -18 rmoveto
          7 vlineto
          3 -1 rlineto
          -7 vlineto
          -11 740 rmoveto
          11 -4 rlineto
          2 -7 1 3 -6 hvcurveto
          endchar
        </CharString>
        <CharString name="f">
          -155 461 517 rmoveto
          4 4 0 7 6 vvcurveto
          13 -7 16 -15 5 vhcurveto
          -3 -6 -3 0 hvcurveto
          -3 3 0 6 -3 6 -16 -6 -16 -3 -15 -3 15 3 16 6 16 9 rrcurveto
          11 -6 -2 2 -7 -10 -16 -10 -10 hhcurveto
          -28 -31 -8 -2 -29 hvcurveto
          8 85 30 63 56 39 rrcurveto
          70 40 117 -3 24 vvcurveto
          11 -29 26 -56 4 vhcurveto
          -3 0 6 3 hvcurveto
          57 7 4 11 hvcurveto
          -1 21 rlineto
          1 -12 -12 0 -13 hhcurveto
          -57 -65 -3 -34 -57 hvcurveto
          -121 -68 -36 -139 -10 -103 rrcurveto
          -38 -4 -60 10 -39 vvcurveto
          -15 10 -16 18 -7 vhcurveto
          -8 -11 rlineto
          -9 -2 -5 -7 hvcurveto
          -6 1 -7 -5 vvcurveto
          -4 vlineto
          15 15 -3 -6 15 hvcurveto
          23 8 1 1 8 hvcurveto
          1 -75 6 -73 -69 vvcurveto
          -51 -3 -49 -10 -48 vhcurveto
          12 53 4 54 56 vvcurveto
          65 -5 67 -1 70 vhcurveto
          5 hlineto
          2 -58 callsubr
          1 -55 1 -54 -52 vvcurveto
          -73 -3 -70 -10 -71 vhcurveto
          -9 -1 -21 -103 -48 -40 -21 -63 rlinecurve
          42 52 34 34 24 74 14 64 rlinecurve
          -21 -109 -27 -51 -60 -70 -12 -15 rcurveline
          -6 -24 rlineto
          -20 5 -13 11 8 10 6 15 14 vhcurveto
          18 27 rlineto
          9 3 -3 -6 3 hvcurveto
          44 55 38 71 21 78 -9 -37 -11 -34 -14 -37 -18 -39 -27 -33 -21 -30 rrcurveto
          -3 1 2 -2 3 hhcurveto
          23 49 83 72 24 hvcurveto
          56 130 -16 147 8 137 rrcurveto
          78 vlineto
          32 5 32 6 32 7 -33 -6 -31 -4 -32 -5 rrcurveto
          8 vlineto
          32 3 32 0 32 13 rrcurveto
          -6 7 -2 9 21 35 13 16 6 vhcurveto
          -60 -3 -57 -17 -57 -4 rrcurveto
          1 vlineto
          64 9 53 13 60 10 rrcurveto
          -282 -418 rmoveto
          1 vlineto
          7 46 3 48 49 vvcurveto
          45 -3 47 -1 48 vhcurveto
          2 -50 9 -54 -50 vvcurveto
          -32 -6 -32 -5 -29 vhcurveto
          78 186 rmoveto
          -93 -3 -99 -24 -96 vhcurveto
          24 99 0 96 3 93 rrcurveto
          25 240 rmoveto
          26 25 3 3 26 hvcurveto
          -4 -17 -21 -5 -18 hhcurveto
          -8 -7 1 2 -6 hvcurveto
          endchar
        </CharString>
        <CharString name="five">
          -114 173 584 rmoveto
          -1 -15 -13 -9 -15 vvcurveto
          -4 1 -5 3 -5 vhcurveto
          -8 -10 -6 -12 -6 -12 -9 3 rcurveline
          4 12 5 13 13 vvcurveto
          23 -22 -16 -8 12 vhcurveto
          -15 -43 -21 -105 -44 vvcurveto
          -62 34 -2 50 -6 vhcurveto
          71 -8 139 -10 -96 vvcurveto
          -56 -48 -47 -50 -18 vhcurveto
          61 22 42 44 68 vvcurveto
          24 -16 27 -21 11 9 callsubr
          27 -14 15 -32 -30 vvcurveto
          -83 -86 -48 -71 -17 vhcurveto
          9 vlineto
          -2 -10 -10 0 -10 hhcurveto
          -45 -16 20 9 -38 hvcurveto
          -42 13 57 -7 37 hhcurveto
          77 101 56 83 12 hvcurveto
          -84 -5 -115 -62 -76 -116 25 79 -53 hhcurveto
          -14 -5 -18 -11 -1 hvcurveto
          3 -11 6 -10 6 -9 -12 -4 rcurveline
          25 -52 56 -26 57 -3 -58 1 -60 27 -29 51 rrcurveto
          -5 -2 -4 -5 -5 vvcurveto
          -63 137 -24 48 140 149 104 150 234 -244 -58 -50 35 vhcurveto
          36 6 -11 61 44 35 36 2 33 12 21 -1 24 hhcurveto
          50 61 5 29 16 -10 15 -13 8 hvcurveto
          9 vlineto
          13 2 6 9 hvcurveto
          6 -1 5 5 vvcurveto
          1 5 rlineto
          -14 -14 4 8 -11 hvcurveto
          -78 -76 -15 -6 -77 hvcurveto
          46 46 3 6 46 hvcurveto
          -6 vlineto
          -45 -15 -48 14 -45 -14 -3 12 rcurveline
          -1 -10 -9 -2 -29 hhcurveto
          -6 -12 rlineto
          -6 3 6 -2 7 13 callgsubr
          1 2 callsubr
          5 52 0 1 28 hvcurveto
          -2 -29 -27 -2 -28 hhcurveto
          -21 -4 rlineto
          259 -497 rmoveto
          -50 -74 -80 -39 -88 -10 86 12 80 44 52 67 rrcurveto
          -83 439 rmoveto
          -7 -25 -2 -21 hhcurveto
          -13 -11 1 2 -4 hvcurveto
          10 61 0 -1 10 hvcurveto
          -189 -4 rmoveto
          44 hlineto
          -5 -5 rlineto
          endchar
        </CharString>
        <CharString name="foundryicon">
          189 720 hmoveto
          288 -288 288 -288 -576 vlineto
          576 432 rmoveto
          144 -144 -144 vlineto
          endchar
        </CharString>
        <CharString name="four">
          -150 441 197 rmoveto
          -6 4 rlineto
          1 15 6 45 15 vvcurveto
          12 -3 rlineto
          3 19 9 26 18 vvcurveto
          9 -6 7 -3 8 vhcurveto
          -18 -40 -10 -60 -6 -43 -4 1 rcurveline
          5 33 12 88 15 27 rrcurveto
          9 -9 -14 8 -13 hhcurveto
          -11 -10 -8 -12 hvcurveto
          -15 3 -6 -19 -4 -18 -3 -19 rlinecurve
          7 56 rlineto
          1 -2 8 callgsubr
          -18 -13 -116 -17 -2 hvcurveto
          3 -35 -34 2 -35 hhcurveto
          -6 3 rlineto
          -5 -14 4 callgsubr
          -9 -8 1 3 callsubr
          21 1 28 10 19 vhcurveto
          74 23 71 72 vvcurveto
          15 0 55 -24 -20 -16 -35 -15 -5 vhcurveto
          -9 hlineto
          1 14 rlineto
          8 -3 10 -9 2 vhcurveto
          -22 -1 -12 -85 -26 -73 -1 -91 rlinecurve
          -34 -16 -37 -37 vvcurveto
          -102 107 -3 72 vhcurveto
          -8 7 rlineto
          -22 -16 4 callgsubr
          -33 -12 5 34 -48 hvcurveto
          -6 3 rlineto
          18 -15 21 24 vvcurveto
          28 9 29 4 28 vhcurveto
          6 hlineto
          -3 -29 -7 -30 -29 vvcurveto
          -82 78 -17 74 33 33 3 3 25 vhcurveto
          5 -11 6 -1 1 -42 rlineto
          -35 -13 -35 -35 vvcurveto
          -18 3 -21 23 16 14 11 13 8 vhcurveto
          9 -3 rlineto
          -1 -3 -1 -4 -3 vvcurveto
          -18 24 6 11 -5 vhcurveto
          3 17 6 16 9 15 2 36 rcurveline
          1 20 4 85 17 12 -31 2 rcurveline
          9 vlineto
          6 29 -3 -2 5 hvcurveto
          10 10 15 8 15 vvcurveto
          11 -11 8 -8 5 vhcurveto
          -20 hlineto
          21 2 26 4 22 vhcurveto
          -3 -15 -7 -39 -1 -13 rrcurveto
          -125 -50 rmoveto
          -2 vlineto
          -96 2 -3 3 rlineto
          -7 -8 0 -7 hhcurveto
          -15 -14 0 3 -15 hvcurveto
          69 hlineto
          32 32 -6 32 hhcurveto
          121 -22 rmoveto
          -1 -9 -10 -40 -9 vvcurveto
          -1 -1 1 -2 hhcurveto
          -1 -1 0 -1 -70 callsubr
          0 hvcurveto
          11 8 35 8 vvcurveto
          -196 97 rmoveto
          109 -5 rlineto
          -1 -12 -19 0 -20 hhcurveto
          -24 -24 1 5 -10 hvcurveto
          -1 -93 rmoveto
          6 -5 48 3 rlineto
          1 -13 -13 1 -14 -4 -5 0 -5 hhcurveto
          -65 100 rmoveto
          21 25 -2 -5 20 hvcurveto
          -22 2 -23 0 -22 5 rrcurveto
          189 7 rmoveto
          -1 hlineto
          5 29 -1 -10 1 -9 -4 -10 rlinecurve
          -261 -61 rmoveto
          16 -13 10 1 18 -6 -17 4 -13 0 -14 14 rrcurveto
          360 94 rmoveto
          -9 callsubr
          0 vhcurveto
          0 1 -52 callsubr
          endchar
        </CharString>
        <CharString name="g">
          -50 416 360 rmoveto
          -58 -34 -70 -104 -31 hhcurveto
          -47 -61 78 88 106 86 22 110 hvcurveto
          57 39 -8 15 12 callgsubr
          2 5 15 -34 39 -91 11 hvcurveto
          12 vlineto
          -6 51 26 -5 14 hhcurveto
          8 4 2 3 2 hvcurveto
          2 vlineto
          5 -3 5 5 11 callgsubr
          3 4 1 vhcurveto
          13 -49 -46 6 -47 hhcurveto
          -159 -126 -69 -164 -6 0 -5 1 -6 hvcurveto
          -122 89 -160 140 vhcurveto
          25 3 rlineto
          69 58 81 26 19 hvcurveto
          2 -20 3 -35 -2 -35 6 -34 rlinecurve
          -59 -9 -54 -22 -46 vhcurveto
          23 44 10 55 53 vvcurveto
          43 -4 45 -6 46 vhcurveto
          5 7 rlineto
          6 -48 5 -47 -45 vvcurveto
          -66 -11 -62 -31 -53 vhcurveto
          -14 2 rlineto
          -55 -40 -56 -42 -71 hhcurveto
          -40 -36 10 7 -22 hvcurveto
          -23 21 38 -14 40 hhcurveto
          65 52 26 42 38 hvcurveto
          -45 -40 -54 -28 -66 -94 -36 83 -28 hhcurveto
          -7 -6 -4 -13 hvcurveto
          -45 49 -37 -1 vvcurveto
          -5 -7 -2 -4 vhcurveto
          -31 39 46 -12 46 hhcurveto
          78 73 34 49 53 hvcurveto
          -51 -53 -71 -35 -81 hhcurveto
          -48 -50 12 31 -41 hvcurveto
          -2 -2 -1 -3 -5 32 -54 107 hvcurveto
          12 hlineto
          54 3 63 24 36 24 rrcurveto
          133 70 43 150 135 101 -23 99 87 vvcurveto
          -117 36 -17 -29 26 -8 rlineto
          -2 vlineto
          -36 -201 rmoveto
          15 18 18 24 12 17 2 -12 rcurveline
          -29 -37 -50 -72 -81 -10 -7 3 rcurveline
          57 6 36 36 27 27 rrcurveto
          73 -97 rmoveto
          52 -6 52 -5 52 vhcurveto
          5 6 5 -59 rlineto
          3 -32 2 -32 -31 vvcurveto
          -61 -15 -61 -25 -51 vhcurveto
          24 49 12 58 58 vvcurveto
          74 -26 rmoveto
          -6 -78 -21 -87 -57 -63 rrcurveto
          69 80 14 108 89 vvcurveto
          63 -9 61 -5 61 vhcurveto
          8 -65 7 -67 -70 vvcurveto
          endchar
        </CharString>
        <CharString name="germandbls">
          -6 302 306 rmoveto
          48 55 -13 -21 43 hvcurveto
          -38 20 -47 14 -43 5 57 -3 61 -16 46 -28 -1 -12 rcurveline
          34 -23 12 -25 -31 vvcurveto
          -70 -68 -9 -42 vhcurveto
          -14 -11 1 -5 hhcurveto
          -7 21 22 -3 22 hhcurveto
          56 33 28 54 6 hvcurveto
          25 -7 23 -13 19 vhcurveto
          15 -20 8 -22 -21 vvcurveto
          -67 -45 -26 -62 -50 -67 22 3 -21 vhcurveto
          -10 -6 -2 -8 -13 27 -38 73 -11 hvcurveto
          3 -2 1 -28 callgsubr
          -4 -4 -3 -4 -3 vhcurveto
          -3 18 18 -3 19 hhcurveto
          43 60 14 39 38 hvcurveto
          -34 -28 -47 -23 -70 hhcurveto
          -19 -19 2 4 -19 hvcurveto
          7 callsubr
          -2 vvcurveto
          0 6 -20 66 67 122 39 145 28 -4 26 -11 26 vhcurveto
          -32 83 -88 46 -72 22 rrcurveto
          42 51 15 67 66 vvcurveto
          109 -3 -73 132 -134 hhcurveto
          -50 -71 -27 -27 -18 hvcurveto
          -68 -58 -5 -79 -41 vvcurveto
          -68 9 -58 11 -61 vhcurveto
          16 -88 4 -21 4 -25 1 -14 rlinecurve
          2 -33 0 -14 -14 vvcurveto
          -123 -27 -116 -22 -107 vhcurveto
          -8 -36 -2 -26 -17 vvcurveto
          -15 3 -8 5 14 35 58 90 29 vhcurveto
          11 -3 rlineto
          -15 -53 -7 -26 -15 vvcurveto
          -13 4 -1 4 vhcurveto
          2 -32 callgsubr
          hhcurveto
          3 5 0 -3 6 hvcurveto
          28 105 48 119 116 vvcurveto
          2 28 0 28 28 -44 callgsubr
          24 vhcurveto
          101 -35 83 -6 79 vhcurveto
          -2 24 -1 23 22 vvcurveto
          37 12 30 11 12 vhcurveto
          7 5 rlineto
          19 19 27 6 13 hhcurveto
          45 45 -60 -76 -64 -24 -34 -53 -36 hvcurveto
          2 hlineto
          52 34 26 34 70 vvcurveto
          71 -40 65 -58 -16 -21 -10 -12 -16 vhcurveto
          -10 -8 -6 -6 -9 -12 -3 -17 rlinecurve
          -6 -1 5 27 17 15 -1 1 rlinecurve
          7 6 rlineto
          16 20 23 10 19 hhcurveto
          56 47 -66 -77 -68 -42 -60 -63 -33 hvcurveto
          18 -93 rlineto
          55 129 rmoveto
          30 35 15 45 45 vvcurveto
          34 -9 33 -16 29 vhcurveto
          17 -29 10 -38 -34 vvcurveto
          -55 -25 -57 -44 -34 vhcurveto
          -6 hlineto
          10 8 10 9 8 9 rrcurveto
          -2 -122 rmoveto
          -9 callgsubr
          2 hhcurveto
          64 -7 54 -26 36 -34 -34 31 -54 20 -70 14 rrcurveto
          269 -167 rmoveto
          1 3 4 9 3 vvcurveto
          101 -85 75 -119 34 vhcurveto
          0 1 0 1 vvcurveto
          93 -27 111 -65 -120 vvcurveto
          -11 -2 -12 -2 -11 vhcurveto
          1 0 1 1 5 -2 6 6 vvcurveto
          -157 110 rmoveto
          -4 2 -3 2 -4 1 rrcurveto
          endchar
        </CharString>
        <CharString name="grave">
          -402 25 775 -104 callsubr
        </CharString>
        <CharString name="grave.cap">
          -402 25 935 -104 callsubr
        </CharString>
        <CharString name="greater">
          3 127 521 rmoveto
          -16 -61 -1 -24 -21 54 -14 16 -4 hvcurveto
          -1 -11 rlineto
          1 -7 -6 1 -7 hhcurveto
          -10 -10 -3 -10 -4 hvcurveto
          1 -4 1 -6 -6 -2 -1 -28 callgsubr
          61 212 -47 -24 57 hvcurveto
          -45 -8 -44 -13 -43 -14 45 13 47 6 44 15 10 -4 rcurveline
          -51 -9 -50 -13 -47 -20 -3 10 rcurveline
          -58 -22 -66 -24 -43 -47 72 12 56 54 71 14 -68 -19 -62 -43 -66 -26 rrcurveto
          -16 -6 -12 -12 -18 vvcurveto
          -14 15 -6 12 3 19 7 1 4 vhcurveto
          5 -15 21 7 22 7 20 11 rlinecurve
          -19 -14 -22 -9 -22 -8 12 -11 rcurveline
          26 1 56 44 28 12 140 62 61 -28 170 98 -21 30 -19 32 -28 25 rrcurveto
          73 -83 -239 48 -111 hhcurveto
          224 -154 rmoveto
          11 3 76 -28 -12 -3 rlineto
          40 -2 rmoveto
          4 -1 -39 -15 -61 -12 -44 -10 rlinecurve
          165 -35 rmoveto
          -50 -18 -52 -7 -51 -11 50 16 52 6 51 14 rrcurveto
          -170 34 rmoveto
          1 2 0 callgsubr
          endchar
        </CharString>
        <CharString name="guillemotleft">
          -14 611 526 rmoveto
          10 -9 6 -9 -17 -20 -15 -10 -13 vhcurveto
          -8 6 rlineto
          4 5 7 11 7 vvcurveto
          10 -20 3 -6 6 vhcurveto
          -34 -58 -127 -83 -55 -60 -36 -40 -21 -45 -26 -47 89 -24 9 7 47 -70 -47 72 -3 -7 -90 27 39 67 23 47 59 51 4 -4 rcurveline
          -47 -46 -32 -51 -34 -56 105 -37 -31 9 69 -74 -9 -7 rcurveline
          -42 30 42 -56 57 hhcurveto
          6 7 2 2 6 hvcurveto
          -76 19 -34 57 -41 60 47 -65 34 -46 83 -20 rrcurveto
          13 5 13 11 15 vvcurveto
          12 -25 12 -10 4 vhcurveto
          4 13 -28 8 -21 18 -16 24 rlinecurve
          18 -22 21 -17 28 -6 1 7 rcurveline
          1 -58 56 -12 20 vhcurveto
          -17 28 -18 27 -25 21 rrcurveto
          49 51 161 120 71 vvcurveto
          -363 -473 rmoveto
          -55 43 -72 44 -32 64 35 -64 82 -35 53 -50 rrcurveto
          15 3 19 9 18 vvcurveto
          11 -10 12 -11 2 vhcurveto
          8 15 rlineto
          -44 26 -87 54 58 vvcurveto
          1 8 rlineto
          -69 80 -44 53 -29 vhcurveto
          4 10 rlineto
          -1 20 -118 52 55 92 173 139 46 vvcurveto
          14 -12 7 -13 -14 -13 -6 -7 -12 vhcurveto
          -8 7 rlineto
          2 2 13 14 5 vvcurveto
          10 -16 6 -6 8 vhcurveto
          -17 -19 -20 -9 -17 -16 rrcurveto
          -71 -67 -87 -120 -101 vvcurveto
          -40 16 -36 24 -32 vhcurveto
          -23 33 -14 38 40 vvcurveto
          55 23 45 28 46 vhcurveto
          3 -4 2 1 rlineto
          -22 -44 -27 -49 -51 vvcurveto
          -57 31 -52 45 -34 vhcurveto
          -7 -8 rlineto
          -27 29 48 -42 42 hhcurveto
          12 196 rmoveto
          -3 1 5 9 6 9 6 9 rlinecurve
          10 -35 rmoveto
          27 -7 10 -4 21 -19 -17 15 -20 8 -21 7 rrcurveto
          103 27 rmoveto
          1 1 21 -26 -7 8 -8 8 -7 9 rlinecurve
          -310 41 rmoveto
          -1 -9 callsubr
          -9 callgsubr
          vvcurveto
          endchar
        </CharString>
        <CharString name="guillemotright">
          39 289 107 rmoveto
          7 -15 83 34 78 46 79 43 rlinecurve
          -76 -48 -81 -41 -81 -39 rrcurveto
          -7 4 -4 7 18 39 27 8 19 vhcurveto
          105 44 174 87 132 vvcurveto
          48 -101 164 -48 -18 -5 -16 -16 -8 2 -8 1 -6 vhcurveto
          -9 -6 rlineto
          6 -3 -9 20 -10 hhcurveto
          -9 -8 -8 -2 -9 hvcurveto
          25 -62 39 -56 38 -55 -2 -37 -110 -73 -47 -26 51 27 97 56 14 50 6 -2 rcurveline
          -51 -137 -67 -39 -29 vhcurveto
          -6 9 -32 -18 -58 -16 -19 -32 rlinecurve
          94 24 89 52 75 61 -58 -52 -128 -78 -77 -17 rrcurveto
          -4 -8 -3 -9 -9 vvcurveto
          -17 11 -8 16 vhcurveto
          116 239 rmoveto
          61 -20 -101 234 -75 hhcurveto
          -15 -6 -15 -13 -12 4 -12 5 -11 hvcurveto
          -8 -7 -22 18 -24 -19 34 -41 62 -93 19 -49 rlinecurve
          -38 -40 -35 -43 -34 -42 34 41 36 42 39 37 4 -8 rcurveline
          -45 -42 -43 -45 -32 -53 -9 6 rcurveline
          -21 -26 -44 -41 -4 -34 80 57 46 94 72 66 -70 -72 -51 -90 -77 -65 rrcurveto
          -18 5 -24 22 9 9 8 7 5 vhcurveto
          12 -11 59 59 43 77 66 52 rlinecurve
          -64 -58 -43 -72 -58 -62 11 -7 rcurveline
          18 1 26 49 13 14 68 74 58 66 80 62 rrcurveto
          -111 66 rmoveto
          -5 -15 -5 -5 4 16 rlineto
          -24 -23 rmoveto
          5 2 3 -6 -5 -4 rlineto
          10 -6 rmoveto
          2 -5 -3 -13 -2 6 rlineto
          endchar
        </CharString>
        <CharString name="guilsinglleft">
          -220 382 110 rmoveto
          9 15 -54 35 -153 46 -21 57 rlinecurve
          35 -62 134 -34 63 -39 4 9 rcurveline
          -3 38 -214 46 -8 68 rrcurveto
          1 2 0 2 hvcurveto
          38 57 167 137 50 vvcurveto
          13 -11 5 -11 -16 -17 -8 -9 -13 vhcurveto
          -8 8 18 25 -3 11 -12 2 -7 9 rlinecurve
          -16 -17 -236 -156 -127 vvcurveto
          -101 97 -49 79 -34 vhcurveto
          -76 35 -96 50 98 vvcurveto
          44 28 36 27 32 vhcurveto
          5 -4 rlineto
          -26 -35 -25 -25 -48 vvcurveto
          -99 90 -48 81 -28 vhcurveto
          -4 -10 rlineto
          -13 30 65 -37 30 hhcurveto
          -65 61 -171 28 -28 91 39 -29 25 -35 45 -26 52 -30 72 -16 42 -43 rrcurveto
          15 1 24 7 18 vvcurveto
          12 -12 14 -11 2 vhcurveto
          endchar
        </CharString>
        <CharString name="guilsinglright">
          -225 105 459 rmoveto
          48 -29 106 -88 20 -54 -14 -14 rcurveline
          18 14 rlineto
          17 -34 39 -12 12 vhcurveto
          4 4 rlineto
          19 -15 31 -33 -26 vvcurveto
          -1 vlineto
          -1 2 -1 -8 -69 -46 -10 -7 rlinecurve
          -6 9 -35 -20 -63 -20 -19 -37 rlinecurve
          39 16 39 15 38 18 -39 -21 -41 -26 -41 -13 rrcurveto
          -2 -7 -3 -8 -8 vvcurveto
          -17 12 -8 16 vhcurveto
          21 11 9 -14 21 12 22 10 22 10 rlinecurve
          -64 -37 11 -10 rlineto
          18 36 31 8 20 hvcurveto
          77 31 102 46 96 vvcurveto
          82 -52 48 -58 48 vhcurveto
          39 -47 -91 86 -62 hhcurveto
          -10 -10 -5 -11 -18 16 -21 12 -12 hvcurveto
          -5 -9 rlineto
          2 -4 -14 8 -5 hhcurveto
          -12 -1 -20 -7 -7 hvcurveto
          21 -10 19 -15 15 -19 rrcurveto
          199 -173 rmoveto
          -2 13 rlineto
          1 -4 2 -5 -4 vvcurveto
          -20 -45 -24 -16 -11 vhcurveto
          21 16 24 15 15 24 rrcurveto
          65 -42 rmoveto
          -15 -27 -26 -22 -26 -14 25 15 26 21 16 27 rrcurveto
          -104 30 rmoveto
          -20 -15 rlineto
          10 7 10 7 1 vvcurveto
          -43 -29 rmoveto
          -24 callsubr
          hvcurveto
          -2 -9 callsubr
          0 vvcurveto
          -13 -7 rmoveto
          13 7 -2 -1 rlineto
          endchar
        </CharString>
        <CharString name="h">
          -68 189 13 rmoveto
          -85 callsubr
          126 vlineto
          130 -12 126 -26 -14 -11 -58 -90 -3 vhcurveto
          -28 callsubr
          -72 -12 -61 -84 -67 callgsubr
          222 522 -60 callsubr
          -334 -523 -65 callgsubr
          endchar
        </CharString>
        <CharString name="hbar">
          -73 381 685 rmoveto
          4 2 6 1 4 vhcurveto
          -51 9 -51 2 -47 13 47 -10 51 -6 51 -2 rrcurveto
          3 2 2 3 vvcurveto
          5 -6 6 -13 vhcurveto
          -6 -8 -1 -7 hhcurveto
          -3 -16 3 -55 callgsubr
          -38 11 -56 6 -34 1 rrcurveto
          93 -4 -11 73 -20 hhcurveto
          -14 -11 -58 -90 -3 hvcurveto
          -28 callsubr
          vvcurveto
          -11 0 -11 -1 -11 vhcurveto
          -8 -8 1 -9 hhcurveto
          -27 -27 -4 -22 -13 10 -16 17 -7 -61 callsubr
          -3 8 callgsubr
          -9 -2 -8 -9 -26 20 13 22 -14 hvcurveto
          20 hlineto
          -1 -22 -1 -23 -24 -67 callgsubr
          -85 callsubr
          99 vlineto
          30 30 -1 -2 32 hvcurveto
          -36 4 -26 2 -30 1 rrcurveto
          10 vlineto
          -2 29 29 -7 29 hhcurveto
          6 7 0 1 6 hvcurveto
          5 -10 rlineto
          -2 17 16 -5 16 hhcurveto
          9 4 4 6 8 hvcurveto
          -54 19 -60 1 -56 6 53 -2 70 -3 53 -15 rrcurveto
          5 12 9 7 13 vvcurveto
          6 -3 7 -4 6 vhcurveto
          -321 -672 -65 callgsubr
          242 538 -60 callsubr
          endchar
        </CharString>
        <CharString name="hyphen">
          -87 callsubr
        </CharString>
        <CharString name="i">
          -99 callgsubr
          206 768 rmoveto
          9 -29 18 -19 vhcurveto
          -3 -3 rlineto
          -3 -6 3 3 -6 hvcurveto
          -6 -6 -16 -18 -9 -6 6 6 19 21 3 6 -18 6 rcurveline
          -5 4 -9 -5 hhcurveto
          -13 -5 -54 -22 -28 -26 22 -28 -8 vvcurveto
          -4 -1 -2 -3 hvcurveto
          -7 5 -14 -10 vvcurveto
          10 -1 11 0 9 -2 rrcurveto
          -1 -70 callsubr
          8 74 70 14 12 vhcurveto
          -50 -47 rlineto
          -3 0 3 0 hvcurveto
          9 27 30 0 9 27 rrcurveto
          3 6 -3 -3 hvcurveto
          23 23 rlineto
          4 -4 4 -4 5 vhcurveto
          -30 -15 -12 -24 -24 -15 20 20 18 24 22 13 rrcurveto
          endchar
        </CharString>
        <CharString name="iacute">
          -99 callgsubr
          14 542 -107 callsubr
        </CharString>
        <CharString name="icircumflex">
          -99 callgsubr
          217 597 -106 callsubr
        </CharString>
        <CharString name="idieresis">
          -99 callgsubr
          240 662 rmoveto
          14 -8 6 -12 3 vhcurveto
          -1 7 6 0 8 hhcurveto
          9 0 11 -27 callgsubr
          -4 -2 -4 -19 -44 20 -9 -12 -2 -5 -11 -7 -7 1 -6 hhcurveto
          -14 -11 -20 callgsubr
          4 -17 8 -8 -61 callsubr
          -1 -1 1 -1 -19 callgsubr
          -8 -8 -32 6 19 13 -17 hvcurveto
          6 hlineto
          25 13 2 24 hhcurveto
          8 9 0 -1 8 hvcurveto
          2 -13 -12 3 -13 hhcurveto
          -7 -6 0 -1 -6 hvcurveto
          8 11 2 6 vhcurveto
          13 14 -7 13 -46 callgsubr
          -53 callgsubr
          4 -10 8 -2 15 -1 8 -3 rlinecurve
          -77 callgsubr
          -20 callsubr
          3 4 -74 callsubr
          -25 18 -27 -2 -26 5 rrcurveto
          6 6 1 6 hhcurveto
          9 37 -6 -8 14 hvcurveto
          3 -2 rlineto
          3 -21 callsubr
          12 vvcurveto
          8 -1 9 -3 7 vhcurveto
          -260 10 rmoveto
          5 1 6 5 vvcurveto
          -15 8 -37 0 -18 11 19 -8 35 -2 17 -4 rrcurveto
          3 -4 callgsubr
          vvcurveto
          8 -2 3 -3 vhcurveto
          -3 -4 -1 -3 -16 -53 17 -5 hhcurveto
          -13 -40 -8 -19 -16 7 -24 9 -9 hvcurveto
          -49 callgsubr
          -4 0 -1 -3 -29 -21 callsubr
          -13 hvcurveto
          4 hlineto
          3 17 36 6 15 hhcurveto
          5 4 -1 -1 4 hvcurveto
          3 -7 -28 2 -7 hhcurveto
          -6 -5 -1 -2 -5 9 callgsubr
          -1 -1 callgsubr
          -57 callsubr
          7 28 -4 6 hhcurveto
          3 -43 callsubr
          hvcurveto
          3 -12 4 -1 1 -1 4 -3 rlinecurve
          2 1 5 6 2 hvcurveto
          -9 18 -37 1 -17 2 rrcurveto
          3 24 2 4 hhcurveto
          11 18 -9 -5 4 -20 callsubr
          2 9 rlineto
          2 10 3 12 12 vvcurveto
          4 0 3 -1 4 vhcurveto
          184 27 rmoveto
          12 -5 9 -4 11 -2 -10 2 -12 2 -10 7 rrcurveto
          29 -102 rmoveto
          -5 hlineto
          endchar
        </CharString>
        <CharString name="igrave">
          -99 callgsubr
          -20 723 -104 callsubr
        </CharString>
</ttFont>
